<svg width="41" height="40" viewBox="0 0 41 40" fill="none" xmlns="http://www.w3.org/2000/svg">
<g clip-path="url(#clip0_484_6941)">
<g opacity="0.2">
<rect width="39.3333" height="39.3333" transform="translate(0.833984 0.332031)" fill="#D1B67A"/>
</g>
<path d="M16.6521 21.4443H14.7237C13.9293 21.4443 13.2793 22.0943 13.2793 22.8888V26.4999C13.2793 26.8971 13.6043 27.2221 14.0015 27.2221H16.6521C17.0493 27.2221 17.3743 26.8971 17.3743 26.4999V22.1666C17.3743 21.7693 17.0493 21.4443 16.6521 21.4443Z" fill="#B89E66"/>
<path d="M21.4607 18.5557H19.5323C18.7379 18.5557 18.0879 19.2057 18.0879 20.0001V26.5001C18.0879 26.8973 18.4129 27.2223 18.8101 27.2223H22.1829C22.5801 27.2223 22.9051 26.8973 22.9051 26.5001V20.0001C22.9051 19.2057 22.2623 18.5557 21.4607 18.5557Z" fill="#B89E66"/>
<path d="M26.2775 23.6104H24.3492C23.952 23.6104 23.627 23.9354 23.627 24.3326V26.4992C23.627 26.8965 23.952 27.2215 24.3492 27.2215H26.9997C27.397 27.2215 27.722 26.8965 27.722 26.4992V25.0548C27.722 24.2604 27.072 23.6104 26.2775 23.6104Z" fill="#B89E66"/>
<path d="M22.6754 14.8359C22.8993 14.612 22.986 14.3448 22.9138 14.1137C22.8416 13.8826 22.6177 13.7165 22.2999 13.6659L21.6066 13.5504C21.5777 13.5504 21.5127 13.4998 21.4982 13.4709L21.1154 12.7054C20.8266 12.1204 20.1693 12.1204 19.8804 12.7054L19.4977 13.4709C19.4904 13.4998 19.4254 13.5504 19.3966 13.5504L18.7032 13.6659C18.3854 13.7165 18.1688 13.8826 18.0893 14.1137C18.0171 14.3448 18.1038 14.612 18.3277 14.8359L18.8621 15.3776C18.891 15.3992 18.9127 15.4859 18.9054 15.5148L18.7538 16.1792C18.6382 16.6776 18.826 16.9015 18.9488 16.9881C19.0716 17.0748 19.3388 17.1904 19.7793 16.9304L20.4293 16.5476C20.4582 16.5259 20.5521 16.5259 20.581 16.5476L21.2238 16.9304C21.426 17.0531 21.5921 17.0892 21.7221 17.0892C21.8738 17.0892 21.9821 17.0315 22.0471 16.9881C22.1699 16.9015 22.3577 16.6776 22.2421 16.1792L22.0904 15.5148C22.0832 15.4787 22.1049 15.3992 22.1338 15.3776L22.6754 14.8359Z" fill="#B89E66"/>
</g>
<defs>
<clipPath id="clip0_484_6941">
<rect x="0.833984" y="0.333008" width="39.3333" height="39.3333" rx="19.6667" fill="white"/>
</clipPath>
</defs>
</svg>
