<svg width="32" height="32" viewBox="0 0 32 32" fill="none" xmlns="http://www.w3.org/2000/svg">
<mask id="mask0_209_12133" style="mask-type:luminance" maskUnits="userSpaceOnUse" x="0" y="0" width="32" height="32">
<path d="M31.5 31.5V0.5H0.5V31.5H31.5Z" fill="white" stroke="white"/>
</mask>
<g mask="url(#mask0_209_12133)">
<path d="M15.1797 29.6124C14.747 30.0232 14.0631 30.0054 13.6523 29.5725C13.2415 29.1398 13.2593 28.4559 13.6921 28.0452C14.1249 27.6344 14.8087 27.6522 15.2195 28.085C15.6303 28.5177 15.6125 29.2016 15.1797 29.6124Z" stroke="#2F2F2F" stroke-miterlimit="10" stroke-linecap="round" stroke-linejoin="round"/>
<path d="M17.7276 25.766L15.2188 28.085" stroke="#2F2F2F" stroke-miterlimit="10" stroke-linecap="round" stroke-linejoin="round"/>
<path d="M16.8718 29.6124C17.3045 30.0232 17.9884 30.0054 18.3992 29.5725C18.81 29.1398 18.7922 28.4559 18.3594 28.0452C17.9266 27.6344 17.2428 27.6522 16.832 28.085C16.4212 28.5177 16.439 29.2016 16.8718 29.6124Z" stroke="#2F2F2F" stroke-miterlimit="10" stroke-linecap="round" stroke-linejoin="round"/>
<path d="M14.3242 25.766L16.8331 28.085" stroke="#2F2F2F" stroke-miterlimit="10" stroke-linecap="round" stroke-linejoin="round"/>
<path d="M21.3262 8.23332C21.1851 8.33093 21.0176 8.38321 20.846 8.38319C20.7311 8.38319 20.6191 8.37094 20.5108 8.34794V11.5737C20.5108 11.6127 20.5088 11.6512 20.5078 11.6899C21.6505 11.8239 22.6014 10.9897 22.6014 9.96894C22.6014 9.18463 22.0811 8.44876 21.3262 8.23332Z" stroke="#2F2F2F" stroke-miterlimit="10" stroke-linecap="round" stroke-linejoin="round"/>
<path d="M11.4852 11.5738V8.38328H10.9292C10.7881 8.38328 10.6523 8.36072 10.5248 8.31984C9.88809 8.59015 9.39453 9.24659 9.39453 9.96896C9.39453 10.9884 10.3435 11.8241 11.488 11.6899C11.487 11.6512 11.4852 11.6126 11.4852 11.5738Z" stroke="#2F2F2F" stroke-miterlimit="10" stroke-linecap="round" stroke-linejoin="round"/>
<path d="M19.2237 6.76061C19.2237 6.67368 19.1074 6.64374 19.0663 6.72036C18.5374 7.70974 17.4949 8.38311 16.2947 8.38311H11.4844V11.5737C11.4844 13.8988 13.3062 16.0225 16.062 16.0225C18.5152 16.0225 20.511 14.0267 20.511 11.5737V8.34786C19.7781 8.19223 19.2237 7.53811 19.2237 6.76061Z" stroke="#2F2F2F" stroke-miterlimit="10" stroke-linecap="round" stroke-linejoin="round"/>
<path d="M8.30078 24.1802V31.5303" stroke="#2F2F2F" stroke-miterlimit="10" stroke-linecap="round" stroke-linejoin="round"/>
<path d="M23.75 24.1802V31.5303" stroke="#2F2F2F" stroke-miterlimit="10" stroke-linecap="round" stroke-linejoin="round"/>
<path d="M23.75 26.7098V31.5303H26.7106C27.1596 31.5303 27.5236 31.1663 27.5236 30.7172V26.7098H23.75Z" stroke="#2F2F2F" stroke-miterlimit="10" stroke-linecap="round" stroke-linejoin="round"/>
<path d="M8.30046 26.7098H4.47266V30.7172C4.47266 31.1663 4.83672 31.5303 5.28572 31.5303H8.30046V26.7098Z" stroke="#2F2F2F" stroke-miterlimit="10" stroke-linecap="round" stroke-linejoin="round"/>
<path d="M18.4939 17.3674C18.4939 17.3372 18.4977 17.3082 18.5031 17.2799L16.0691 19.787C16.0242 19.8333 15.9993 19.8954 16 19.9599C16.0007 20.0244 16.0268 20.086 16.0727 20.1313L17.29 21.334C17.5278 21.569 17.9187 21.538 18.1166 21.2687L18.4939 20.7553V17.3674Z" stroke="#2F2F2F" stroke-miterlimit="10" stroke-linecap="round" stroke-linejoin="round"/>
<path d="M13.4922 17.2757C13.4982 17.3053 13.5022 17.3356 13.5022 17.3674V20.7509L13.8827 21.2687C14.0807 21.5381 14.4716 21.5689 14.7093 21.3341L15.9267 20.1313C15.9725 20.086 15.9987 20.0244 15.9993 19.9599C16 19.8954 15.9752 19.8333 15.9302 19.7871L13.4922 17.2757Z" stroke="#2F2F2F" stroke-miterlimit="10" stroke-linecap="round" stroke-linejoin="round"/>
<path d="M25.0853 19.6416L20.7733 17.9716V24.1802H18.4927V17.3673C18.4927 17.2521 18.535 17.1503 18.6024 17.0722C18.5325 16.9911 18.4939 16.8878 18.4933 16.7808L18.4919 15.2981C17.7931 15.7553 16.9589 16.0224 16.0632 16.0224C15.0754 16.0224 14.2086 15.7485 13.5017 15.2913V16.778C13.5017 16.9108 13.456 17.0045 13.3925 17.0728C13.4633 17.1545 13.502 17.2591 13.5017 17.3673V24.1802H11.2211V17.9711L6.9124 19.6416C5.86934 20.0708 4.47266 21.4215 4.47266 23.4258V30.7172C4.47266 31.1663 4.83665 31.5303 5.28565 31.5303H26.712C27.161 31.5303 27.525 31.1663 27.525 30.7172V23.4258C27.525 21.6997 26.4199 20.1908 25.0853 19.6416Z" stroke="#2F2F2F" stroke-miterlimit="10" stroke-linecap="round" stroke-linejoin="round"/>
<path d="M20.4561 17.4737L19.1115 16.9449C18.8141 16.8279 18.4922 17.0471 18.4922 17.3668V24.1797H20.7728V17.9386C20.7728 17.8383 20.7426 17.7403 20.6861 17.6573C20.6296 17.5744 20.5494 17.5104 20.4561 17.4737Z" stroke="#2F2F2F" stroke-miterlimit="10" stroke-linecap="round" stroke-linejoin="round"/>
<path d="M12.884 16.9449L11.5394 17.4737C11.446 17.5104 11.3658 17.5744 11.3094 17.6573C11.2529 17.7403 11.2226 17.8383 11.2227 17.9386V24.1797H13.5033V17.3668C13.5033 17.0471 13.1814 16.8279 12.884 16.9449Z" stroke="#2F2F2F" stroke-miterlimit="10" stroke-linecap="round" stroke-linejoin="round"/>
<path d="M21.6967 4.4262V3.93389C21.6967 3.0862 20.9571 2.47002 20.2219 2.52652C19.7969 2.5592 19.4068 2.29196 19.325 1.87352C19.1873 1.1689 18.8384 0.469586 17.4756 0.469586H12.7475C11.0122 0.469586 9.60547 1.87627 9.60547 3.61158V7.05988C9.60547 7.7905 10.1978 8.38281 10.9285 8.38281H16.2947C17.4949 8.38281 18.5374 7.70938 19.0664 6.72007C19.1073 6.64344 19.2238 6.67332 19.2238 6.76032C19.2238 7.65269 19.9539 8.38281 20.8462 8.38281H20.8462C21.3139 8.38281 21.6967 8.00013 21.6967 7.53232V6.61369" stroke="#2F2F2F" stroke-miterlimit="10" stroke-linecap="round" stroke-linejoin="round"/>
<path d="M14.9038 24.1802H10.9572C10.5206 24.1802 10.1667 24.5341 10.1667 24.9707V25.601C10.1666 26.2954 9.99657 26.9791 9.67131 27.5926C9.34605 28.206 8.8755 28.7304 8.30078 29.12V31.5303H23.7518V29.12L23.7444 29.1151C23.1566 28.7279 22.6741 28.2008 22.3403 27.5812C22.0064 26.9615 21.8317 26.2687 21.8317 25.5649V24.9707C21.8317 24.5341 21.4777 24.1802 21.0411 24.1802H17.0913" stroke="#2F2F2F" stroke-miterlimit="10" stroke-linecap="round" stroke-linejoin="round"/>
</g>
</svg>
