<svg width="42" height="42" viewBox="0 0 42 42" fill="none" xmlns="http://www.w3.org/2000/svg">
<g clip-path="url(#clip0_209_12644)">
<path d="M20.9999 12.6545C22.25 12.6471 23.4699 12.2696 24.5057 11.5697C25.5415 10.8698 26.3468 9.87884 26.8201 8.72177C27.2934 7.56471 27.4134 6.2934 27.1649 5.06822C26.9165 3.84304 26.3108 2.71888 25.4243 1.83753C24.5377 0.956182 23.41 0.357138 22.1833 0.115964C20.9567 -0.125209 19.6861 0.00229191 18.5319 0.482383C17.3776 0.962474 16.3914 1.77365 15.6977 2.81358C15.0039 3.85351 14.6336 5.07562 14.6336 6.32573C14.6416 8.00827 15.316 9.61908 16.5093 10.8053C17.7025 11.9915 19.3173 12.6565 20.9999 12.6545ZM20.9999 1.50417C21.9537 1.51157 22.8839 1.80127 23.6732 2.3367C24.4626 2.87214 25.0757 3.62934 25.4352 4.5128C25.7948 5.39625 25.8846 6.36639 25.6935 7.30086C25.5023 8.23532 25.0387 9.09225 24.3611 9.76356C23.6836 10.4349 22.8224 10.8905 21.8862 11.073C20.95 11.2554 19.9807 11.1566 19.1006 10.7888C18.2205 10.4211 17.4691 9.80099 16.941 9.00671C16.4129 8.21242 16.1319 7.27954 16.1333 6.32573C16.1413 5.04162 16.658 3.81303 17.5702 2.90924C18.4824 2.00544 19.7157 1.50017 20.9999 1.50417ZM16.8682 15.5864H25.1166C26.6903 15.5928 28.2062 16.1804 29.3729 17.2365C30.5397 18.2925 31.2751 19.7425 31.4378 21.3078L32.9375 21.1728C32.7411 19.2349 31.834 17.4384 30.3911 16.1299C28.9482 14.8213 27.0719 14.0935 25.1241 14.0867H16.8757C14.9278 14.0935 13.0515 14.8213 11.6087 16.1299C10.1658 17.4384 9.25865 19.2349 9.0622 21.1728L10.5619 21.3078C10.7243 19.7451 11.4576 18.2972 12.6212 17.2415C13.7849 16.1858 15.2971 15.5965 16.8682 15.5864ZM6.64018 35.1276L8.13988 34.8877L6.57269 25.1396C6.55665 25.0208 6.56619 24.9001 6.60067 24.7853C6.63515 24.6706 6.69378 24.5646 6.77261 24.4744C6.85145 24.3842 6.94867 24.3119 7.05774 24.2624C7.16682 24.2128 7.28523 24.1872 7.40503 24.1872H34.6172C34.7385 24.1856 34.8586 24.2111 34.9689 24.2616C35.0791 24.3122 35.1767 24.3867 35.2546 24.4797C35.3323 24.5663 35.3901 24.669 35.4238 24.7804C35.4575 24.8919 35.4663 25.0093 35.4496 25.1246L33.8824 34.8727L35.3821 35.1126L36.9568 25.3645C37.0053 25.0325 36.9816 24.6939 36.8874 24.3718C36.7931 24.0497 36.6304 23.7518 36.4104 23.4984C36.1904 23.245 35.9184 23.042 35.6128 22.9034C35.3072 22.7647 34.9753 22.6937 34.6397 22.695H7.38253C7.04554 22.6945 6.71238 22.7666 6.40572 22.9063C6.09906 23.0461 5.8261 23.2502 5.60538 23.5049C5.38643 23.7588 5.22539 24.0573 5.13345 24.3798C5.04151 24.7022 5.02088 25.0408 5.07298 25.372L6.64018 35.1276Z" fill="#393939"/>
<path d="M23.7369 25.6123H25.769V27.112H23.7369V25.6123ZM16.2309 25.6123H22.7171V27.112H16.2309V25.6123ZM7.64508 41.9966H34.3549C34.7298 42.0161 35.1049 41.9592 35.4571 41.8291C35.8094 41.6991 36.1315 41.4987 36.4038 41.2402C36.6761 40.9817 36.893 40.6705 37.0412 40.3254C37.1894 39.9804 37.2658 39.6089 37.2658 39.2334C37.2658 38.8579 37.1894 38.4863 37.0412 38.1413C36.893 37.7963 36.6761 37.4851 36.4038 37.2266C36.1315 36.9681 35.8094 36.7677 35.4571 36.6377C35.1049 36.5076 34.7298 36.4506 34.3549 36.4702H7.64508C7.27011 36.4506 6.89507 36.5076 6.54282 36.6377C6.19057 36.7677 5.86848 36.9681 5.59614 37.2266C5.32381 37.4851 5.10695 37.7963 4.95875 38.1413C4.81056 38.4863 4.73413 38.8579 4.73413 39.2334C4.73413 39.6089 4.81056 39.9804 4.95875 40.3254C5.10695 40.6705 5.32381 40.9817 5.59614 41.2402C5.86848 41.4987 6.19057 41.6991 6.54282 41.8291C6.89507 41.9592 7.27011 42.0161 7.64508 41.9966ZM7.64508 37.9699H34.3549C34.529 37.9565 34.704 37.9792 34.8689 38.0366C35.0338 38.094 35.1851 38.1849 35.3132 38.3035C35.4414 38.4222 35.5436 38.566 35.6135 38.726C35.6834 38.886 35.7195 39.0588 35.7195 39.2334C35.7195 39.408 35.6834 39.5808 35.6135 39.7408C35.5436 39.9008 35.4414 40.0446 35.3132 40.1633C35.1851 40.2819 35.0338 40.3728 34.8689 40.4302C34.704 40.4876 34.529 40.5103 34.3549 40.4969H7.64508C7.47097 40.5103 7.29597 40.4876 7.13105 40.4302C6.96613 40.3728 6.81486 40.2819 6.68672 40.1633C6.55858 40.0446 6.45635 39.9008 6.38643 39.7408C6.31651 39.5808 6.28042 39.408 6.28042 39.2334C6.28042 39.0588 6.31651 38.886 6.38643 38.726C6.45635 38.566 6.55858 38.4222 6.68672 38.3035C6.81486 38.1849 6.96613 38.094 7.13105 38.0366C7.29597 37.9792 7.47097 37.9565 7.64508 37.9699Z" fill="#393939"/>
</g>
<defs>
<clipPath id="clip0_209_12644">
<rect width="42" height="42" fill="white"/>
</clipPath>
</defs>
</svg>
