<svg width="32" height="32" viewBox="0 0 32 32" fill="none" xmlns="http://www.w3.org/2000/svg">
<path d="M27.4355 21.504C26.2045 21.665 25.261 21.29 24.357 20.272C24.6595 20.042 24.828 19.879 24.8535 19.8535C24.9447 19.7593 24.9953 19.6331 24.9944 19.502C24.9934 19.3709 24.941 19.2454 24.8484 19.1526C24.7558 19.0597 24.6305 19.007 24.4994 19.0056C24.3683 19.0043 24.2419 19.0545 24.1475 19.1455C24.1235 19.169 21.71 21.5 17 21.5C14.626 21.5 13.003 20.9895 11.4325 20.495C9.878 20.006 8.27 19.5 6 19.5C5.86739 19.5 5.74021 19.5527 5.64645 19.6464C5.55268 19.7402 5.5 19.8674 5.5 20C5.5 20.1326 5.55268 20.2598 5.64645 20.3536C5.74021 20.4473 5.86739 20.5 6 20.5C7.354 20.5 8.441 20.6895 9.455 20.9535C8.865 21.8685 7.951 22.5975 6.82 23.034C6.7103 23.0753 6.61864 23.1539 6.56108 23.256C6.50352 23.3581 6.48374 23.4772 6.50521 23.5924C6.52669 23.7077 6.58803 23.8116 6.6785 23.8862C6.76897 23.9607 6.88279 24.001 7 24C7.06 24 7.1205 23.9895 7.1795 23.9665C8.613 23.414 9.7565 22.452 10.4515 21.238C10.678 21.307 10.9045 21.3775 11.133 21.4495L11.385 21.528C10.8633 22.5504 10.116 23.4409 9.1995 24.132C9.14707 24.1715 9.10294 24.221 9.06963 24.2776C9.03631 24.3342 9.01447 24.3968 9.00535 24.4618C8.99622 24.5268 9 24.593 9.01645 24.6566C9.03291 24.7201 9.06172 24.7798 9.10125 24.8323C9.14078 24.8847 9.19025 24.9288 9.24683 24.9621C9.30341 24.9954 9.366 25.0173 9.43103 25.0264C9.49605 25.0355 9.56224 25.0318 9.6258 25.0153C9.68937 24.9988 9.74907 24.97 9.8015 24.9305C10.8872 24.1115 11.7624 23.0458 12.3545 21.8215C12.709 21.9235 13.0775 22.0175 13.46 22.1045C13.2445 23.2755 12.7735 24.3575 12.11 25.187C12.0512 25.2605 12.0144 25.3491 12.0037 25.4427C11.993 25.5362 12.0089 25.6309 12.0496 25.7157C12.0903 25.8006 12.154 25.8724 12.2336 25.9226C12.3132 25.9729 12.4054 25.9997 12.4995 26C12.5746 26.0001 12.6487 25.9833 12.7164 25.9508C12.7841 25.9184 12.8436 25.8711 12.8905 25.8125C13.6535 24.858 14.1935 23.626 14.44 22.299C14.778 22.354 15.137 22.3955 15.509 22.4295C15.5845 23.5335 15.421 24.702 15.0275 25.836C15.0012 25.9114 14.9934 25.9919 15.0046 26.0709C15.0159 26.1499 15.0459 26.2251 15.0922 26.2901C15.1384 26.3551 15.1996 26.4081 15.2706 26.4446C15.3415 26.4812 15.4202 26.5001 15.5 26.5C15.6038 26.4999 15.705 26.4675 15.7896 26.4073C15.8742 26.3471 15.9379 26.2621 15.972 26.164C16.395 24.9465 16.5785 23.6875 16.514 22.487C16.676 22.492 16.8315 22.5 17 22.5C17.1075 22.5 17.207 22.4925 17.312 22.4905C17.517 23.892 18.1495 25.2415 19.1275 26.3335C19.1712 26.3826 19.2241 26.4226 19.2833 26.4511C19.3425 26.4796 19.4068 26.4962 19.4724 26.4998C19.538 26.5035 19.6037 26.4941 19.6657 26.4722C19.7276 26.4504 19.7847 26.4165 19.8335 26.3725C19.9323 26.284 19.9919 26.16 19.9992 26.0276C20.0065 25.8952 19.9609 25.7653 19.8725 25.6665C19.0455 24.744 18.5015 23.6125 18.3115 22.437C18.7007 22.4036 19.0884 22.3542 19.4735 22.289C19.988 23.7625 20.968 25.0675 22.2195 25.9145C22.2739 25.9513 22.335 25.977 22.3994 25.9902C22.4637 26.0034 22.53 26.0038 22.5945 25.9913C22.659 25.9789 22.7204 25.9539 22.7752 25.9177C22.83 25.8815 22.8772 25.8349 22.914 25.7805C22.9508 25.7261 22.9765 25.665 22.9897 25.6006C23.0029 25.5363 23.0033 25.47 22.9908 25.4055C22.9784 25.341 22.9534 25.2796 22.9172 25.2248C22.881 25.17 22.8344 25.1228 22.78 25.086C21.7385 24.3815 20.9115 23.3045 20.4565 22.0815C20.8256 21.9874 21.1901 21.8765 21.549 21.749C22.4735 23.0685 23.5245 24.0395 25.3825 24.4865C25.5116 24.5175 25.6477 24.496 25.761 24.4267C25.8742 24.3574 25.9553 24.246 25.9865 24.117C26.0174 23.9881 25.9959 23.8521 25.9267 23.739C25.8575 23.6259 25.7463 23.5448 25.6175 23.5135C24.297 23.196 23.4095 22.592 22.5025 21.363C22.8515 21.2039 23.1916 21.0262 23.5215 20.8305C24.5095 21.9805 25.6045 22.539 26.91 22.539C27.1225 22.539 27.3405 22.5245 27.565 22.495C27.6301 22.4866 27.693 22.4655 27.7499 22.4328C27.8068 22.4001 27.8568 22.3565 27.8969 22.3045C27.9369 22.2525 27.9664 22.1931 27.9835 22.1297C28.0006 22.0663 28.005 22.0001 27.9965 21.935C27.9783 21.8039 27.9093 21.6852 27.8043 21.6045C27.6994 21.5239 27.5669 21.4878 27.4355 21.504ZM3.5 7C3.36739 7 3.24021 7.05268 3.14645 7.14645C3.05268 7.24021 3 7.36739 3 7.5V11.5C3 11.6326 3.05268 11.7598 3.14645 11.8536C3.24021 11.9473 3.36739 12 3.5 12C3.63261 12 3.75979 11.9473 3.85355 11.8536C3.94732 11.7598 4 11.6326 4 11.5V7.5C4 7.36739 3.94732 7.24021 3.85355 7.14645C3.75979 7.05268 3.63261 7 3.5 7Z" fill="#2F2F2F"/>
<path d="M5.62114 7.01481C5.55744 6.9986 5.49116 6.99516 5.42613 7.00472C5.36109 7.01427 5.2986 7.03661 5.24225 7.07046C5.1859 7.1043 5.13682 7.14898 5.09784 7.20191C5.05886 7.25483 5.03075 7.31496 5.01514 7.37881L4.01514 11.3788C3.99655 11.4526 3.99506 11.5296 4.01078 11.604C4.02651 11.6784 4.05904 11.7482 4.10588 11.8082C4.15273 11.8681 4.21265 11.9165 4.28106 11.9497C4.34948 11.9829 4.42459 12.0001 4.50064 11.9998C4.61209 11.9997 4.72029 11.9623 4.80807 11.8936C4.89585 11.825 4.95817 11.7289 4.98514 11.6208L5.98514 7.62081C6.0172 7.49218 5.99686 7.35609 5.9286 7.24245C5.86035 7.12881 5.74975 7.04693 5.62114 7.01481ZM28.9476 10.2763C28.8881 10.1579 28.7841 10.0678 28.6583 10.0259C28.5325 9.98405 28.3953 9.99371 28.2766 10.0528L27.2766 10.5528C27.1591 10.6127 27.07 10.7166 27.0287 10.8419C26.9874 10.9673 26.9974 11.1038 27.0564 11.2218C27.1153 11.3398 27.2186 11.4298 27.3436 11.472C27.4686 11.5142 27.6052 11.5054 27.7236 11.4473L28.7236 10.9473C28.9706 10.8233 29.0711 10.5233 28.9476 10.2763ZM5.78064 11.9253C5.97964 11.9253 6.16814 11.8053 6.24614 11.6083L7.96564 7.23331C8.01425 7.10992 8.01184 6.97227 7.95895 6.85066C7.90607 6.72904 7.80704 6.63341 7.68364 6.58481C7.56025 6.53621 7.42261 6.53862 7.30099 6.5915C7.17937 6.64439 7.08375 6.74342 7.03514 6.86681L5.31564 11.2418C5.28573 11.3176 5.27481 11.3996 5.28382 11.4806C5.29283 11.5616 5.32151 11.6392 5.36735 11.7066C5.4132 11.7739 5.47482 11.8291 5.54685 11.8672C5.61888 11.9054 5.69914 11.9253 5.78064 11.9253ZM7.09464 11.6688C7.15374 11.6974 7.21789 11.7142 7.28345 11.718C7.349 11.7218 7.41467 11.7127 7.4767 11.6912C7.53873 11.6696 7.59591 11.6361 7.64497 11.5924C7.69403 11.5488 7.73402 11.4959 7.76264 11.4368L9.95014 6.92131C10.002 6.80272 10.006 6.66862 9.96112 6.54719C9.91625 6.42576 9.82608 6.32643 9.70954 6.27007C9.593 6.21371 9.45915 6.20469 9.3361 6.24492C9.21306 6.28515 9.11038 6.37149 9.04964 6.48581L6.86214 11.0013C6.80451 11.1207 6.79663 11.258 6.84023 11.3832C6.88382 11.5084 6.97533 11.6111 7.09464 11.6688ZM8.79914 11.3333C8.85546 11.3671 8.9179 11.3895 8.98288 11.3992C9.04786 11.4089 9.1141 11.4056 9.17783 11.3896C9.24155 11.3736 9.30149 11.3453 9.35423 11.3061C9.40696 11.2669 9.45145 11.2177 9.48514 11.1613L12.1816 6.65381C12.2497 6.53997 12.2698 6.40373 12.2375 6.27508C12.2051 6.14643 12.123 6.0359 12.0091 5.96781C11.8953 5.89972 11.7591 5.87964 11.6304 5.91199C11.5018 5.94434 11.3912 6.02647 11.3231 6.14031L8.62664 10.6478C8.55866 10.7616 8.53864 10.8977 8.57099 11.0263C8.60334 11.1548 8.6854 11.2653 8.79914 11.3333ZM11.0116 10.8818C11.0689 10.9139 11.1319 10.9343 11.1971 10.942C11.2622 10.9497 11.3283 10.9445 11.3914 10.9267C11.4546 10.9089 11.5136 10.8788 11.5651 10.8381C11.6166 10.7975 11.6596 10.7471 11.6916 10.6898L14.0646 6.45181C14.0968 6.39459 14.1174 6.33157 14.1252 6.26638C14.133 6.20119 14.1278 6.1351 14.1099 6.07192C14.0921 6.00873 14.0619 5.9497 14.0212 5.89819C13.9805 5.84669 13.93 5.80374 13.8726 5.77181C13.8154 5.73955 13.7524 5.71892 13.6872 5.71112C13.622 5.70331 13.5559 5.70848 13.4927 5.72632C13.4295 5.74417 13.3704 5.77434 13.3189 5.8151C13.2675 5.85586 13.2245 5.9064 13.1926 5.96381L10.8196 10.2018C10.7876 10.2591 10.7671 10.3221 10.7594 10.3872C10.7517 10.4524 10.7569 10.5184 10.7748 10.5816C10.7926 10.6447 10.8227 10.7038 10.8633 10.7553C10.904 10.8068 10.9544 10.8498 11.0116 10.8818ZM13.1301 10.4048C13.1865 10.4386 13.2489 10.461 13.3139 10.4707C13.3789 10.4804 13.4451 10.4771 13.5088 10.4611C13.5725 10.4451 13.6325 10.4168 13.6852 10.3776C13.738 10.3384 13.7824 10.2892 13.8161 10.2328L16.1941 6.25731C16.2622 6.14347 16.2823 6.00723 16.25 5.87858C16.2176 5.74993 16.1355 5.6394 16.0216 5.57131C15.9078 5.50322 15.7716 5.48313 15.6429 5.51549C15.5143 5.54784 15.4037 5.62997 15.3356 5.74381L12.9576 9.71931C12.8897 9.8331 12.8696 9.96923 12.902 10.0978C12.9343 10.2263 13.0164 10.3368 13.1301 10.4048ZM15.2951 9.90181C15.4018 9.98069 15.5354 10.014 15.6666 9.99454C15.7979 9.97505 15.916 9.9043 15.9951 9.79781L18.5896 6.29781C18.6686 6.19126 18.702 6.0577 18.6825 5.92652C18.663 5.79534 18.5922 5.67728 18.4856 5.59831C18.3791 5.51934 18.2455 5.48594 18.1144 5.50544C17.9832 5.52494 17.8651 5.59576 17.7861 5.70231L15.1916 9.20231C15.1525 9.25504 15.1241 9.31495 15.1082 9.37864C15.0922 9.44233 15.0889 9.50854 15.0985 9.5735C15.1081 9.63845 15.1304 9.70088 15.1642 9.75721C15.1979 9.81354 15.2424 9.86268 15.2951 9.90181ZM17.3986 9.46081C17.4447 9.50773 17.4995 9.54507 17.5601 9.57068C17.6206 9.59629 17.6856 9.60967 17.7513 9.61004C17.817 9.61041 17.8822 9.59777 17.943 9.57285C18.0038 9.54792 18.0591 9.5112 18.1056 9.46481L20.8496 6.75231C20.8976 6.70644 20.9359 6.65149 20.9624 6.59065C20.9889 6.52982 21.003 6.46432 21.0039 6.39797C21.0049 6.33162 20.9926 6.26576 20.9678 6.20421C20.943 6.14267 20.9062 6.08667 20.8595 6.03949C20.8129 5.9923 20.7573 5.95488 20.696 5.92939C20.6348 5.9039 20.5691 5.89087 20.5027 5.89104C20.4364 5.89121 20.3707 5.90458 20.3096 5.93038C20.2484 5.95618 20.1931 5.99389 20.1466 6.04131L17.4026 8.75381C17.3559 8.79994 17.3187 8.85483 17.2932 8.91535C17.2677 8.97586 17.2544 9.04081 17.254 9.10648C17.2537 9.17215 17.2662 9.23724 17.2911 9.29804C17.3159 9.35884 17.3524 9.41415 17.3986 9.46081ZM19.4216 9.36081C19.4625 9.41222 19.5132 9.45503 19.5707 9.48678C19.6282 9.51852 19.6915 9.53858 19.7568 9.54578C19.8221 9.55298 19.8881 9.5472 19.9512 9.52875C20.0142 9.51031 20.073 9.47957 20.1241 9.43831L22.6181 7.44031C22.6694 7.39933 22.7122 7.34863 22.7438 7.29112C22.7755 7.23361 22.7955 7.17041 22.8027 7.10515C22.8099 7.03988 22.8041 6.97384 22.7858 6.91081C22.7674 6.84778 22.7368 6.78899 22.6956 6.73781C22.6547 6.68651 22.604 6.6438 22.5465 6.61213C22.4889 6.58046 22.4257 6.56046 22.3605 6.55326C22.2952 6.54606 22.2292 6.55181 22.1661 6.57018C22.1031 6.58855 22.0443 6.61918 21.9931 6.66031L19.4991 8.65831C19.4478 8.69929 19.4051 8.74999 19.3735 8.8075C19.3418 8.86502 19.3218 8.92821 19.3146 8.99348C19.3074 9.05874 19.3131 9.12478 19.3315 9.18781C19.3499 9.25085 19.3805 9.30964 19.4216 9.36081ZM21.5601 9.75231C21.6044 9.80088 21.6579 9.84022 21.7174 9.86806C21.7769 9.89589 21.8414 9.91169 21.9071 9.91452C21.9727 9.91736 22.0383 9.90718 22.1 9.88457C22.1617 9.86197 22.2183 9.82738 22.2666 9.78281L24.1486 8.05781C24.1971 8.01346 24.2363 7.96 24.264 7.90049C24.2918 7.84098 24.3076 7.77659 24.3105 7.71098C24.3133 7.64538 24.3033 7.57985 24.2808 7.51813C24.2584 7.45642 24.224 7.39974 24.1796 7.35131C24.1353 7.30289 24.0818 7.26367 24.0223 7.23591C23.9628 7.20814 23.8984 7.19237 23.8328 7.18949C23.7672 7.18661 23.7017 7.19668 23.64 7.21913C23.5783 7.24157 23.5216 7.27596 23.4731 7.32031L21.5911 9.04531C21.5426 9.08967 21.5034 9.14315 21.4755 9.20271C21.4477 9.26226 21.4319 9.32672 21.4291 9.39238C21.4262 9.45805 21.4363 9.52364 21.4588 9.5854C21.4813 9.64716 21.5157 9.70388 21.5601 9.75231ZM23.4046 10.1718C23.4429 10.2252 23.4913 10.2704 23.5471 10.3051C23.6028 10.3397 23.6649 10.363 23.7297 10.3736C23.7944 10.3843 23.8607 10.382 23.9246 10.3671C23.9885 10.3521 24.0488 10.3246 24.1021 10.2863L25.9546 8.95831C26.0624 8.88093 26.135 8.76392 26.1565 8.63302C26.1779 8.50212 26.1465 8.36805 26.0691 8.26031C25.9918 8.15257 25.8748 8.07997 25.7439 8.0585C25.613 8.03703 25.4789 8.06843 25.3711 8.14581L23.5186 9.47381C23.4653 9.51215 23.4201 9.56062 23.3855 9.61645C23.3509 9.67228 23.3276 9.73437 23.317 9.79919C23.3065 9.86401 23.3087 9.93028 23.3238 9.99422C23.3388 10.0582 23.3663 10.1185 23.4046 10.1718ZM25.3476 10.7143C25.3829 10.7697 25.4287 10.8177 25.4825 10.8554C25.5363 10.8931 25.597 10.9199 25.6611 10.9341C25.7252 10.9484 25.7915 10.9499 25.8562 10.9385C25.9209 10.9271 25.9827 10.9031 26.0381 10.8678L27.6571 9.83631C27.7126 9.80105 27.7605 9.75522 27.7982 9.70144C27.8359 9.64765 27.8626 9.58697 27.8769 9.52285C27.8912 9.45873 27.8926 9.39243 27.8813 9.32774C27.8699 9.26305 27.8459 9.20123 27.8106 9.14581C27.7754 9.09039 27.7296 9.04246 27.6758 9.00476C27.622 8.96705 27.5613 8.94031 27.4972 8.92605C27.4331 8.9118 27.3668 8.91031 27.3021 8.92168C27.2374 8.93305 27.1756 8.95705 27.1201 8.99231L25.5011 10.0238C25.4457 10.0591 25.3978 10.1049 25.36 10.1587C25.3223 10.2124 25.2956 10.2731 25.2813 10.3373C25.2671 10.4014 25.2656 10.4677 25.277 10.5324C25.2883 10.5971 25.3124 10.6589 25.3476 10.7143Z" fill="#2F2F2F"/>
</svg>
