<svg width="32" height="32" viewBox="0 0 32 32" fill="none" xmlns="http://www.w3.org/2000/svg">
<path d="M24.6381 20.9634C24.2222 21.1331 23.8779 21.4418 23.664 21.8369C23.4502 22.232 23.3799 22.6891 23.4652 23.1302C23.5505 23.5713 23.7861 23.9691 24.1319 24.256C24.4776 24.5429 24.9122 24.701 25.3614 24.7034C25.8107 24.7058 26.2469 24.5524 26.5957 24.2693C26.9446 23.9861 27.1844 23.5908 27.2745 23.1507C27.3645 22.7105 27.2992 22.2527 27.0895 21.8554C26.8799 21.458 26.539 21.1456 26.1249 20.9714C25.8899 20.8718 25.6375 20.8198 25.3823 20.8184C25.1271 20.817 24.8742 20.8663 24.6381 20.9634ZM26.4757 22.3116C26.58 22.5678 26.5923 22.8522 26.5105 23.1164C26.4286 23.3806 26.2577 23.6082 26.0268 23.7605C25.7959 23.9128 25.5193 23.9802 25.2442 23.9514C24.9691 23.9226 24.7125 23.7992 24.5182 23.6024C24.3239 23.4056 24.2038 23.1475 24.1785 22.872C24.1532 22.5966 24.2242 22.3209 24.3794 22.092C24.5346 21.863 24.7644 21.695 25.0297 21.6165C25.2949 21.5381 25.5791 21.554 25.8339 21.6616C25.9787 21.722 26.1101 21.8106 26.2205 21.9222C26.3308 22.0337 26.4179 22.1661 26.4767 22.3116H26.4757ZM4.34815 15.8369C4.25677 15.4944 4.06586 15.1866 3.79957 14.9526C3.53328 14.7186 3.20357 14.5688 2.85215 14.5222C2.50072 14.4756 2.14337 14.5342 1.82528 14.6907C1.50718 14.8472 1.24265 15.0945 1.06513 15.4014C0.887604 15.7082 0.805069 16.0608 0.82796 16.4146C0.850851 16.7684 0.978139 17.1074 1.19373 17.3888C1.40931 17.6702 1.70352 17.8814 2.03912 17.9956C2.37473 18.1098 2.73666 18.1219 3.07915 18.0304C3.53811 17.9075 3.92953 17.6074 4.16745 17.1962C4.40538 16.7849 4.47037 16.296 4.34815 15.8369ZM2.88565 17.3059C2.68652 17.3591 2.47608 17.3521 2.28094 17.2857C2.0858 17.2193 1.91474 17.0965 1.78938 16.9329C1.66403 16.7693 1.59002 16.5722 1.57672 16.3665C1.56342 16.1608 1.61142 15.9558 1.71465 15.7774C1.81788 15.599 1.9717 15.4552 2.15666 15.3642C2.34162 15.2732 2.54941 15.2392 2.75374 15.2663C2.95806 15.2934 3.14975 15.3806 3.30455 15.5167C3.45936 15.6528 3.57032 15.8317 3.6234 16.0309C3.65969 16.1631 3.66935 16.3011 3.65182 16.4371C3.63428 16.573 3.5899 16.7041 3.52126 16.8227C3.45261 16.9414 3.36107 17.0452 3.25195 17.1281C3.14284 17.2111 3.01832 17.2715 2.88565 17.3059ZM30.7267 16.6024C30.6093 16.3145 30.3958 16.0763 30.1225 15.9282C29.8492 15.7801 29.5331 15.7314 29.2278 15.7903C28.9226 15.8492 28.6473 16.0121 28.4488 16.2513C28.2502 16.4905 28.1408 16.7911 28.139 17.1019C28.1373 17.4128 28.2434 17.7146 28.4392 17.9559C28.6351 18.1973 28.9086 18.3633 29.2131 18.4257C29.5176 18.488 29.8343 18.4428 30.1093 18.2978C30.3842 18.1528 30.6004 17.9169 30.7209 17.6304C30.7898 17.4679 30.8257 17.2934 30.8267 17.117C30.8277 16.9405 30.7937 16.7656 30.7267 16.6024ZM30.0294 17.3394C29.9761 17.4658 29.8806 17.5698 29.7592 17.6337C29.6378 17.6976 29.4981 17.7174 29.3637 17.6898C29.2293 17.6622 29.1087 17.5889 29.0223 17.4823C28.9359 17.3757 28.8892 17.2425 28.89 17.1054C28.8908 16.9682 28.9392 16.8355 29.0269 16.73C29.1145 16.6245 29.236 16.5526 29.3707 16.5267C29.5054 16.5007 29.645 16.5222 29.7656 16.5876C29.8862 16.6529 29.9804 16.7581 30.0322 16.8851C30.0618 16.9573 30.0769 17.0346 30.0764 17.1127C30.0759 17.1907 30.06 17.2676 30.0294 17.3394ZM2.9664 12.2681C3.24699 12.268 3.52051 12.1801 3.74856 12.0166C3.97661 11.8531 4.14773 11.6223 4.23792 11.3566C4.3281 11.0909 4.33282 10.8036 4.2514 10.5351C4.16998 10.2666 4.00651 10.0303 3.78395 9.85944C3.56139 9.68856 3.2909 9.59167 3.01047 9.58237C2.73003 9.57307 2.45372 9.65182 2.22032 9.80757C1.98693 9.96333 1.80817 10.1883 1.70913 10.4508C1.6101 10.7133 1.59577 11.0003 1.66815 11.2714C1.74465 11.5573 1.91335 11.8099 2.14809 11.9901C2.38282 12.1703 2.67046 12.2681 2.9664 12.2681ZM2.8129 10.3504C2.88818 10.3302 2.96671 10.325 3.04399 10.3352C3.12126 10.3454 3.19577 10.3708 3.26323 10.4098C3.3307 10.4488 3.38979 10.5008 3.43714 10.5627C3.48449 10.6246 3.51915 10.6953 3.53915 10.7706C3.56939 10.884 3.56534 11.0038 3.52751 11.1148C3.48968 11.2259 3.41976 11.3233 3.32661 11.3946C3.23345 11.4659 3.12123 11.508 3.00415 11.5156C2.88707 11.5231 2.77037 11.4958 2.66882 11.437C2.56727 11.3783 2.48542 11.2907 2.43363 11.1854C2.38183 11.0802 2.36242 10.9619 2.37784 10.8456C2.39327 10.7293 2.44283 10.6201 2.52027 10.532C2.59771 10.4439 2.69954 10.3807 2.8129 10.3504ZM5.86165 24.8864C6.03412 24.9865 6.22996 25.0394 6.4294 25.0396C6.60381 25.0395 6.77587 24.9993 6.93229 24.9222C7.08872 24.845 7.22534 24.733 7.33162 24.5947C7.43791 24.4564 7.51101 24.2956 7.5453 24.1246C7.57959 23.9536 7.57415 23.777 7.5294 23.6084C7.48111 23.4277 7.38902 23.2617 7.26127 23.1252C7.13353 22.9886 6.97407 22.8856 6.79704 22.8254C6.62 22.7652 6.43083 22.7495 6.2463 22.7798C6.06177 22.8102 5.88757 22.8855 5.73912 22.9993C5.59066 23.113 5.47255 23.2616 5.39523 23.4318C5.31791 23.6021 5.28377 23.7888 5.29584 23.9754C5.30791 24.162 5.36581 24.3428 5.46441 24.5017C5.56302 24.6606 5.69929 24.7927 5.86115 24.8864H5.86165ZM6.09565 23.7076C6.12111 23.6636 6.15502 23.625 6.19544 23.594C6.23585 23.5631 6.28197 23.5405 6.33115 23.5274C6.3638 23.5188 6.3974 23.5145 6.43115 23.5144C6.5163 23.5147 6.59898 23.543 6.66639 23.595C6.73379 23.6471 6.78215 23.7199 6.80398 23.8022C6.8258 23.8845 6.81988 23.9717 6.78711 24.0503C6.75434 24.1289 6.69657 24.1945 6.62275 24.2369C6.54892 24.2793 6.46316 24.2962 6.37876 24.285C6.29435 24.2737 6.21602 24.235 6.15589 24.1747C6.09576 24.1144 6.05719 24.0359 6.04617 23.9515C6.03514 23.8671 6.05227 23.7813 6.0949 23.7076H6.09565ZM28.6702 10.1321C28.9907 10.2669 29.3517 10.2689 29.6737 10.1376C29.9957 10.0063 30.2524 9.7526 30.3874 9.43213C30.488 9.1931 30.5154 8.9296 30.4663 8.67497C30.4171 8.42033 30.2935 8.18599 30.1112 8.00159C29.9288 7.81718 29.6959 7.69098 29.4418 7.63896C29.1878 7.58694 28.924 7.61142 28.6838 7.70931C28.4437 7.8072 28.238 7.97411 28.0927 8.18893C27.9474 8.40374 27.869 8.65682 27.8676 8.91615C27.8661 9.17548 27.9416 9.42943 28.0844 9.64587C28.2273 9.86231 28.4311 10.0315 28.6702 10.1321ZM28.6614 8.70563C28.6898 8.6376 28.7314 8.57586 28.7838 8.52399C28.8362 8.47211 28.8983 8.43112 28.9667 8.40338C29.0341 8.37593 29.1061 8.36175 29.1789 8.36163C29.2996 8.36153 29.4172 8.4003 29.5141 8.47221C29.6111 8.54412 29.6824 8.64534 29.7173 8.7609C29.7523 8.87645 29.7491 9.00019 29.7082 9.11379C29.6674 9.2274 29.5911 9.32483 29.4905 9.39166C29.39 9.45849 29.2706 9.49117 29.15 9.48486C29.0295 9.47855 28.9141 9.43359 28.8211 9.35663C28.7281 9.27966 28.6624 9.1748 28.6336 9.05755C28.6048 8.9403 28.6146 8.8169 28.6614 8.70563ZM16.0016 17.6339C16.3497 17.6223 16.6815 17.4842 16.9349 17.2454C16.9733 17.2136 17.0051 17.1745 17.0282 17.1303C17.0513 17.0861 17.0654 17.0377 17.0696 16.988C17.0739 16.9383 17.0681 16.8883 17.0527 16.8408C17.0374 16.7934 17.0127 16.7495 16.9802 16.7117C16.9476 16.6739 16.9079 16.6429 16.8632 16.6207C16.8186 16.5985 16.7699 16.5853 16.7202 16.5821C16.6704 16.5789 16.6205 16.5857 16.5733 16.602C16.5262 16.6183 16.4828 16.6438 16.4456 16.6771C16.3911 16.7418 16.3231 16.7937 16.2464 16.8293C16.1697 16.8649 16.0862 16.8834 16.0016 16.8834C15.9171 16.8834 15.8336 16.8649 15.7569 16.8293C15.6802 16.7937 15.6122 16.7418 15.5576 16.6771C15.5205 16.6438 15.4771 16.6183 15.43 16.602C15.3828 16.5857 15.3329 16.5789 15.2831 16.5821C15.2334 16.5853 15.1847 16.5985 15.1401 16.6207C15.0954 16.6429 15.0557 16.6739 15.0231 16.7117C14.9906 16.7495 14.9659 16.7934 14.9506 16.8408C14.9352 16.8883 14.9295 16.9383 14.9337 16.988C14.9379 17.0377 14.952 17.0861 14.9751 17.1303C14.9982 17.1745 15.03 17.2136 15.0684 17.2454C15.3218 17.4842 15.6536 17.6223 16.0016 17.6339ZM17.8036 18.9104H17.7992C17.5212 18.9663 17.2356 18.9738 16.9552 18.9324C16.8852 18.9221 16.8169 18.9086 16.7351 18.8929C16.6184 18.8658 16.4977 18.8599 16.3789 18.8756C16.2546 18.8975 16.1364 18.9458 16.0324 19.0174C16.0231 19.0229 16.0125 19.0258 16.0016 19.0258C15.9908 19.0258 15.9802 19.0229 15.9709 19.0174C15.8669 18.9458 15.7487 18.8975 15.6244 18.8756C15.5056 18.8599 15.3849 18.8658 15.2681 18.8929C15.1866 18.9086 15.1181 18.9221 15.0481 18.9324C14.7677 18.9738 14.4823 18.9663 14.2044 18.9104H14.1996C14.1344 18.8976 14.0668 18.9093 14.0097 18.9434C13.9527 18.9775 13.9103 19.0315 13.8907 19.095C13.8711 19.1585 13.8757 19.227 13.9036 19.2873C13.9315 19.3476 13.9808 19.3955 14.0419 19.4216C14.3766 19.5671 14.7391 19.6373 15.1039 19.6271C15.1944 19.6246 15.2859 19.6171 15.3636 19.6111C15.4366 19.6046 15.4679 19.6166 15.5764 19.6804C15.6962 19.7533 15.8334 19.793 15.9736 19.7954H16.0296C16.1699 19.793 16.307 19.7533 16.4269 19.6804C16.5354 19.6166 16.5666 19.6054 16.6396 19.6111C16.7174 19.6171 16.8089 19.6246 16.8994 19.6271C17.2642 19.6373 17.6267 19.5671 17.9614 19.4216C18.0225 19.3955 18.0718 19.3476 18.0997 19.2873C18.1276 19.227 18.1322 19.1585 18.1126 19.095C18.093 19.0315 18.0506 18.9775 17.9936 18.9434C17.9365 18.9093 17.8689 18.8976 17.8036 18.9104ZM16.2296 20.2196C16.1594 20.2569 16.0812 20.2764 16.0016 20.2764C15.9221 20.2764 15.8439 20.2569 15.7736 20.2196C15.6849 20.182 15.5851 20.1799 15.4949 20.2139C15.4047 20.2479 15.331 20.3153 15.2892 20.4021C15.2474 20.489 15.2406 20.5886 15.2703 20.6803C15.3 20.772 15.3639 20.8488 15.4486 20.8946C15.6204 20.9806 15.8098 21.0254 16.0019 21.0254C16.194 21.0254 16.3834 20.9806 16.5551 20.8946C16.6018 20.8748 16.644 20.8457 16.6792 20.8091C16.7143 20.7725 16.7416 20.7291 16.7595 20.6817C16.7774 20.6342 16.7855 20.5836 16.7832 20.5329C16.781 20.4822 16.7685 20.4325 16.7465 20.3868C16.7244 20.3411 16.6934 20.3003 16.6552 20.2669C16.6169 20.2336 16.5723 20.2083 16.5241 20.1927C16.4758 20.1771 16.4249 20.1714 16.3744 20.176C16.3238 20.1807 16.2748 20.1955 16.2301 20.2196H16.2296ZM20.4039 14.7771L20.4991 14.7191C20.5292 14.7001 20.5431 14.6879 20.5662 14.6714C20.6397 14.6223 20.7178 14.5805 20.7994 14.5464C20.8724 14.5104 20.9542 14.4958 21.0352 14.5044L21.0851 14.5099C21.1168 14.5132 21.1488 14.508 21.1777 14.4946C21.2066 14.4812 21.2314 14.4603 21.2493 14.4339C21.2673 14.4076 21.2778 14.377 21.2797 14.3452C21.2816 14.3134 21.2748 14.2816 21.2601 14.2534C21.2087 14.1687 21.1373 14.0979 21.0521 14.0473C20.9669 13.9966 20.8706 13.9677 20.7717 13.9629C20.5948 13.9546 20.4183 13.9873 20.2561 14.0584L20.1504 14.1036L20.0726 14.1394C20.0191 14.1611 19.9669 14.1846 19.9111 14.2034C19.8036 14.2474 19.6917 14.2836 19.5807 14.3186C19.3643 14.3873 19.1413 14.433 18.9154 14.4549C18.7135 14.4785 18.5089 14.4607 18.3141 14.4026L18.2776 14.3906C18.2185 14.3714 18.1546 14.3734 18.0967 14.3961C18.0388 14.4189 17.9907 14.461 17.9604 14.5153C17.9302 14.5697 17.9198 14.6328 17.9309 14.694C17.9421 14.7551 17.9742 14.8105 18.0217 14.8506C18.2785 15.0549 18.5967 15.1668 18.9249 15.1681C19.223 15.1754 19.5202 15.1327 19.8041 15.0419C19.9428 14.998 20.0783 14.9447 20.2097 14.8821C20.2766 14.8504 20.3396 14.8129 20.4039 14.7771ZM14.0629 14.5621C14.0409 14.4945 13.9929 14.4384 13.9295 14.4062C13.8661 14.3739 13.7925 14.3681 13.7249 14.3901L13.6886 14.4019C13.4943 14.4598 13.2901 14.4776 13.0886 14.4541C12.8627 14.4322 12.6397 14.3866 12.4234 14.3179C12.3124 14.2829 12.2004 14.2466 12.0929 14.2026C12.0371 14.1839 11.9849 14.1604 11.9314 14.1386L11.8516 14.1029L11.7459 14.0576C11.5837 13.9865 11.4073 13.9538 11.2304 13.9621C11.1314 13.9669 11.0351 13.9959 10.95 14.0465C10.8648 14.0972 10.7934 14.1679 10.7419 14.2526C10.7257 14.2833 10.7192 14.3182 10.7231 14.3526C10.7284 14.3991 10.7518 14.4416 10.7883 14.4708C10.8248 14.5 10.8714 14.5135 10.9179 14.5084L10.9679 14.5029C11.0489 14.4943 11.1306 14.5089 11.2036 14.5449C11.2852 14.5789 11.3632 14.6208 11.4366 14.6699C11.4599 14.6864 11.4739 14.6986 11.5039 14.7176L11.5991 14.7756C11.6634 14.8114 11.7271 14.8486 11.7929 14.8799C11.9242 14.9424 12.0597 14.9958 12.1984 15.0396C12.4824 15.1305 12.7796 15.1731 13.0776 15.1659C13.4058 15.1645 13.724 15.0527 13.9809 14.8484C14.0212 14.814 14.0505 14.7686 14.0651 14.7176C14.0797 14.6667 14.0789 14.6126 14.0629 14.5621Z" fill="black"/>
<path d="M26.0613 28.7414C25.2743 28.0127 23.8363 27.5414 22.4473 27.0837C21.7076 26.8629 20.9839 26.5915 20.2813 26.2714C18.8598 25.5502 18.7813 24.2284 18.7253 23.2634C18.7253 23.2399 18.7226 23.2202 18.7211 23.1974C19.4237 22.7747 20.0717 22.2672 20.6506 21.6864C21.4625 20.8566 22.0692 19.8486 22.4223 18.7427C23.6491 18.7034 24.8871 17.3942 25.0816 16.2157C25.1034 16.0872 25.1169 15.9574 25.1221 15.8272C25.3446 15.7435 25.5333 15.5886 25.6588 15.3867C26.1061 14.6617 25.8588 13.7899 25.5978 12.8669L25.5818 12.8112C26.1248 10.8452 25.9226 6.68368 23.7568 3.68618C22.2156 1.55443 18.5658 -0.655074 16.0006 0.435426C13.4351 -0.655324 9.78558 1.55418 8.24433 3.68543C6.07758 6.68393 5.87534 10.8454 6.41934 12.8104L6.40334 12.8662C6.14209 13.7892 5.89509 14.6609 6.34209 15.3859C6.46771 15.5878 6.65649 15.7424 6.87909 15.8259C6.88409 15.9556 6.89753 16.0848 6.91934 16.2127C7.11409 17.3932 8.35209 18.7027 9.57884 18.7419C9.93189 19.8481 10.5386 20.8564 11.3506 21.6864C11.9298 22.2672 12.5781 22.7747 13.2811 23.1974C13.2796 23.2202 13.2781 23.2399 13.2768 23.2634C13.2198 24.2284 13.1421 25.5502 11.7208 26.2714C11.0183 26.5915 10.2946 26.8629 9.55483 27.0837C8.16483 27.5402 6.72784 28.0127 5.94084 28.7414C5.15977 29.4786 4.55517 30.3826 4.17209 31.3859C4.13472 31.4779 4.13538 31.581 4.17392 31.6725C4.21246 31.7641 4.28573 31.8366 4.37766 31.8741C4.46958 31.9117 4.57266 31.9113 4.66427 31.873C4.75589 31.8346 4.82856 31.7615 4.86634 31.6697C5.20896 30.768 5.75047 29.9552 6.45059 29.2917C7.11734 28.6739 8.53684 28.2077 9.78884 27.7962C10.565 27.5645 11.324 27.2785 12.0601 26.9404C13.7173 26.0994 13.9373 24.5989 14.0083 23.5719C14.5072 23.7965 15.028 23.9687 15.5623 24.0859C15.8514 24.1498 16.1508 24.1498 16.4398 24.0859C16.9745 23.9685 17.4956 23.7962 17.9948 23.5717C18.0658 24.5987 18.2858 26.0992 19.9431 26.9402C20.6792 27.2783 21.4381 27.5642 22.2143 27.7959C23.4663 28.2074 24.8858 28.6737 25.5526 29.2914C26.2527 29.9549 26.7942 30.7678 27.1368 31.6694C27.1746 31.7613 27.2473 31.8344 27.3389 31.8727C27.4305 31.911 27.5336 31.9115 27.6255 31.8739C27.7174 31.8363 27.7907 31.7638 27.8293 31.6723C27.8678 31.5808 27.8685 31.4777 27.8311 31.3857C27.4477 30.3823 26.8427 29.4784 26.0613 28.7414ZM23.5433 15.2749C23.5256 15.2699 23.5074 15.2663 23.4891 15.2642C23.3595 15.2521 23.2287 15.2624 23.1026 15.2944C23.1116 15.1694 23.1188 15.0444 23.1253 14.9169C23.2708 15.0439 23.4102 15.1633 23.5433 15.2749ZM22.6683 17.9574C22.814 17.405 22.925 16.844 23.0006 16.2777C23.1548 15.9874 23.3506 16.0027 23.4163 16.0094C23.5153 16.019 23.614 15.9888 23.6907 15.9256C23.7675 15.8624 23.816 15.7714 23.8256 15.6724C23.8317 15.6052 23.8195 15.5375 23.7901 15.4767C23.8723 15.5424 23.9548 15.6089 24.0311 15.6672C24.1332 15.7452 24.248 15.8051 24.3703 15.8444C24.3655 15.9272 24.3562 16.0096 24.3426 16.0914C24.2178 16.8512 23.4336 17.7602 22.6676 17.9562L22.6683 17.9574ZM23.1491 4.12493C24.8586 6.49068 25.2901 9.82068 25.0086 11.8654C24.8578 11.657 24.689 11.4622 24.5043 11.2832C24.4307 11.2203 24.3355 11.1884 24.2389 11.1941C24.1422 11.1998 24.0515 11.2427 23.9857 11.3138C23.92 11.3848 23.8842 11.4786 23.886 11.5754C23.8878 11.6722 23.927 11.7646 23.9953 11.8332C24.3341 12.1638 24.6207 12.544 24.8453 12.9607C25.0496 13.4279 25.2953 14.5482 25.0203 14.9927C24.9897 15.0405 24.9478 15.08 24.8983 15.1077C24.8489 15.1355 24.7933 15.1507 24.7366 15.1519C24.6469 15.1517 24.5595 15.1236 24.4866 15.0714C24.2116 14.8607 23.7333 14.4727 23.0273 13.8214C22.3346 13.1849 21.5503 12.4122 20.6961 11.5247C19.4408 10.2247 18.0236 8.66618 16.4836 6.89568C17.1958 5.85143 16.6818 4.76243 16.2601 3.87368C16.0552 3.51219 15.9142 3.11808 15.8433 2.70868C15.8183 2.21068 16.1081 1.48543 16.2751 1.13368C18.4376 0.197926 21.8183 2.28468 23.1491 4.12493ZM7.15534 12.9609C7.37982 12.5442 7.66644 12.1641 8.00534 11.8337C8.07369 11.7651 8.11286 11.6727 8.11465 11.5759C8.11644 11.4791 8.08071 11.3853 8.01494 11.3143C7.94916 11.2432 7.85845 11.2003 7.76179 11.1946C7.66513 11.1889 7.57 11.2208 7.49634 11.2837C7.31162 11.4627 7.1429 11.6575 6.99209 11.8659C6.71059 9.82118 7.14209 6.49093 8.85158 4.12543C9.95634 2.59818 12.4728 0.899926 14.5318 0.899926C14.8585 0.896903 15.1835 0.945329 15.4951 1.04343C15.246 1.57734 15.1098 2.15694 15.0951 2.74593C15.1646 3.25534 15.3303 3.7469 15.5833 4.19443C16.0746 5.22918 16.3493 5.95968 15.7208 6.65868L15.7161 6.66368C14.0986 8.53193 12.6133 10.1672 11.3028 11.5249C10.4491 12.4119 9.66483 13.1847 8.97133 13.8219C8.26608 14.4732 7.78884 14.8612 7.51159 15.0719C7.44213 15.1245 7.35719 15.1526 7.27009 15.1517C7.21226 15.1512 7.15545 15.1363 7.10476 15.1085C7.05407 15.0807 7.01106 15.0407 6.97959 14.9922C6.70559 14.5499 6.95059 13.4279 7.15534 12.9609ZM8.87559 14.9157C8.88208 15.0424 8.88934 15.1684 8.89833 15.2932C8.77217 15.2611 8.64145 15.2509 8.51183 15.2629C8.4935 15.2651 8.47536 15.2687 8.45758 15.2737C8.59108 15.1627 8.73042 15.0433 8.87559 14.9157ZM7.65759 16.0892C7.64408 16.0081 7.6349 15.9264 7.63009 15.8444C7.7519 15.8058 7.86622 15.7466 7.96809 15.6694C8.04484 15.6107 8.12784 15.5444 8.21034 15.4779C8.18144 15.5378 8.16907 15.6042 8.1745 15.6704C8.17992 15.7367 8.20295 15.8002 8.24119 15.8546C8.27944 15.9089 8.33151 15.952 8.39201 15.9795C8.45252 16.0069 8.51926 16.0177 8.58534 16.0107C8.65059 16.0037 8.84658 15.9887 9.00083 16.2789C9.07705 16.8446 9.18826 17.405 9.33384 17.9569C8.56809 17.7587 7.78309 16.8499 7.65759 16.0892ZM16.2756 23.3539C16.0937 23.3942 15.9052 23.3942 15.7233 23.3539C13.9256 22.9569 12.8093 22.0594 11.8711 21.1487C11.0942 20.339 10.5242 19.3537 10.2093 18.2767C10.2055 18.2619 10.2007 18.2473 10.1948 18.2332C9.97818 17.5384 9.82325 16.8259 9.73183 16.1039C9.65381 15.4912 9.6109 14.8745 9.60333 14.2569C10.2628 13.6457 10.9968 12.9217 11.7918 12.0972C12.4853 12.0964 13.1782 12.1371 13.8668 12.2189L13.8796 12.2214C13.9507 12.2348 14.0243 12.2218 14.0865 12.1849C14.1487 12.1479 14.1953 12.0895 14.2175 12.0207C14.2398 11.9518 14.2361 11.8772 14.2073 11.8108C14.1784 11.7445 14.1264 11.6909 14.0608 11.6602C13.7305 11.5127 13.3781 11.4208 13.0178 11.3882C12.8434 11.3704 12.6681 11.3625 12.4928 11.3644C13.5663 10.2282 14.7428 8.92618 16.0011 7.48093C17.2601 8.92618 18.4363 10.2282 19.5093 11.3644C19.334 11.3626 19.1588 11.3706 18.9843 11.3882C18.6241 11.4208 18.2717 11.5127 17.9413 11.6602C17.8757 11.6909 17.8236 11.7445 17.7947 11.8109C17.7659 11.8773 17.7622 11.952 17.7845 12.0209C17.8068 12.0898 17.8535 12.1482 17.9158 12.1851C17.9781 12.222 18.0517 12.235 18.1228 12.2214L18.1353 12.2189C18.824 12.1371 19.5169 12.0966 20.2103 12.0974C21.0056 12.9224 21.7398 13.6474 22.3986 14.2569C22.391 14.8744 22.3481 15.4909 22.2701 16.1034C22.1797 16.8147 22.0278 17.5169 21.8161 18.2019C21.8048 18.2276 21.7964 18.2544 21.7911 18.2819C21.4762 19.357 20.9069 20.3403 20.1313 21.1487C19.1911 22.0592 18.0756 22.9567 16.2756 23.3539Z" fill="black"/>
<path d="M8.54953 8.94514C8.60483 8.94522 8.65946 8.93307 8.70951 8.90955C8.75956 8.88604 8.80379 8.85175 8.83903 8.80914C8.87003 8.77164 11.9673 5.05914 14.401 5.05914C14.5005 5.05914 14.5959 5.01963 14.6662 4.94931C14.7365 4.87898 14.776 4.7836 14.776 4.68414C14.776 4.58468 14.7365 4.4893 14.6662 4.41898C14.5959 4.34865 14.5005 4.30914 14.401 4.30914C11.618 4.30914 8.39653 8.16839 8.26078 8.33239C8.21582 8.38723 8.18734 8.45369 8.17862 8.52407C8.16991 8.59445 8.18133 8.66585 8.21156 8.73C8.24179 8.79414 8.28959 8.84841 8.34941 8.88649C8.40923 8.92457 8.47862 8.9449 8.54953 8.94514ZM17.602 5.05789C20.0325 5.05789 23.133 8.77164 23.164 8.80789C23.1954 8.84586 23.234 8.87727 23.2775 8.90034C23.321 8.92341 23.3687 8.93768 23.4177 8.94233C23.4668 8.94699 23.5162 8.94194 23.5633 8.92747C23.6104 8.913 23.6542 8.8894 23.6922 8.85802C23.7301 8.82663 23.7615 8.78807 23.7846 8.74455C23.8077 8.70102 23.8219 8.65338 23.8266 8.60433C23.8313 8.55529 23.8262 8.50582 23.8117 8.45873C23.7973 8.41164 23.7737 8.36786 23.7423 8.32989C23.6065 8.16589 20.385 4.30664 17.602 4.30664C17.5026 4.30664 17.4072 4.34615 17.3369 4.41648C17.2665 4.4868 17.227 4.58218 17.227 4.68164C17.227 4.7811 17.2665 4.87648 17.3369 4.94681C17.4072 5.01713 17.5026 5.05664 17.602 5.05664V5.05789Z" fill="black"/>
</svg>
