<svg width="32" height="32" viewBox="0 0 32 32" fill="none" xmlns="http://www.w3.org/2000/svg">
<mask id="mask0_209_12251" style="mask-type:luminance" maskUnits="userSpaceOnUse" x="0" y="0" width="32" height="32">
<path d="M31.5 31.5V0.5H0.5V31.5H31.5Z" fill="white" stroke="white"/>
</mask>
<g mask="url(#mask0_209_12251)">
<path d="M19.3098 9.57849L20.4528 8.43543C21.5278 7.3605 21.5278 5.61763 20.4528 4.5427C19.3778 3.46776 17.635 3.46776 16.5601 4.5427L15.9987 5.10413L15.4372 4.5427C14.3623 3.46776 12.6194 3.46776 11.5445 4.5427C10.4695 5.61763 10.4695 7.3605 11.5445 8.43543L15.4668 12.3579C15.7605 12.6515 16.2368 12.6515 16.5304 12.3579L17.8371 11.0512" stroke="black" stroke-miterlimit="10" stroke-linecap="round" stroke-linejoin="round"/>
<path d="M2.10931 15.9827H1.08762C0.745874 15.9827 0.46875 16.2598 0.46875 16.6016V19.7239C0.46875 20.0657 0.745874 20.3428 1.08762 20.3428H2.10931" stroke="black" stroke-miterlimit="10" stroke-linecap="round" stroke-linejoin="round"/>
<path d="M29.8906 15.9827H30.9123C31.2541 15.9827 31.5312 16.2598 31.5312 16.6016V19.7239C31.5312 20.0657 31.2541 20.3428 30.9123 20.3428H29.8906" stroke="black" stroke-miterlimit="10" stroke-linecap="round" stroke-linejoin="round"/>
<path d="M20.2672 28.2627V27.1339C20.2672 25.914 20.7211 24.7378 21.5406 23.8342C21.8652 23.4762 22.1007 23.0466 22.2277 22.5803L22.5184 21.5134C22.59 21.2507 22.6262 20.9796 22.6262 20.7073V16.7831C22.6262 16.2343 22.1813 15.7895 21.6327 15.7895H21.2191C20.6704 15.7895 20.2255 16.2343 20.2255 16.7831V15.9742C20.2255 15.4254 19.7807 14.9805 19.2319 14.9805H18.8184C18.2697 14.9805 17.8248 15.4254 17.8248 15.9742V15.5065C17.8248 14.9579 17.38 14.513 16.8312 14.513H16.4177C15.8689 14.513 15.4241 14.9579 15.4241 15.5065V15.1559C15.4241 14.6072 14.9793 14.1623 14.4306 14.1623H14.0171C13.4682 14.1623 13.0234 14.6072 13.0234 15.1559V20.0999" stroke="black" stroke-miterlimit="10" stroke-linecap="round" stroke-linejoin="round"/>
<path d="M12.8986 19.4814H9.41797" stroke="black" stroke-miterlimit="10" stroke-linecap="round" stroke-linejoin="round"/>
<path d="M9.41797 16.8438H12.8986" stroke="black" stroke-miterlimit="10" stroke-linecap="round" stroke-linejoin="round"/>
<path d="M10.2891 19.4816C10.3435 19.7465 10.4486 19.9984 10.5984 20.2235L12.2161 22.645C12.7433 23.4342 13.0247 24.3619 13.0247 25.311V28.2627" stroke="black" stroke-miterlimit="10" stroke-linecap="round" stroke-linejoin="round"/>
<path d="M5.29688 18.0845V23.5571C5.29688 24.2143 5.82962 24.7471 6.48681 24.7471H8.18143C8.83861 24.7471 9.37136 24.2143 9.37136 23.5571V13.1497C9.37136 12.4925 8.83861 11.9597 8.18143 11.9597H6.48681C5.82962 11.9597 5.29688 12.4925 5.29688 13.1497V16.0017" stroke="black" stroke-miterlimit="10" stroke-linecap="round" stroke-linejoin="round"/>
<path d="M25.7084 24.73C26.2707 24.6351 26.6994 24.1473 26.6994 23.558V13.1505C26.6994 12.4934 26.1667 11.9606 25.5096 11.9606H23.8149C23.1577 11.9606 22.625 12.4934 22.625 13.1505V23.558C22.625 24.1506 23.0587 24.6406 23.6257 24.7314" stroke="black" stroke-miterlimit="10" stroke-linecap="round" stroke-linejoin="round"/>
<path d="M28.6294 22.7715H27.8931C27.2359 22.7715 26.7031 22.2387 26.7031 21.5816V14.7439C26.7031 14.0867 27.2359 13.5539 27.8931 13.5539H28.6294C29.2866 13.5539 29.8193 14.0867 29.8193 14.7439V21.5816C29.8193 22.2387 29.2866 22.7715 28.6294 22.7715Z" stroke="black" stroke-miterlimit="10" stroke-linecap="round" stroke-linejoin="round"/>
<path d="M5.29977 16.0024V14.7439C5.29977 14.0867 4.76702 13.5539 4.10984 13.5539H3.37353C2.71634 13.5539 2.18359 14.0867 2.18359 14.7439V21.5816C2.18359 22.2387 2.71634 22.7715 3.37353 22.7715H4.10984C4.76702 22.7715 5.29977 22.2387 5.29977 21.5816V18.0852" stroke="black" stroke-miterlimit="10" stroke-linecap="round" stroke-linejoin="round"/>
</g>
</svg>
