<svg width="32" height="32" viewBox="0 0 32 32" fill="none" xmlns="http://www.w3.org/2000/svg">
<path d="M2.32501 16.232L1.20851 18.4645C1.0762 18.7291 1.00501 19.02 1.00017 19.3158C0.995334 19.6115 1.05698 19.9046 1.18056 20.1734C1.30414 20.4421 1.4865 20.6797 1.71418 20.8685C1.94186 21.0574 2.20904 21.1927 2.49601 21.2645L3.06601 21.4065L3.67851 24.776C3.7917 25.4002 4.12055 25.9649 4.60763 26.3714C5.09472 26.7778 5.70909 27.0003 6.34351 27C6.4715 27.0001 6.59934 26.9909 6.72601 26.9725L9.74901 26.541C10.2415 27.3779 10.5008 28.3314 10.5 29.3025V31.5H11.5V29.3C11.4998 28.2734 11.2536 27.2619 10.782 26.35L12.6 25.99L12.4 25.01L9.91251 25.507L6.58201 25.983C6.14592 26.0411 5.70414 25.9302 5.34717 25.6731C4.9902 25.4159 4.74507 25.032 4.66201 24.6L3.99151 20.9105C3.9743 20.8159 3.9302 20.7283 3.86449 20.6582C3.79878 20.5881 3.71424 20.5383 3.62101 20.515L2.73851 20.294C2.59686 20.2586 2.46498 20.1918 2.35259 20.0986C2.24021 20.0054 2.1502 19.8881 2.0892 19.7555C2.0282 19.6228 1.99777 19.4781 2.00016 19.3322C2.00255 19.1862 2.0377 19.0426 2.10301 18.912L3.95001 15.2235C4.00904 15.1049 4.01857 14.9677 3.97651 14.842C3.66148 13.8996 3.50058 12.9126 3.50001 11.919C3.49946 10.8692 3.8544 9.85025 4.50701 9.028L6.91351 15.878C7.94659 18.8345 9.56631 21.5517 11.6755 23.8668C13.7846 26.1818 16.3398 28.0468 19.1875 29.35L19.505 31.5715L20.495 31.4295L20.264 29.8135C20.542 29.925 20.8185 30.038 21.1015 30.139C23.6236 31.0411 26.2824 31.5015 28.961 31.5H31C31.1155 31.5001 31.2275 31.4602 31.3169 31.3871C31.4063 31.314 31.4677 31.2122 31.4905 31.0989C31.5134 30.9857 31.4963 30.8681 31.4423 30.766C31.3882 30.6639 31.3005 30.5837 31.194 30.539L26.505 28.5645C25.7443 28.2424 25.024 27.8321 24.359 27.342C26.4697 28.188 28.6851 28.7447 30.945 28.997C30.9633 28.999 30.9816 29 31 29C31.1136 29.0012 31.2242 28.9636 31.3136 28.8935C31.4031 28.8234 31.4659 28.7249 31.4919 28.6143C31.5178 28.5037 31.5054 28.3875 31.4565 28.2849C31.4076 28.1824 31.3253 28.0995 31.223 28.05C29.6843 27.2801 28.2877 26.2542 27.093 25.016C28.2365 25.8115 29.5556 26.3185 30.9375 26.4935C31.0456 26.507 31.1551 26.4849 31.2495 26.4305C31.3438 26.376 31.4178 26.2923 31.4602 26.1919C31.5025 26.0916 31.511 25.9802 31.4843 25.8746C31.4575 25.769 31.397 25.6751 31.312 25.607C29.7585 24.3673 28.6125 22.6902 28.022 20.7925L27.7835 20.0305C26.9187 17.261 26.2 14.4479 25.6305 11.603C24.9975 8.47496 23.3037 5.6615 20.8354 3.63838C18.3672 1.61527 15.2759 0.506649 12.0845 0.5C9.01336 0.504101 6.06918 1.72592 3.89756 3.89755C1.72593 6.06918 0.504107 9.01336 0.500006 12.0845C0.498854 12.8648 0.660578 13.6367 0.974832 14.3508C1.28909 15.065 1.74895 15.7057 2.32501 16.232ZM12.0845 1.5C15.0449 1.50667 17.9122 2.53531 20.2017 4.41204C22.4912 6.28877 24.0625 8.89847 24.65 11.8C25.2264 14.6792 25.9538 17.5261 26.829 20.329L27.0675 21.0915C27.5229 22.5554 28.2814 23.907 29.2935 25.0585C27.6614 24.4332 26.292 23.2689 25.4125 21.7585L21.9325 15.75C21.868 15.6397 21.7637 15.5583 21.641 15.5225C21.5183 15.4867 21.3866 15.4992 21.2728 15.5575C21.1591 15.6158 21.072 15.7155 21.0295 15.836C20.9869 15.9565 20.9921 16.0887 21.044 16.2055L23.25 21.1055C24.4163 23.6919 26.2396 25.9277 28.5385 27.5905C25.6015 26.9494 22.8115 25.7609 20.3145 24.087C18.6638 21.6822 17.4849 18.9858 16.8405 16.141L15.9905 12.391L15.0145 12.613L15.8645 16.363C16.3482 18.4882 17.1186 20.5378 18.1545 22.4555C15.5878 20.2764 13.5065 17.5833 12.045 14.55L10.95 12.2825L10.05 12.7175L11.1445 14.985C13.3836 19.6467 17.0159 23.4974 21.539 26.0045C22.7483 27.5313 24.3228 28.7288 26.117 29.4865L28.5135 30.4955C23.9574 30.4045 19.5379 28.924 15.8463 26.2522C12.1547 23.5805 9.36728 19.8449 7.85701 15.5455L5.29051 8.242L6.32051 7.384L5.67951 6.616L4.53851 7.566C3.89957 8.09706 3.38562 8.76251 3.03327 9.51491C2.68092 10.2673 2.49884 11.0882 2.50001 11.919C2.49989 12.9498 2.65548 13.9747 2.96151 14.959L2.79301 15.296C1.9616 14.4338 1.49794 13.2822 1.50001 12.0845C1.50318 9.27829 2.61935 6.58793 4.60364 4.60364C6.58793 2.61935 9.2783 1.50318 12.0845 1.5Z" fill="#2F2F2F"/>
</svg>
