<svg width="32" height="32" viewBox="0 0 32 32" fill="none" xmlns="http://www.w3.org/2000/svg">
<path d="M24.0384 22.0864C23.96 22.0728 23.8728 22.0577 23.7756 22.0393C23.6623 21.9865 23.3298 21.7398 23.1484 21.6053C22.9066 21.426 22.7468 21.3086 22.6314 21.2449C22.4842 21.1103 22.0243 20.418 21.5381 19.686C21.2471 19.2479 20.9172 18.7514 20.5372 18.1928C19.1031 16.0847 10.9173 1.93183 10.8334 1.7868C10.1262 0.581299 8.77461 -0.114125 7.39125 0.0154108C7.38479 0.0159994 7.37834 0.0167463 7.37192 0.0176508L0.483469 0.988019C0.429367 0.995637 0.377295 1.01384 0.330227 1.04158C0.28316 1.06933 0.242018 1.10607 0.209153 1.14972C0.176288 1.19336 0.152342 1.24306 0.138683 1.29596C0.125025 1.34886 0.121921 1.40393 0.129549 1.45803C0.137128 1.51215 0.155301 1.56424 0.183029 1.61132C0.210758 1.65841 0.247497 1.69956 0.291146 1.73243C0.334794 1.7653 0.384495 1.78925 0.437406 1.80289C0.490317 1.81654 0.545399 1.81962 0.599501 1.81195L7.47803 0.842995C8.5387 0.747571 9.57288 1.28255 10.1144 2.20555C10.452 2.78936 18.3982 16.5276 19.8493 18.6608C20.2267 19.2157 20.5552 19.7101 20.845 20.1464C21.7189 21.4616 21.9816 21.8465 22.2274 21.9721C22.2892 22.0038 22.4994 22.1597 22.6528 22.2736C23.1554 22.6465 23.3966 22.8137 23.5962 22.8521C23.7081 22.8735 23.8077 22.8908 23.8965 22.9062C24.0488 22.9325 24.2206 22.9623 24.2714 22.9885C24.2744 22.994 24.2797 23.0045 24.286 23.0217C24.2947 23.0516 24.2928 23.1129 24.2855 23.1285C24.1901 23.2499 24.092 23.2649 23.6295 23.2289C23.2457 23.1988 22.7203 23.1579 22.0905 23.3506C20.6792 23.783 20.1003 22.5268 20.0397 22.3841C20.0348 22.3722 20.0294 22.3607 20.0235 22.3494C19.0208 20.4393 17.9726 20.2071 15.8197 20.1327C15.6309 20.1261 15.45 20.0806 15.2965 20.0011C14.3313 19.5012 14.5265 18.6524 14.9343 17.4147C15.046 17.0761 15.1513 16.7562 15.1912 16.4739C15.2561 16.013 15.1733 15.5523 14.9448 15.1043C14.7058 14.6356 14.3278 14.2446 13.8517 13.9738C13.6491 13.8586 13.447 13.7446 13.2456 13.631C11.5201 12.6577 9.89038 11.7385 8.48309 10.346C7.07701 8.95461 6.22792 6.49586 6.21953 6.47141C6.19966 6.41295 6.16702 6.35965 6.12399 6.31537C6.08096 6.27109 6.02861 6.23694 5.97074 6.21541C5.91287 6.19388 5.85093 6.1855 5.78942 6.19088C5.72791 6.19626 5.66837 6.21526 5.61512 6.24652C4.14145 7.11148 2.43765 7.80587 0.406349 8.36952C0.300047 8.39902 0.209813 8.46952 0.155492 8.56554C0.101171 8.66156 0.0872119 8.77522 0.116685 8.88152C0.13125 8.93419 0.156056 8.98346 0.189684 9.02653C0.223311 9.0696 0.2651 9.10562 0.31266 9.13252C0.36022 9.15943 0.412617 9.17669 0.466855 9.18332C0.521093 9.18996 0.576107 9.18583 0.628749 9.17119C1.16067 9.024 1.68825 8.86154 2.21083 8.68402C2.15964 8.89119 2.12443 9.10199 2.10548 9.31455C1.99285 10.5597 2.39707 11.829 2.82069 13.0223C3.51509 14.9779 4.61345 16.5416 5.7764 18.1972C5.92168 18.404 6.06747 18.6116 6.21288 18.8206C6.43329 19.1377 6.55553 19.4981 6.56622 19.8622C6.57537 20.1915 6.49902 20.4811 6.33902 20.723C6.22318 20.8984 6.01614 21.1152 5.79694 21.3447C5.39118 21.7694 4.93141 22.2508 4.67989 22.823C4.36187 23.5465 4.45454 24.2497 4.95534 24.9129C5.13397 25.1494 5.37416 25.3506 5.64968 25.4948C7.39752 26.4111 7.97256 26.8561 8.04686 28.5958C8.0139 29.3924 8.41787 30.9348 10.1915 31.2054C10.6865 31.2809 11.0337 31.4825 11.3402 31.6603C11.6199 31.8226 11.9254 32.0001 12.2741 32.0001C12.4271 32 12.5886 31.9659 12.7597 31.8812C13.0716 31.7273 13.2398 31.3794 13.2641 31.1214C13.3145 30.5851 13.0063 30.3655 12.6161 30.0875C12.5509 30.0411 12.4783 29.9895 12.3985 29.9306C12.3189 29.834 12.1239 29.466 12.0175 29.2654C11.8762 28.9986 11.7823 28.8235 11.7054 28.7158C11.6303 28.5315 11.5116 27.7071 11.3861 26.8352C11.3109 26.3132 11.2257 25.7216 11.1218 25.052C10.9426 23.8966 10.5234 19.4909 9.93697 12.6056C10.8611 13.2411 11.8332 13.7896 12.8368 14.3556C13.0374 14.4688 13.2386 14.5823 13.4403 14.697C13.7747 14.8872 14.0387 15.1588 14.2037 15.4823C14.3529 15.7749 14.408 16.0695 14.3673 16.3578C14.3379 16.5665 14.2438 16.852 14.1441 17.1544C13.9599 17.7133 13.7512 18.3471 13.7691 18.9721C13.7919 19.7634 14.177 20.3582 14.9138 20.7398C15.1762 20.8758 15.4796 20.9533 15.7909 20.9641C17.7589 21.0322 18.4678 21.1841 19.2785 22.7203C19.5376 23.3302 20.2897 24.2743 21.5224 24.2742C21.7731 24.2742 22.0438 24.2351 22.334 24.1463C22.813 23.9997 23.2125 24.0307 23.5648 24.0584C24.0277 24.0945 24.5526 24.1354 24.9398 23.6424C25.1546 23.3689 25.1573 22.9829 25.0688 22.7401C24.884 22.2328 24.5109 22.1682 24.0384 22.0864ZM10.2997 25.1796C10.4028 25.8447 10.4877 26.4339 10.5625 26.9537C10.7877 28.5181 10.8601 28.9788 11.0272 29.1977C11.0696 29.2536 11.1927 29.4856 11.2824 29.655C11.5761 30.2092 11.7218 30.4647 11.8851 30.5857C11.9673 30.6463 12.0501 30.7061 12.1334 30.7652C12.2602 30.8555 12.4034 30.9576 12.4371 31.0031C12.4377 31.0154 12.4374 31.0279 12.4361 31.0402C12.4313 31.0705 12.4037 31.1247 12.3911 31.1353C12.2542 31.2031 12.1595 31.1739 11.7578 30.9408C11.4245 30.7473 10.9679 30.4824 10.317 30.3829C8.8564 30.1601 8.87221 28.7736 8.87873 28.6182C8.87937 28.6054 8.8795 28.5927 8.87893 28.5798C8.7915 26.4229 7.94549 25.7589 6.03573 24.7579C5.86824 24.6702 5.72417 24.5504 5.61928 24.4115C4.96155 23.5405 5.50088 22.8593 6.39854 21.9193C6.6443 21.6621 6.87637 21.4191 7.0331 21.1817C7.28917 20.7945 7.41192 20.3427 7.3979 19.8383C7.38235 19.3118 7.20885 18.7957 6.89589 18.3455C6.74971 18.1354 6.60321 17.9268 6.45723 17.719C5.32782 16.1113 4.26113 14.5926 3.60475 12.7439C3.21198 11.6375 2.83669 10.4671 2.93416 9.38904C2.96872 9.00133 3.06158 8.6492 3.21704 8.3173C4.07368 7.98322 4.86753 7.61484 5.60789 7.20754C5.93985 8.03762 6.7291 9.78085 7.89787 10.9373C8.26926 11.3048 8.65256 11.6396 9.04629 11.9506C9.48865 17.1704 10.0591 23.6288 10.2997 25.1796ZM31.6457 12.5566L29.9383 7.3228C30.5237 6.99999 30.9935 6.4917 31.271 5.87743C31.2821 5.85759 31.2913 5.8366 31.2992 5.8149C31.4627 5.42998 31.5468 5.01598 31.5464 4.59775V4.54335C31.5464 4.09567 31.451 3.67026 31.2808 3.28536C31.273 3.26334 31.2634 3.24202 31.252 3.22162C30.7575 2.16837 29.6915 1.43762 28.4586 1.43762H24.2611C22.8799 1.43706 21.5089 1.67506 20.2087 2.14111L20.1895 2.14795C20.183 2.15032 20.1771 2.15371 20.1708 2.1564H19.6583C19.1072 2.1564 18.6589 2.60645 18.6589 3.15967V5.94002C18.6589 6.49317 19.1072 6.94328 19.6583 6.94328H20.0945C20.1237 6.96338 20.1551 6.98079 20.1895 6.99314L20.2089 7.00005C21.4699 7.45178 22.7976 7.68909 24.137 7.70213L26.2712 11.0923L27.4222 12.9339C27.8325 13.6207 27.8151 14.4965 27.3775 15.1663C27.3749 15.1701 27.3725 15.1739 27.3701 15.1779L27.3604 15.1938C26.9447 15.8354 27.1185 16.7057 27.7503 17.1376L28.5697 17.6971C28.7794 17.8402 29.0236 17.9246 29.2769 17.9415C29.5302 17.9584 29.7835 17.9072 30.0103 17.7931L30.0256 17.7855C30.6243 17.4776 31.1093 16.9851 31.3912 16.3984C31.9701 15.1931 32.0604 13.8288 31.6457 12.5567V12.5566ZM19.9139 6.11135H19.6583C19.566 6.11135 19.4909 6.03455 19.4909 5.94008V3.15967C19.4909 3.0652 19.566 2.9884 19.6583 2.9884H19.9139V6.11135ZM30.7144 4.54348V4.59781C30.7144 4.82764 30.6801 5.04952 30.6169 5.2588H29.7945C29.4138 5.2588 29.1042 4.94584 29.1042 4.56114V4.53848C29.1042 4.15372 29.4138 3.84075 29.7944 3.84075H30.6037C30.6771 4.06776 30.7145 4.30489 30.7144 4.54348ZM20.7459 2.83602C21.8798 2.46033 23.0666 2.2691 24.2611 2.26962H28.4586C29.1162 2.26962 29.7087 2.5548 30.1214 3.00869H29.7944C28.9551 3.00869 28.2722 3.6949 28.2722 4.53842V4.56107C28.2722 5.40459 28.9551 6.09074 29.7944 6.09074H30.1578C29.7439 6.56863 29.1359 6.87154 28.4586 6.87154H27.4762L26.7688 5.24619C26.48 4.58303 25.8282 4.15455 25.1082 4.15455H20.7459V2.83602ZM20.7459 6.30508V4.98655H25.1081C25.497 4.98655 25.8494 5.21887 26.0059 5.57829L26.5688 6.87148H24.2611C23.0666 6.87201 21.8798 6.68077 20.7459 6.30508ZM27.105 10.8568L26.976 10.6503L26.2998 9.57605L26.4519 9.4764L27.2519 10.749L27.105 10.8568ZM28.5134 16.6512L28.2196 16.4506C27.9575 16.2714 27.886 15.9094 28.0604 15.6436C28.0631 15.6395 28.0657 15.6354 28.0682 15.6312L28.0779 15.6152C28.6854 14.6804 28.7076 13.4596 28.1338 12.5029C28.1325 12.5007 28.1312 12.4986 28.1299 12.4965L27.5473 11.5643L27.7596 11.4084C28.1008 11.1577 28.1914 10.6803 27.9658 10.3213L27.1431 9.01272C27.0862 8.92148 27.0116 8.84261 26.9236 8.78078C26.8356 8.71896 26.7361 8.67546 26.631 8.65285C26.5263 8.62969 26.418 8.62781 26.3126 8.64732C26.2071 8.66684 26.1067 8.70735 26.0172 8.76645L25.8565 8.8718L25.121 7.70348H26.9311L28.9637 12.3732C29.3979 13.3396 29.4158 14.4559 29.013 15.4358L28.5134 16.6512ZM30.6413 16.0381C30.4374 16.4624 30.0837 16.8201 29.6487 17.0438L29.6364 17.0499C29.5108 17.1127 29.3669 17.1286 29.2307 17.0945L29.7825 15.7522C30.2718 14.5619 30.25 13.206 29.7246 12.0367L27.8384 7.70348H28.4586C28.7002 7.70348 28.9349 7.67455 29.1606 7.62155L30.8547 12.8146C31.2027 13.8821 31.1269 15.0269 30.6413 16.0381Z" fill="black"/>
</svg>
