<svg width="25" height="30" viewBox="0 0 25 30" fill="none" xmlns="http://www.w3.org/2000/svg">
<path d="M20.0955 2.14967C20.0955 2.14967 20.6402 6.14903 10.0611 8.34653C-5.04259 11.4839 2.83434 28.8929 2.83434 28.8929M18.963 6.70608C20.3643 10.5586 18.7553 13.0283 18.7435 13.5317C18.7316 14.0352 20.9616 18.7179 20.9616 18.7179L18.129 19.2825C18.129 19.2825 18.8247 19.8756 18.9839 20.1401C19.0844 20.307 18.9758 20.6494 18.7819 20.6674C18.7819 20.6674 17.3424 21.0731 16.0846 20.8868C16.8978 21.2514 18.256 21.8797 18.256 21.8797C18.4573 22.0504 18.429 22.3689 18.2008 22.5015L17.3436 22.8125L16.4164 25.426C16.0767 26.0756 15.309 26.3741 14.6197 26.1245L8.6609 23.9587M22.2352 1.17188C22.2352 1.17188 27.193 8.84445 21.0766 15.5213" stroke="#2F2F2F" stroke-miterlimit="10" stroke-linecap="round" stroke-linejoin="round"/>
</svg>
