<svg width="32" height="32" viewBox="0 0 32 32" fill="none" xmlns="http://www.w3.org/2000/svg">
<path d="M10.9913 23.176L11.1412 23.326C11.5912 23.7766 11.5925 24.5054 11.1431 24.9547C11.0366 25.0614 10.91 25.1461 10.7707 25.2038C10.6314 25.2615 10.482 25.2911 10.3313 25.291C10.0356 25.291 9.74063 25.1779 9.515 24.9522L5.00875 20.446C4.64374 20.0812 4.41045 19.6054 4.34562 19.0935L3.80312 14.9247C3.75312 14.5441 3.57875 14.1891 3.30625 13.9166L0.46875 11.0791M9.44312 21.6285L7.52 19.7054" stroke="#2F2F2F" stroke-miterlimit="10" stroke-linecap="round" stroke-linejoin="round"/>
<path d="M3.95 6.41973L8.085 10.5547C8.81931 11.2885 9.26368 12.2629 9.33625 13.2985L9.5875 18.0497C9.65625 19.0035 8.93875 19.8272 7.985 19.8891C7.9725 19.8897 7.96 19.8904 7.94688 19.8904C7.64563 19.8904 7.39062 19.656 7.36812 19.3504L7.0475 13.8729M2.40125 4.87098L0.46875 2.93848M24.4801 19.7052L20.859 23.3263C20.4087 23.7765 20.4078 24.5055 20.8568 24.9545C21.3058 25.4035 22.0348 25.4025 22.485 24.9523L26.9911 20.4462C27.3561 20.0814 27.5896 19.6056 27.6546 19.0936L28.1971 14.9249C28.247 14.5432 28.4217 14.1887 28.694 13.9166L31.5312 11.0794" stroke="#2F2F2F" stroke-miterlimit="10" stroke-linecap="round" stroke-linejoin="round"/>
<path d="M22.4698 16.9375L22.4111 18.05C22.3423 19.0037 23.0598 19.8275 24.0136 19.8894C24.0261 19.89 24.0386 19.8906 24.0517 19.8906C24.353 19.8906 24.608 19.6562 24.6305 19.3506L24.9511 13.8731M22.5855 14.75L22.6623 13.2987C22.7349 12.2632 23.1793 11.2888 23.9136 10.555L31.5298 2.93875M13.0408 24.9688V26.9155C13.0408 27.7746 12.4172 28.5067 11.569 28.6432L7.29484 29.3314C6.67637 29.431 6.09293 29.6847 5.59834 30.0692C5.10375 30.4537 4.71393 30.9565 4.46484 31.5312M18.9564 24.9688V26.9155C18.9564 27.7746 19.58 28.5067 20.4282 28.6432L24.7023 29.3314C25.3208 29.431 25.9042 29.6847 26.3988 30.0692C26.8934 30.4537 27.2832 30.9565 27.5323 31.5312M20.7947 23.3836C19.3516 24.6846 17.4419 26.1091 15.9986 26.1091C14.5553 26.1091 12.6457 24.6846 11.2025 23.3836M14.8086 19.3438C15.5378 19.615 16.2669 19.615 16.9961 19.3438M23.1617 1.91062C23.4461 2.0775 23.723 2.24812 23.9873 2.41812C25.4542 3.35937 26.1292 5.1525 25.6611 6.83125L25.5736 7.12875M15.9986 0.89875C16.033 0.898125 17.2823 0.46875 19.2198 0.46875C19.8155 0.46875 20.4998 0.65 21.2048 0.931875" stroke="#2F2F2F" stroke-miterlimit="10" stroke-linecap="round" stroke-linejoin="round"/>
<path d="M22.7507 12.6919C20.8837 9.79956 18.8444 7.83388 16.0008 7.03119M16.0008 7.03119C13.2254 7.94781 11.1328 9.83069 9.25288 12.7014M16.0008 7.03119C18.008 3.01337 14.847 3.80844 16.0008 0.898813C15.9921 0.932375 14.7171 0.46875 12.7796 0.46875C11.3845 0.46875 9.501 1.46237 8.01213 2.41806C6.54538 3.35956 5.87 5.15219 6.3385 6.831L6.42581 7.12875M26.2296 8.24112C25.9528 7.66642 25.5429 7.16604 25.0339 6.7815L22.4721 4.84369" stroke="#2F2F2F" stroke-miterlimit="10" stroke-linecap="round" stroke-linejoin="round"/>
<path d="M5.83984 8.10363C6.11413 7.586 6.4985 7.13475 6.96591 6.78162L9.52772 4.84375M21.0573 13.6562C19.9205 13.3021 18.897 13.0313 17.6215 13.6562M10.9407 13.6562C12.0774 13.3021 13.101 13.0313 14.3764 13.6562M17.8184 21.8721C17.278 22.1398 16.7197 22.1124 16.155 21.9018C15.9722 21.8334 15.7708 21.8334 15.588 21.9018C15.0233 22.1124 14.465 22.1398 13.9246 21.8721M11.1541 16.3016C12.008 16.6245 12.8618 16.6245 13.7157 16.3016M20.8438 16.3016C19.99 16.6245 19.1361 16.6245 18.2822 16.3016" stroke="#2F2F2F" stroke-miterlimit="10" stroke-linecap="round" stroke-linejoin="round"/>
</svg>
