<svg width="32" height="32" viewBox="0 0 32 32" fill="none" xmlns="http://www.w3.org/2000/svg">
<path d="M23.996 22.5062C23.9031 22.5061 23.812 22.4802 23.733 22.4312C23.6539 22.3823 23.5901 22.3123 23.5487 22.2291C23.5073 22.1459 23.4898 22.0528 23.4984 21.9603C23.5069 21.8677 23.541 21.7794 23.597 21.7052C24.8378 20.0626 25.5062 18.0587 25.5 16.0002C25.5 15.3482 25.433 14.6952 25.301 14.0602C25.2863 13.9954 25.2847 13.9283 25.2962 13.8629C25.3077 13.7974 25.3321 13.7349 25.3681 13.679C25.404 13.6231 25.4508 13.575 25.5055 13.5374C25.5603 13.4998 25.622 13.4734 25.6871 13.4599C25.7521 13.4464 25.8192 13.4461 25.8845 13.4588C25.9497 13.4715 26.0117 13.4971 26.0669 13.5341C26.1221 13.5711 26.1694 13.6187 26.206 13.6742C26.2426 13.7297 26.2677 13.7919 26.28 13.8572C26.426 14.5592 26.5 15.2802 26.5 16.0002C26.5 18.2952 25.772 20.4772 24.396 22.3072C24.3493 22.3691 24.2889 22.4193 24.2195 22.4538C24.15 22.4884 24.0735 22.5063 23.996 22.5062ZM6.216 18.5842C6.10142 18.5837 5.99044 18.5441 5.90149 18.4719C5.81254 18.3997 5.75096 18.2992 5.727 18.1872C5.57646 17.4679 5.50039 16.735 5.5 16.0002C5.5 13.7152 6.221 11.5422 7.586 9.71818C7.62533 9.66559 7.67464 9.62125 7.7311 9.58771C7.78756 9.55417 7.85008 9.53208 7.91508 9.5227C7.98008 9.51333 8.0463 9.51684 8.10994 9.53305C8.17358 9.54926 8.23341 9.57785 8.286 9.61718C8.33859 9.65651 8.38293 9.70582 8.41647 9.76228C8.45001 9.81874 8.4721 9.88126 8.48147 9.94626C8.49085 10.0113 8.48734 10.0775 8.47113 10.1411C8.45492 10.2048 8.42633 10.2646 8.387 10.3172C7.1561 11.9556 6.49355 13.9509 6.5 16.0002C6.5 16.6652 6.569 17.3322 6.706 17.9812C6.72134 18.054 6.72021 18.1294 6.70269 18.2018C6.68518 18.2742 6.65172 18.3417 6.60476 18.3995C6.5578 18.4573 6.49853 18.5039 6.43127 18.5358C6.36401 18.5678 6.29046 18.5843 6.216 18.5842ZM17.5 21.0002H14.5C14.3674 21.0002 14.2402 20.9475 14.1464 20.8537C14.0527 20.76 14 20.6328 14 20.5002V18.0002H11.5C11.3674 18.0002 11.2402 17.9475 11.1464 17.8537C11.0527 17.76 11 17.6328 11 17.5002V14.5002C11 14.3676 11.0527 14.2404 11.1464 14.1466C11.2402 14.0529 11.3674 14.0002 11.5 14.0002H14V11.5002C14 11.3676 14.0527 11.2404 14.1464 11.1466C14.2402 11.0529 14.3674 11.0002 14.5 11.0002H17.5C17.6326 11.0002 17.7598 11.0529 17.8536 11.1466C17.9473 11.2404 18 11.3676 18 11.5002V14.0002H20.5C20.6326 14.0002 20.7598 14.0529 20.8536 14.1466C20.9473 14.2404 21 14.3676 21 14.5002V17.5002C21 17.6328 20.9473 17.76 20.8536 17.8537C20.7598 17.9475 20.6326 18.0002 20.5 18.0002H18V20.5002C18 20.6328 17.9473 20.76 17.8536 20.8537C17.7598 20.9475 17.6326 21.0002 17.5 21.0002ZM15 20.0002H17V17.5002C17 17.3676 17.0527 17.2404 17.1464 17.1466C17.2402 17.0529 17.3674 17.0002 17.5 17.0002H20V15.0002H17.5C17.3674 15.0002 17.2402 14.9475 17.1464 14.8537C17.0527 14.76 17 14.6328 17 14.5002V12.0002H15V14.5002C15 14.6328 14.9473 14.76 14.8536 14.8537C14.7598 14.9475 14.6326 15.0002 14.5 15.0002H12V17.0002H14.5C14.6326 17.0002 14.7598 17.0529 14.8536 17.1466C14.9473 17.2404 15 17.3676 15 17.5002V20.0002ZM18.141 30.0002H12.9C11.9181 29.9991 10.949 29.7776 10.064 29.3522L6.561 27.6502C5.67548 27.2221 4.70458 26.9999 3.721 27.0002H1.5C1.36739 27.0002 1.24021 26.9475 1.14645 26.8537C1.05268 26.76 1 26.6328 1 26.5002C1 26.3676 1.05268 26.2404 1.14645 26.1466C1.24021 26.0529 1.36739 26.0002 1.5 26.0002H3.721C4.857 26.0002 5.959 26.2522 6.996 26.7502L10.498 28.4512C11.2477 28.811 12.0684 28.9986 12.9 29.0002H18.041L22.408 27.1982C22.408 27.1562 22.467 26.7692 22.275 26.4402C21.982 25.9362 21.305 25.9202 20.792 25.9952C20.047 26.1102 19.431 26.3172 18.888 26.5002L18.682 26.5692C18.5567 26.6089 18.4208 26.5978 18.3036 26.538C18.1865 26.4783 18.0976 26.3749 18.0562 26.2501C18.0148 26.1253 18.0242 25.9893 18.0824 25.8714C18.1405 25.7535 18.2428 25.6632 18.367 25.6202L18.569 25.5532C19.151 25.3572 19.81 25.1352 20.644 25.0072C22.706 24.7072 23.221 25.9952 23.332 26.3962C23.515 27.0572 23.363 27.8842 22.792 28.1232L18.331 29.9642C18.2704 29.9876 18.206 29.9998 18.141 30.0002ZM11.635 22.8772C11.5397 22.8772 11.4463 22.85 11.3659 22.7988C11.2855 22.7476 11.2213 22.6746 11.181 22.5882C10.201 20.4792 7.655 20.1772 5.762 20.9622C5.70108 20.9872 5.63586 21.0001 5.57 21.0002H1.5C1.36739 21.0002 1.24021 20.9475 1.14645 20.8537C1.05268 20.76 1 20.6328 1 20.5002C1 20.3676 1.05268 20.2404 1.14645 20.1466C1.24021 20.0529 1.36739 20.0002 1.5 20.0002H5.473C8.18 18.9252 11.009 19.8482 12.089 22.1672C12.124 22.2434 12.1393 22.3272 12.1335 22.4109C12.1277 22.4945 12.1009 22.5754 12.0558 22.6461C12.0106 22.7167 11.9484 22.7749 11.8749 22.8153C11.8013 22.8557 11.7189 22.877 11.635 22.8772Z" fill="black"/>
<path d="M16.3731 27.623C16.3076 27.6229 16.2427 27.61 16.1821 27.585L10.4561 25.208C10.3954 25.1828 10.3403 25.1459 10.2939 25.0994C10.2475 25.0528 10.2107 24.9976 10.1856 24.9369C10.1606 24.8762 10.1477 24.8111 10.1478 24.7454C10.1479 24.6797 10.1609 24.6147 10.1861 24.554C10.2113 24.4933 10.2482 24.4382 10.2947 24.3918C10.3413 24.3454 10.3964 24.3086 10.4572 24.2836C10.5179 24.2585 10.583 24.2456 10.6487 24.2457C10.7144 24.2458 10.7794 24.2588 10.8401 24.284L16.0631 26.452C16.2821 25.421 15.7181 24.619 14.3781 24.064L11.4351 22.842C11.3126 22.7911 11.2153 22.6936 11.1646 22.5709C11.114 22.4483 11.1142 22.3105 11.1651 22.188C11.216 22.0655 11.3135 21.9682 11.4362 21.9176C11.5588 21.8669 11.6966 21.8671 11.8191 21.918L14.7611 23.14C16.8221 23.994 17.5781 25.515 16.8351 27.312C16.8101 27.3729 16.7733 27.4282 16.7268 27.4747C16.6802 27.5212 16.625 27.558 16.5641 27.583C16.5039 27.6095 16.4389 27.6231 16.3731 27.623ZM10.7701 7.039C9.1971 7.039 8.7671 5.965 8.6671 5.605C8.4841 4.944 8.6361 4.117 9.2071 3.878L13.6681 2.037C13.7285 2.01274 13.793 2.00019 13.8581 2H19.0981C20.0751 2 21.0291 2.218 21.9341 2.648L25.4371 4.35C26.3361 4.781 27.2931 5 28.2781 5H30.4991C30.6317 5 30.7589 5.05268 30.8526 5.14645C30.9464 5.24021 30.9991 5.36739 30.9991 5.5C30.9991 5.63261 30.9464 5.75979 30.8526 5.85355C30.7589 5.94732 30.6317 6 30.4991 6H28.2781C27.1438 6.00057 26.0241 5.74415 25.0031 5.25L21.5011 3.55C20.7516 3.18938 19.9308 3.00143 19.0991 3H13.9581L9.5901 4.802C9.5901 4.844 9.5311 5.231 9.7231 5.56C10.0171 6.064 10.6921 6.08 11.2061 6.005C11.9511 5.89 12.5671 5.683 13.1101 5.5L13.3161 5.431C13.3787 5.40931 13.4449 5.40027 13.511 5.40439C13.5771 5.40852 13.6417 5.42573 13.7011 5.45502C13.7605 5.48432 13.8134 5.52512 13.8569 5.57505C13.9004 5.62499 13.9335 5.68306 13.9544 5.74591C13.9753 5.80875 13.9834 5.87511 13.9784 5.94114C13.9734 6.00717 13.9554 6.07155 13.9253 6.13054C13.8952 6.18953 13.8537 6.24196 13.8032 6.28478C13.7527 6.3276 13.6942 6.35997 13.6311 6.38L13.4291 6.447C12.8471 6.643 12.1881 6.865 11.3541 6.993C11.1609 7.02303 10.9656 7.0384 10.7701 7.039ZM24.2581 12.445C22.3681 12.445 20.6861 11.501 19.9101 9.833C19.86 9.71351 19.8581 9.57925 19.9049 9.45842C19.9517 9.33759 20.0435 9.23958 20.161 9.18497C20.2785 9.13036 20.4126 9.1234 20.5351 9.16554C20.6576 9.20769 20.7591 9.29566 20.8181 9.411C21.7971 11.519 24.3421 11.82 26.2371 11.037C26.2982 11.0128 26.3633 11.0002 26.4291 11H30.4991C30.6317 11 30.7589 11.0527 30.8526 11.1464C30.9464 11.2402 30.9991 11.3674 30.9991 11.5C30.9991 11.6326 30.9464 11.7598 30.8526 11.8536C30.7589 11.9473 30.6317 12 30.4991 12H26.5261C25.7661 12.301 24.9961 12.445 24.2581 12.445Z" fill="black"/>
<path d="M20.3725 10.1201C20.3067 10.1202 20.2414 10.1073 20.1805 10.0821L17.2385 8.86012C15.1775 8.00612 14.4215 6.48512 15.1645 4.68812C15.1893 4.62708 15.2259 4.57157 15.2723 4.52482C15.3187 4.47807 15.374 4.441 15.4348 4.41579C15.4957 4.39057 15.5609 4.3777 15.6268 4.37793C15.6927 4.37816 15.7579 4.39148 15.8185 4.41712L21.5445 6.79412C21.6052 6.81934 21.6603 6.85625 21.7067 6.90276C21.7531 6.94928 21.7899 7.00447 21.815 7.0652C21.8401 7.12593 21.8529 7.19101 21.8528 7.25671C21.8528 7.32241 21.8397 7.38745 21.8145 7.44812C21.7893 7.50879 21.7524 7.5639 21.7059 7.61031C21.6594 7.65671 21.6042 7.6935 21.5435 7.71857C21.4827 7.74364 21.4177 7.75651 21.352 7.75643C21.2863 7.75635 21.2212 7.74334 21.1605 7.71812L15.9375 5.55012C15.7185 6.58112 16.2825 7.38312 17.6225 7.93812L20.5655 9.16012C20.6262 9.1853 20.6814 9.2222 20.7278 9.26871C20.7742 9.31521 20.811 9.37041 20.8361 9.43115C20.8612 9.49189 20.874 9.55698 20.8739 9.62269C20.8738 9.68841 20.8608 9.75346 20.8355 9.81412C20.7968 9.90484 20.7323 9.98219 20.6499 10.0366C20.5676 10.091 20.4712 10.12 20.3725 10.1201ZM22.5155 24.0351C22.4167 24.0351 22.3201 24.0058 22.238 23.9509C22.1558 23.896 22.0917 23.818 22.0538 23.7268C22.016 23.6355 22.006 23.5351 22.0251 23.4381C22.0443 23.3412 22.0918 23.2521 22.1615 23.1821C22.3575 22.9871 22.7085 22.9521 22.9035 23.1471C23.0985 23.3421 23.1335 23.6241 22.9385 23.8191L22.8685 23.8891C22.8222 23.9355 22.7672 23.9723 22.7066 23.9973C22.646 24.0224 22.5811 24.0352 22.5155 24.0351ZM9.51554 9.03512C9.41636 9.0351 9.31942 9.00559 9.23706 8.95034C9.1547 8.89508 9.09063 8.81658 9.05301 8.72482C9.01538 8.63305 9.00589 8.53217 9.02575 8.435C9.04561 8.33783 9.09392 8.24876 9.16454 8.17912L9.23554 8.10912C9.28202 8.06181 9.33746 8.02422 9.39861 7.99854C9.45977 7.97286 9.52543 7.95961 9.59175 7.95955C9.65808 7.95949 9.72376 7.97263 9.78496 7.9982C9.84616 8.02378 9.90166 8.06127 9.94823 8.1085C9.9948 8.15574 10.0315 8.21176 10.0562 8.27332C10.0809 8.33487 10.0931 8.40073 10.0921 8.46705C10.0911 8.53337 10.077 8.59883 10.0504 8.65962C10.0239 8.72041 9.9855 8.77531 9.93754 8.82112L9.86654 8.89112C9.77318 8.98365 9.64697 9.03542 9.51554 9.03512Z" fill="black"/>
</svg>
