<svg width="32" height="32" viewBox="0 0 32 32" fill="none" xmlns="http://www.w3.org/2000/svg">
<path fill-rule="evenodd" clip-rule="evenodd" d="M14.5253 9.24699C14.6928 9.4908 14.9019 9.70324 15.143 9.87457C14.9021 10.0461 14.693 10.2585 14.5253 10.5022C14.3613 10.2588 14.152 10.0459 13.9112 9.87457C14.152 9.70406 14.3601 9.49146 14.5253 9.24699ZM12.5328 9.87457C12.5328 10.0638 12.6654 10.2276 12.8504 10.2692C13.5099 10.4157 14.0229 10.9624 14.1276 11.6304C14.2 12.0881 14.857 12.0783 14.9267 11.6304C15.0279 10.9625 15.5443 10.4158 16.2039 10.2692C16.6201 10.1762 16.6206 9.57314 16.2039 9.48066C15.5443 9.33422 15.0279 8.78683 14.9267 8.11874C14.8571 7.67176 14.1998 7.66197 14.1276 8.11874C14.0229 8.78683 13.5099 9.33422 12.8504 9.48066C12.6654 9.52162 12.5328 9.68533 12.5328 9.87457ZM23.3888 12.2367C23.0572 11.6247 22.5582 11.1124 21.9511 10.767C22.5582 10.4215 23.0572 9.9092 23.3888 9.29729C23.7203 9.9092 24.2193 10.4215 24.8265 10.767C24.2193 11.1124 23.7203 11.6247 23.3888 12.2367ZM26.0199 10.3729C24.8684 10.1169 23.9681 9.16053 23.7866 7.99304C23.7195 7.54113 23.0625 7.53947 22.9911 7.99304C22.8096 9.16053 21.9128 10.1169 20.7578 10.3729C20.3414 10.4652 20.3412 11.0685 20.7578 11.1609C21.9128 11.417 22.8096 12.374 22.9911 13.5415C23.0624 13.9943 23.7196 13.9927 23.7866 13.5415C23.9681 12.374 24.8684 11.417 26.0199 11.1609C26.4407 11.0674 26.4405 10.4663 26.0199 10.3729ZM19.4561 29.4382V19.6521C19.4561 19.2611 19.5922 18.8878 19.826 18.5872C19.8085 19.4404 19.826 20.3916 19.8609 21.1143C19.9621 23.0834 20.7018 24.0826 22.0663 24.0826C22.8898 24.0826 23.5144 23.6936 23.8773 22.9589C24.1251 22.453 24.2542 21.8001 24.2786 20.9044C24.2961 20.3332 24.31 19.6896 24.31 19.0643C24.5194 19.4692 24.68 19.9804 24.7951 20.5975C25.179 22.643 25.1859 25.888 25.1929 28.7507C25.1929 28.9831 25.1929 29.2127 25.1964 29.4383H19.4561V29.4382ZM18.6465 29.4382H13.1539V18.5884C13.1543 18.1291 13.3105 17.6835 13.5971 17.3246C13.5866 18.1114 13.6041 18.9529 13.6355 19.6071C13.7367 21.5768 14.4764 22.5759 15.8409 22.5759C16.6644 22.5759 17.289 22.187 17.6519 21.4523C17.8997 20.9463 18.0288 20.2934 18.0532 19.3977C18.0741 18.7125 18.0916 17.9228 18.0846 17.1856C18.4371 17.56 18.6464 18.0611 18.6464 18.5884V29.4382H18.6465ZM7.42063 23.7537C7.42415 23.8599 7.42761 23.9625 7.43113 24.0607C7.53231 26.0305 8.27209 27.0289 9.6365 27.0289C10.4601 27.0289 11.0847 26.6408 11.4476 25.9058C11.6953 25.4 11.8245 24.747 11.8489 23.8513C11.8628 23.4003 11.8768 22.9036 11.8803 22.407C12.2013 22.6446 12.3479 23.0062 12.3479 23.5415V29.4383H6.50639C6.63894 27.638 6.84137 25.3187 7.42063 23.7537ZM8.25807 20.3684C8.1743 21.3363 8.18479 22.9381 8.2406 24.0202C8.33826 25.971 9.0397 26.2213 9.63638 26.2213C10.261 26.2213 10.9799 25.9491 11.0426 23.8275C11.0775 22.696 11.102 21.2758 11.0112 20.3275C10.7879 17.9891 9.97833 17.9891 9.70959 17.9891C8.55817 17.9891 8.31042 19.8101 8.25807 20.3684ZM14.4625 15.9155C14.3787 16.8833 14.3892 18.4851 14.445 19.5667C14.5427 21.518 15.2441 21.7683 15.8409 21.7683C16.4655 21.7683 17.1843 21.4961 17.2471 19.374C17.282 18.2429 17.3065 16.8228 17.2157 15.8739C16.9959 13.5356 16.1828 13.5356 15.9141 13.5356C14.7626 13.5356 14.5148 15.3572 14.4625 15.9155ZM20.6879 17.422C20.6041 18.39 20.6146 19.9918 20.6704 21.0732C20.7682 23.0246 21.466 23.2749 22.0663 23.2749C22.6874 23.2749 23.4098 23.0027 23.4725 20.8806C23.504 19.7495 23.5319 18.3294 23.4411 17.3806C23.2178 15.0421 22.4082 15.0421 22.1395 15.0421C20.988 15.0422 20.7402 16.8638 20.6879 17.422ZM25.5907 20.4487C25.985 22.5672 25.9955 25.851 26.0025 28.7489V29.8403C26.0062 30.0695 25.8209 30.2458 25.6012 30.2458H6.07017C5.83855 30.2458 5.65327 30.0441 5.66889 29.8131C5.8573 27.225 6.11209 23.7134 7.38927 22.1128C7.39273 21.4455 7.41366 20.793 7.45558 20.2976C7.62658 18.3462 8.471 17.1817 9.70978 17.1817C10.9137 17.1817 11.622 18.2142 11.8175 20.2509C11.8524 20.6149 11.8698 21.0411 11.8768 21.4916C12.0513 21.5632 12.2083 21.6485 12.3479 21.7489V18.5886C12.3479 17.6281 12.8364 16.7369 13.6321 16.2109C13.6425 16.0817 13.6496 15.9589 13.66 15.8446C13.831 13.8933 14.6755 12.7281 15.9143 12.7281C17.3026 12.7281 17.9253 14.1157 18.0464 16.1342C18.7059 16.5224 19.177 17.1598 19.3654 17.8865C19.5169 17.7293 19.6881 17.5924 19.8749 17.4794C19.8784 17.4355 19.8819 17.3928 19.8853 17.3512C20.0563 15.4 20.9008 14.2348 22.1396 14.2348C23.5547 14.2348 24.1752 15.6991 24.2752 17.706C24.9137 18.251 25.3465 19.1509 25.5907 20.4487ZM19.0757 3.37173C19.3827 3.91618 19.8294 4.37416 20.3703 4.69134C19.8295 5.00866 19.3827 5.4667 19.0757 6.01115C18.7703 5.46423 18.3246 5.00863 17.7845 4.69134C18.3247 4.37422 18.7704 3.91867 19.0757 3.37173ZM16.6121 5.08539C16.1914 4.99214 16.1913 4.3908 16.6121 4.29736C17.6798 4.0603 18.5104 3.17448 18.6778 2.09339C18.7496 1.63733 19.4063 1.64418 19.477 2.09339C19.6444 3.17448 20.475 4.05979 21.5427 4.29736C21.9635 4.39086 21.9634 4.99202 21.5427 5.08539C20.4749 5.32245 19.6444 6.20833 19.477 7.28942C19.4063 7.73857 18.7496 7.74542 18.6778 7.28942C18.5104 6.20833 17.6799 5.32245 16.6121 5.08539ZM7.90914 12.7569C7.51094 13.8074 7.85705 15.0492 8.95254 15.0492C9.44105 15.0492 9.72719 14.7889 9.87727 14.571C10.1948 14.1187 10.2402 13.4347 10.0029 12.7863C9.73167 12.0462 9.37423 11.5605 8.95254 10.8893C8.92111 10.9343 8.89321 10.9787 8.8653 11.0225C8.49538 11.5905 8.14646 12.1271 7.90914 12.7569ZM8.95254 15.8567C9.60508 15.8567 10.1704 15.5643 10.5402 15.033C11.0114 14.3575 11.0951 13.4133 10.7601 12.5072C10.3923 11.5086 9.82914 10.7973 9.29449 9.92424C9.13673 9.66664 8.76342 9.66888 8.60706 9.92424C8.08642 10.7745 7.51087 11.5186 7.1519 12.4725C6.80642 13.3937 6.8797 14.3501 7.35426 15.0306C7.72073 15.5636 8.2895 15.8567 8.95254 15.8567Z" fill="#2F2F2F"/>
</svg>
