<svg width="32" height="32" viewBox="0 0 32 32" fill="none" xmlns="http://www.w3.org/2000/svg">
<g clip-path="url(#clip0_209_12284)">
<path d="M2.66583 16.3756L3.1827 17.829C3.20483 17.8913 3.24864 17.9406 3.30395 17.9655L4.5952 18.5472C4.77764 18.6294 4.77764 18.9201 4.5952 19.0023L3.30395 19.584C3.2487 19.6089 3.20489 19.6583 3.1827 19.7205L2.66583 21.1738C2.59283 21.3791 2.33458 21.3791 2.26152 21.1738L1.74464 19.7205C1.72252 19.6582 1.6787 19.6089 1.62339 19.584L0.332141 19.0023C0.149703 18.9201 0.149703 18.6294 0.332141 18.5472L1.62339 17.9655C1.6787 17.9406 1.72252 17.8912 1.74464 17.829L2.26152 16.3756C2.33458 16.1703 2.59283 16.1703 2.66583 16.3756ZM30.2724 7.81052L30.6558 8.88859C30.6722 8.93477 30.7047 8.97134 30.7457 8.98984L31.7035 9.4214C31.8388 9.48234 31.8388 9.69796 31.7035 9.75896L30.7457 10.1905C30.7047 10.209 30.6722 10.2455 30.6558 10.2917L30.2724 11.3698C30.2182 11.5221 30.0267 11.5221 29.9725 11.3698L29.5891 10.2917C29.5726 10.2455 29.5401 10.209 29.4991 10.1905L28.5413 9.75896C28.406 9.69796 28.406 9.4824 28.5413 9.4214L29.4991 8.98984C29.5401 8.97134 29.5726 8.93477 29.5891 8.88859L29.9725 7.81052C30.0266 7.65821 30.2182 7.65821 30.2724 7.81052Z" fill="black"/>
<path d="M25.3626 3.05276C25.506 2.44616 25.1305 1.83816 24.5239 1.69477C23.9173 1.55137 23.3093 1.92688 23.1659 2.53348C23.0225 3.14009 23.398 3.74808 24.0046 3.89148C24.6112 4.03487 25.2192 3.65937 25.3626 3.05276Z" fill="black"/>
<path d="M3.77142 10.2702C4.01988 10.1674 4.13795 9.88266 4.03514 9.6342C3.93232 9.38573 3.64756 9.26766 3.3991 9.37048C3.15064 9.47329 3.03257 9.75806 3.13538 10.0065C3.23819 10.255 3.52296 10.3731 3.77142 10.2702Z" fill="black"/>
<path d="M27.8898 21.5628C28.6812 20.1693 28.8828 18.7499 28.4888 17.3441C28.014 15.6499 27.1084 14.0562 25.8629 12.7188C25.8932 11.3774 25.7507 10.076 25.4568 9.02791C25.0717 7.65478 24.4444 6.82241 23.6426 6.62084C22.0926 6.23116 20.4827 7.91803 19.5212 8.92609C19.4139 9.03866 19.2892 9.16928 19.1984 9.25891C18.0892 9.19222 17.1276 9.29216 16.1104 9.57722C14.9742 9.89559 13.9167 10.4447 12.9642 11.2104C12.811 11.2125 12.5436 11.1992 12.3188 11.1892C10.1079 11.0913 7.89267 11.108 7.22473 12.4499C6.39423 14.1187 7.46517 15.4117 8.82111 17.0487C8.94392 17.197 9.0696 17.3487 9.1981 17.5055C8.81904 19.2745 8.86104 21.0691 9.32235 22.7153C9.37262 22.8941 9.4322 23.0703 9.50085 23.2429C9.41084 23.2092 9.31951 23.1791 9.2271 23.1527C8.36848 22.9107 7.45342 23.009 6.65029 23.4296C5.74267 23.9049 5.05592 24.7538 4.66448 25.8844C4.51023 26.3298 4.53867 26.8087 4.7446 27.2327C4.95054 27.6567 5.30923 27.9751 5.7546 28.1293C6.67423 28.4478 7.6811 27.9586 7.99954 27.0391C8.10973 26.721 8.23104 26.5894 8.28179 26.5552C8.33285 26.5865 8.40235 26.7293 8.33654 27.0289C7.99342 28.5916 8.45073 29.6794 8.89467 30.3168C9.43779 31.0966 10.2775 31.653 11.2589 31.8835C11.583 31.9602 11.9149 31.9991 12.248 31.9997C12.2932 31.9997 12.337 31.9942 12.3794 31.985C12.4457 31.9986 12.5138 32.0014 12.581 31.9933C12.926 31.951 13.1713 31.6371 13.129 31.2922C13.0866 30.9484 13.0651 30.6024 13.0646 30.256C13.0646 28.9841 13.3476 27.7842 13.8463 26.7268C14.0173 26.7744 14.1895 26.8178 14.3626 26.857C15.345 27.0794 16.342 27.1691 17.2822 27.169C18.6403 27.169 19.8798 26.9818 20.7837 26.737C22.0544 26.3928 23.5347 25.6903 24.8652 24.742C26.1737 26.1385 26.9888 28.094 26.9888 30.256C26.9888 30.5952 26.9672 30.9438 26.9245 31.2922C26.8822 31.6372 27.1275 31.951 27.4725 31.9933C27.4985 31.9965 27.5243 31.998 27.5499 31.998C27.8632 31.998 28.1345 31.7642 28.1736 31.4453C28.2222 31.0507 28.2469 30.6536 28.2473 30.256C28.2473 27.8037 27.3333 25.5794 25.8567 23.9632C26.6788 23.2493 27.3926 22.4382 27.8898 21.5628ZM9.92735 29.5977C9.62685 29.1663 9.32017 28.4173 9.56579 27.299C9.80604 26.2047 9.23936 25.5157 8.6111 25.3387C8.01448 25.1704 7.22829 25.4207 6.81042 26.6275C6.7191 26.8913 6.43017 27.0317 6.16635 26.9403C6.10345 26.9187 6.04546 26.8848 5.99572 26.8407C5.94599 26.7966 5.9055 26.743 5.8766 26.6831C5.84736 26.6234 5.83026 26.5584 5.82631 26.492C5.82235 26.4256 5.8316 26.3591 5.85354 26.2963C6.46085 24.5424 7.81417 24.062 8.8856 24.3642C9.47748 24.531 9.97623 24.9248 10.29 25.473C10.6272 26.0622 10.7187 26.7687 10.5545 27.5162C10.357 28.4155 10.6156 29.1143 11.2824 29.4837C11.4557 29.5797 11.6397 29.6443 11.823 29.6828C11.8118 29.8738 11.8061 30.065 11.806 30.2563C11.806 30.4058 11.8109 30.557 11.8181 30.7088C11.7269 30.696 11.6363 30.6793 11.5466 30.6586C10.8679 30.4991 10.2929 30.1223 9.92735 29.5977ZM11.9812 28.4228C11.9515 28.4117 11.9218 28.399 11.8925 28.3828C11.8178 28.3414 11.6787 28.2644 11.7839 27.786C11.9305 27.1183 11.9288 26.4673 11.7834 25.8604C12.0545 26.024 12.345 26.1732 12.6545 26.3077C12.3473 26.9836 12.1213 27.6936 11.9812 28.4228ZM20.4547 25.5225C19.1341 25.8802 16.8191 26.1229 14.6405 25.6298C13.0845 25.2775 11.109 24.4271 10.5342 22.3757C10.1042 20.8412 10.0894 19.1532 10.4915 17.4943L10.5647 17.1921L10.3692 16.9503C10.1684 16.7022 9.97629 16.4702 9.79042 16.2459C8.46973 14.6513 7.9046 13.9086 8.35148 13.0107C8.41179 12.8895 8.67217 12.5939 9.78385 12.4678C10.1671 12.4244 10.5757 12.4099 10.973 12.4099C11.4384 12.4099 11.8882 12.4298 12.2633 12.4464C13.1254 12.4847 13.3855 12.4961 13.6339 12.2887C13.6984 12.2351 13.7637 12.1824 13.8298 12.1308L14.4198 13.9517C14.506 14.2178 14.7528 14.3871 15.0182 14.3871C15.0825 14.3871 15.1479 14.3772 15.2123 14.3563C15.5429 14.2492 15.7241 13.8943 15.6169 13.5637L14.9198 11.4123C15.1871 11.2667 15.4631 11.1377 15.7463 11.0261L17.1012 15.0908C17.1891 15.3545 17.4346 15.5213 17.6981 15.5213C17.7658 15.5212 17.833 15.5103 17.8972 15.4888C18.2269 15.3789 18.405 15.0225 18.2952 14.6928L16.9524 10.6645C17.2477 10.6005 17.5466 10.5548 17.8475 10.5275L18.5686 12.753C18.6548 13.0192 18.9016 13.1884 19.167 13.1884C19.2313 13.1884 19.2967 13.1785 19.3611 13.1576C19.6917 13.0505 19.8729 12.6956 19.7657 12.365L19.1673 10.518C19.222 10.5216 19.277 10.5253 19.3329 10.5298C19.7026 10.5591 19.9015 10.351 20.4321 9.79466C21.0499 9.14697 22.497 7.63034 23.3361 7.84128C23.9412 7.99341 24.7137 10.0057 24.5974 12.9374L24.5866 13.2078L24.7755 13.4016C25.9707 14.6275 26.8359 16.1083 27.2774 17.6837C27.5774 18.7544 27.4154 19.8505 26.7959 20.9414C25.5337 23.1631 22.6506 24.9277 20.4547 25.5225Z" fill="black"/>
<path d="M13.2105 20.0134C13.3555 20.0954 13.5154 20.1478 13.6809 20.1677C13.8463 20.1875 14.0141 20.1744 14.1744 20.129C14.8478 19.9403 15.2423 19.2388 15.0535 18.5654C15.0401 18.5176 15.0174 18.473 14.9868 18.434C14.9562 18.395 14.9182 18.3624 14.8749 18.3382C14.8317 18.3139 14.7841 18.2983 14.7349 18.2924C14.6857 18.2865 14.6358 18.2904 14.588 18.3037C14.5403 18.3171 14.4957 18.3398 14.4567 18.3704C14.4177 18.401 14.3851 18.439 14.3608 18.4823C14.3365 18.5255 14.321 18.5731 14.3151 18.6223C14.3092 18.6715 14.313 18.7214 14.3264 18.7692C14.4028 19.0417 14.2432 19.3257 13.9706 19.402C13.9057 19.4204 13.8378 19.4257 13.7708 19.4177C13.7039 19.4096 13.6392 19.3884 13.5805 19.3552C13.5216 19.3223 13.4698 19.278 13.4282 19.225C13.3865 19.172 13.3558 19.1112 13.3378 19.0462C13.3244 18.9985 13.3018 18.9538 13.2712 18.9149C13.2406 18.8759 13.2026 18.8433 13.1594 18.819C13.1161 18.7947 13.0686 18.7791 13.0193 18.7732C12.9701 18.7673 12.9202 18.7712 12.8725 18.7845C12.8247 18.7979 12.7801 18.8206 12.7411 18.8512C12.7021 18.8818 12.6695 18.9198 12.6452 18.963C12.6209 19.0062 12.6054 19.0538 12.5995 19.1031C12.5936 19.1523 12.5974 19.2022 12.6108 19.2499C12.6553 19.4105 12.7312 19.5607 12.8341 19.6917C12.9371 19.8228 13.065 19.9321 13.2105 20.0134ZM23.6398 17.0906C23.7219 16.9456 23.7744 16.7857 23.7942 16.6203C23.8141 16.4548 23.8009 16.2871 23.7555 16.1267C23.7422 16.079 23.7195 16.0344 23.6889 15.9954C23.6582 15.9564 23.6202 15.9238 23.577 15.8995C23.5338 15.8752 23.4862 15.8597 23.437 15.8538C23.3877 15.8479 23.3378 15.8517 23.2901 15.8651C23.2424 15.8785 23.1977 15.9011 23.1587 15.9318C23.1198 15.9624 23.0872 16.0004 23.0629 16.0436C23.0386 16.0869 23.0231 16.1344 23.0171 16.1837C23.0112 16.2329 23.0151 16.2828 23.0285 16.3305C23.0468 16.3954 23.0522 16.4633 23.0441 16.5303C23.0361 16.5973 23.0149 16.662 22.9817 16.7207C22.9488 16.7796 22.9045 16.8313 22.8515 16.873C22.7985 16.9147 22.7377 16.9454 22.6727 16.9634C22.6078 16.9818 22.5399 16.9871 22.473 16.9791C22.406 16.971 22.3413 16.9498 22.2826 16.9166C22.2237 16.8837 22.172 16.8395 22.1303 16.7865C22.0886 16.7334 22.0579 16.6727 22.0399 16.6077C22.0267 16.5598 22.0041 16.515 21.9735 16.4758C21.9429 16.4367 21.9049 16.4039 21.8617 16.3795C21.8184 16.3551 21.7707 16.3394 21.7214 16.3334C21.6721 16.3275 21.622 16.3313 21.5742 16.3447C21.5264 16.3581 21.4816 16.3808 21.4426 16.4116C21.4035 16.4423 21.3709 16.4804 21.3467 16.5238C21.3224 16.5671 21.3069 16.6149 21.3011 16.6642C21.2953 16.7136 21.2993 16.7636 21.3129 16.8114C21.3574 16.972 21.4334 17.1221 21.5363 17.2532C21.6392 17.3842 21.7672 17.4935 21.9127 17.5748C22.0577 17.6568 22.2176 17.7092 22.3831 17.7291C22.5485 17.749 22.7162 17.7358 22.8766 17.6905C23.0371 17.6459 23.1873 17.5699 23.3183 17.4669C23.4493 17.364 23.5586 17.2361 23.6398 17.0906ZM20.256 19.8756C19.9256 19.9682 19.5759 19.886 19.3219 19.671C19.431 19.4961 19.5036 19.3091 19.5415 19.1972C19.5574 19.1502 19.5639 19.1006 19.5607 19.0511C19.5574 19.0017 19.5444 18.9533 19.5224 18.9089C19.5005 18.8644 19.47 18.8247 19.4327 18.7921C19.3954 18.7594 19.352 18.7344 19.3051 18.7185C19.2102 18.6864 19.1065 18.6933 19.0168 18.7376C18.927 18.782 18.8585 18.8602 18.8264 18.955C18.7615 19.1468 18.6844 19.2759 18.6363 19.3378C18.5463 19.3124 18.3788 19.2377 18.1977 19.1015C18.1176 19.0425 18.0174 19.0175 17.919 19.0319C17.8205 19.0463 17.7318 19.099 17.672 19.1786C17.6122 19.2581 17.5862 19.358 17.5996 19.4566C17.6131 19.5551 17.6649 19.6444 17.7438 19.705C17.804 19.7502 18 19.8909 18.2341 19.9921C18.1247 20.2992 17.8716 20.5439 17.5488 20.6344C17.5011 20.6477 17.4565 20.6704 17.4175 20.701C17.3785 20.7317 17.3459 20.7697 17.3216 20.8129C17.2973 20.8561 17.2818 20.9037 17.2759 20.9529C17.27 21.0021 17.2738 21.0521 17.2872 21.0998C17.3005 21.1476 17.3232 21.1923 17.3538 21.2313C17.3844 21.2703 17.4224 21.3029 17.4656 21.3272C17.5089 21.3515 17.5565 21.367 17.6057 21.3729C17.655 21.3788 17.7049 21.3749 17.7527 21.3614C18.2892 21.211 18.7158 20.8159 18.919 20.3149C19.2264 20.544 19.5995 20.668 19.983 20.6684C20.1417 20.6684 20.3021 20.647 20.4598 20.6028C20.5553 20.575 20.636 20.5106 20.6843 20.4236C20.7326 20.3366 20.7446 20.2341 20.7178 20.1383C20.6909 20.0426 20.6274 19.9612 20.5409 19.9121C20.4545 19.8629 20.3521 19.8498 20.256 19.8756ZM6.79672 6.81367C6.90735 7.21386 7.16716 7.54698 7.52835 7.75173C7.76118 7.88448 8.02452 7.9544 8.29254 7.95461C8.30197 7.95461 8.31147 7.95386 8.32097 7.95367L8.58804 8.92486C8.66479 9.20417 8.9181 9.38742 9.19435 9.38742C9.2496 9.38742 9.30579 9.38011 9.36154 9.36473C9.6966 9.27261 9.89354 8.9263 9.80141 8.59117L9.54704 7.66611L10.5915 7.37742L10.8462 8.30386C10.923 8.58305 11.1763 8.76636 11.4525 8.76636C11.5078 8.76636 11.564 8.75905 11.6197 8.74367C11.9548 8.65155 12.1517 8.30517 12.0596 7.97011L11.8044 7.04211L12.8488 6.75342L13.1044 7.6828C13.1812 7.96198 13.4345 8.1453 13.7107 8.1453C13.766 8.1453 13.8221 8.13799 13.8779 8.12261C14.213 8.03049 14.4099 7.68411 14.3178 7.34905L14.0618 6.41817L15.1062 6.12948L15.3626 7.06173C15.4393 7.34098 15.6927 7.5243 15.9689 7.5243C16.0242 7.5243 16.0803 7.51698 16.1361 7.50161C16.4712 7.40948 16.6681 7.06317 16.576 6.72805L16.3127 5.77061C16.9794 5.45217 17.3441 4.69092 17.1405 3.95448L16.7757 2.63486C16.5203 1.71073 15.9202 0.941297 15.0862 0.468485C14.2519 -0.00439009 13.2836 -0.12414 12.3596 0.13136L8.9356 1.0778C8.01141 1.33323 7.24204 1.9333 6.76922 2.76742C6.29641 3.60155 6.17666 4.56986 6.4321 5.49398L6.79672 6.81367ZM7.86391 3.38811C8.17097 2.84642 8.6706 2.45673 9.27079 2.29086L12.6948 1.34442C12.8982 1.28796 13.1084 1.25926 13.3195 1.25911C13.7172 1.25911 14.1101 1.36186 14.4655 1.5633C15.0072 1.87036 15.3968 2.37005 15.5627 2.97017L15.9275 4.2898C15.9483 4.36542 15.9382 4.44621 15.8996 4.51445C15.8609 4.58268 15.7967 4.63279 15.7212 4.6538L8.37372 6.68467C8.33629 6.69512 8.29715 6.69805 8.25857 6.69328C8.22 6.68852 8.18275 6.67616 8.14897 6.65692C8.11513 6.63782 8.0854 6.6122 8.06151 6.58156C8.03761 6.55091 8.02001 6.51584 8.00972 6.47836L7.64497 5.15867C7.4791 4.55861 7.55679 3.92973 7.86391 3.38811ZM14.8773 21.7439C14.9252 21.731 14.97 21.7088 15.0093 21.6786C15.0486 21.6484 15.0816 21.6107 15.1063 21.5677C15.131 21.5248 15.147 21.4773 15.1535 21.4282C15.1599 21.379 15.1565 21.3291 15.1436 21.2812C15.1307 21.2333 15.1085 21.1885 15.0783 21.1492C15.0481 21.1099 15.0104 21.0769 14.9674 21.0522C14.9245 21.0275 14.877 21.0114 14.8279 21.005C14.7787 20.9986 14.7288 21.002 14.6809 21.0149L12.8839 21.499C12.836 21.5119 12.7912 21.5341 12.7519 21.5644C12.7126 21.5946 12.6796 21.6323 12.6549 21.6752C12.6302 21.7182 12.6141 21.7656 12.6077 21.8148C12.6013 21.864 12.6047 21.9139 12.6176 21.9618C12.6305 22.0096 12.6527 22.0545 12.6829 22.0938C12.7131 22.1331 12.7508 22.166 12.7938 22.1908C12.8367 22.2155 12.8842 22.2315 12.9333 22.2379C12.9825 22.2443 13.0324 22.241 13.0803 22.2281L14.8773 21.7439ZM15.0582 22.3295L13.2612 22.8136C13.2134 22.8265 13.1685 22.8487 13.1292 22.8789C13.0899 22.9092 13.057 22.9468 13.0322 22.9898C13.0075 23.0328 12.9915 23.0802 12.9851 23.1294C12.9786 23.1785 12.982 23.2285 12.9949 23.2763C13.0078 23.3242 13.03 23.3691 13.0602 23.4084C13.0904 23.4476 13.1281 23.4806 13.1711 23.5053C13.214 23.5301 13.2615 23.5461 13.3106 23.5525C13.3598 23.5589 13.4097 23.5556 13.4576 23.5427L15.2546 23.0585C15.3025 23.0457 15.3473 23.0235 15.3866 22.9932C15.4259 22.963 15.4589 22.9253 15.4836 22.8824C15.5083 22.8394 15.5244 22.792 15.5308 22.7428C15.5372 22.6936 15.5338 22.6437 15.5209 22.5958C15.508 22.548 15.4859 22.5031 15.4556 22.4638C15.4254 22.4245 15.3877 22.3916 15.3447 22.3668C15.3018 22.3421 15.2544 22.3261 15.2052 22.3197C15.156 22.3133 15.1061 22.3166 15.0582 22.3295ZM24.9188 18.9757C25.0155 18.9496 25.0978 18.8863 25.1478 18.7995C25.1977 18.7127 25.2112 18.6096 25.1851 18.513C25.1591 18.4163 25.0957 18.3339 25.0089 18.284C24.9222 18.234 24.8191 18.2206 24.7224 18.2466L22.9254 18.7307C22.8371 18.7546 22.7604 18.8097 22.7096 18.8859C22.6589 18.962 22.6375 19.054 22.6495 19.1447C22.6615 19.2354 22.706 19.3187 22.7747 19.3791C22.8435 19.4394 22.9318 19.4728 23.0233 19.4729C23.0558 19.4729 23.0889 19.4687 23.1218 19.4598L24.9188 18.9757ZM25.0998 19.5612L23.3027 20.0454C23.2549 20.0583 23.21 20.0805 23.1707 20.1107C23.1314 20.1409 23.0985 20.1786 23.0737 20.2216C23.049 20.2645 23.033 20.3119 23.0266 20.3611C23.0201 20.4103 23.0235 20.4602 23.0364 20.5081C23.0493 20.556 23.0715 20.6008 23.1017 20.6401C23.1319 20.6794 23.1696 20.7124 23.2126 20.7371C23.2555 20.7618 23.303 20.7778 23.3521 20.7843C23.4013 20.7907 23.4512 20.7873 23.4991 20.7744L25.2962 20.2902C25.3928 20.2642 25.4752 20.2008 25.5252 20.114C25.5751 20.0273 25.5885 19.9242 25.5625 19.8275C25.5365 19.7308 25.4731 19.6485 25.3863 19.5985C25.2995 19.5486 25.1965 19.5351 25.0998 19.5612ZM11.3176 13.1524C11.2541 13.1467 9.75766 13.0182 9.42354 13.6548C9.08104 14.3072 10.0622 15.497 10.0721 15.509C10.3619 15.8568 10.6227 16.028 10.8645 16.028C10.9162 16.028 10.967 16.0202 11.017 16.0047C11.2883 15.9201 11.5879 15.5629 11.9072 14.943C12.223 14.3299 12.3427 13.8887 12.2626 13.6317C12.1766 13.3555 11.8763 13.2032 11.3176 13.1524ZM10.8387 15.2266C10.571 15.0064 10.1315 14.2891 10.1053 14.0142C10.3537 13.8773 11.1682 13.8559 11.513 13.94C11.4238 14.2848 11.0592 14.9822 10.8387 15.2266ZM23.1972 11.9624C23.2962 11.9624 23.3802 11.9485 23.4489 11.9207C23.717 11.812 23.8439 11.5001 23.8483 10.939C23.8488 10.8752 23.8528 9.37355 23.1908 9.09324C22.5123 8.80605 21.4078 9.88223 21.3968 9.89311C21.0053 10.2785 20.8692 10.6 20.981 10.8759C21.0877 11.1393 21.4685 11.4082 22.1127 11.6752C22.5743 11.8664 22.9373 11.9624 23.1972 11.9624ZM22.889 9.80242C23.046 10.0386 23.1347 10.8486 23.0795 11.1993C22.7285 11.1388 22.0033 10.8333 21.7415 10.6337C21.9388 10.3488 22.6172 9.85124 22.889 9.80242ZM16.6614 28.4921C16.5613 28.4921 16.4653 28.5319 16.3945 28.6027C16.3237 28.6735 16.2839 28.7695 16.2839 28.8696V31.6054C16.2852 31.7046 16.3255 31.7994 16.3962 31.8692C16.4669 31.939 16.5621 31.9781 16.6614 31.9781C16.7607 31.9781 16.856 31.939 16.9267 31.8692C16.9974 31.7994 17.0377 31.7046 17.039 31.6054V28.8696C17.039 28.7695 16.9992 28.6735 16.9284 28.6027C16.8576 28.5319 16.7615 28.4921 16.6614 28.4921ZM23.2722 28.4921C23.172 28.4921 23.076 28.5319 23.0052 28.6027C22.9344 28.6735 22.8946 28.7695 22.8946 28.8696V31.6054C22.8946 31.7055 22.9344 31.8015 23.0052 31.8723C23.076 31.9431 23.172 31.9829 23.2722 31.9829C23.3723 31.9829 23.4683 31.9431 23.5391 31.8723C23.6099 31.8015 23.6497 31.7055 23.6497 31.6054V28.8696C23.6497 28.7695 23.6099 28.6735 23.5391 28.6027C23.4683 28.5319 23.3723 28.4921 23.2722 28.4921Z" fill="black"/>
<path d="M9.30455 4.66159C9.17608 4.66165 9.05071 4.6222 8.94542 4.54859C8.6603 4.34997 8.59011 3.95778 8.78873 3.67265C9.18398 3.10528 9.8528 2.72672 10.5779 2.65997C10.9245 2.62778 11.2302 2.88284 11.2621 3.2289C11.2939 3.57497 11.0392 3.88128 10.6932 3.91315C10.3384 3.94578 10.0044 4.12922 9.82148 4.3919C9.76351 4.47527 9.6862 4.54335 9.59618 4.59031C9.50615 4.63728 9.40609 4.66174 9.30455 4.66159Z" fill="black"/>
</g>
<defs>
<clipPath id="clip0_209_12284">
<rect width="32" height="32" fill="white"/>
</clipPath>
</defs>
</svg>
