<svg width="42" height="42" viewBox="0 0 42 42" fill="none" xmlns="http://www.w3.org/2000/svg">
<path d="M16.4744 15.5771H17.0118C17.3514 15.5771 17.627 15.3015 17.627 14.9619C17.627 14.6223 17.3514 14.3467 17.0118 14.3467H16.833V13.0745C16.833 12.9114 16.7682 12.7549 16.6528 12.6395C16.5374 12.5241 16.3809 12.4593 16.2178 12.4593C16.0546 12.4593 15.8981 12.5241 15.7827 12.6395C15.6674 12.7549 15.6025 12.9114 15.6025 13.0745V14.7052C15.6025 15.1859 15.9938 15.5771 16.4744 15.5771ZM19.3218 17.6456C19.365 17.5773 19.3944 17.5012 19.4081 17.4216C19.4219 17.342 19.4199 17.2604 19.4022 17.1816C19.3844 17.1028 19.3513 17.0282 19.3048 16.9622C19.2582 16.8961 19.1991 16.8399 19.1309 16.7967C19.0626 16.7534 18.9865 16.7241 18.9069 16.7102C18.8273 16.6964 18.7458 16.6984 18.6669 16.7161C18.5881 16.7338 18.5135 16.7669 18.4475 16.8134C18.3814 16.8599 18.3252 16.9191 18.282 16.9873C17.9367 17.5333 17.1833 17.8858 16.363 17.8858C15.5427 17.8858 14.7893 17.5333 14.4438 16.9873C14.4006 16.9191 14.3444 16.86 14.2784 16.8135C14.2123 16.7669 14.1377 16.7339 14.0589 16.7162C13.9801 16.6985 13.8985 16.6965 13.8189 16.7103C13.7393 16.7241 13.6632 16.7535 13.595 16.7967C13.4571 16.884 13.3596 17.0224 13.3238 17.1816C13.288 17.3408 13.3168 17.5077 13.404 17.6456C13.9782 18.5527 15.1119 19.1164 16.3629 19.1164C17.6139 19.1164 18.7476 18.5527 19.3218 17.6456ZM20.0963 12.9156C20.4363 12.9156 20.7115 12.6403 20.7115 12.3003V11.5576C20.7115 11.2176 20.4363 10.9424 20.0963 10.9424C19.9331 10.9424 19.7766 11.0072 19.6613 11.1226C19.5459 11.238 19.4811 11.3944 19.4811 11.5576V12.3003C19.4811 12.4635 19.5459 12.62 19.6613 12.7354C19.7766 12.8507 19.9331 12.9156 20.0963 12.9156ZM12.6289 10.9424C12.4657 10.9424 12.3092 11.0072 12.1939 11.1226C12.0785 11.238 12.0137 11.3944 12.0137 11.5576V12.3003C12.0137 12.4635 12.0785 12.62 12.1939 12.7354C12.3092 12.8507 12.4657 12.9156 12.6289 12.9156C12.9689 12.9156 13.2441 12.6403 13.2441 12.3003V11.5576C13.2441 11.2176 12.9689 10.9424 12.6289 10.9424Z" fill="#2F2F2F"/>
<path d="M39.7425 34.5563C39.4029 34.5563 39.1273 34.8319 39.1273 35.1716V39.4994C39.1273 40.1998 38.5576 40.7695 37.8571 40.7695H23.4273C22.7268 40.7695 22.1571 40.1998 22.1571 39.4994V35.1716C22.1571 34.8319 21.8815 34.5563 21.5418 34.5563C21.2021 34.5563 20.9266 34.8319 20.9266 35.1716V39.4994C20.926 39.9463 21.046 40.3851 21.274 40.7695H19.6061L18.3109 30.2439L18.8851 28.7154L19.8384 29.2948C20.0358 29.4147 20.2624 29.478 20.4934 29.4777C20.8917 29.4777 21.2839 29.2916 21.5294 28.9484L23.931 25.5892C25.0449 25.9361 26.1338 26.3588 27.1901 26.8543C27.1266 27.0187 27.0942 27.1934 27.0943 27.3696V28.561H23.4273C22.0776 28.561 20.9568 29.6594 20.9289 31.0095C20.9286 31.0177 20.9286 31.0259 20.9289 31.0341C20.9523 32.2383 21.4387 33.3665 22.2981 34.2111C23.1594 35.0571 24.2986 35.5231 25.5056 35.5231H28.0525V35.5695C28.0525 36.0924 28.478 36.518 29.0009 36.518H32.2835C32.8064 36.518 33.2319 36.0924 33.2319 35.5695V35.5231H35.7788C36.9862 35.5231 38.1253 35.0571 38.9863 34.2112C39.846 33.3665 40.3325 32.2383 40.3555 31.0341C40.3558 31.0261 40.3558 31.0177 40.3555 31.0097C40.328 29.6595 39.2071 28.561 37.8571 28.561H34.1901V27.3696C34.1901 26.5307 33.4608 25.8482 32.5642 25.8482H28.7202C28.5235 25.8479 28.3282 25.8813 28.1428 25.9472C26.798 25.2864 25.4 24.7398 23.9637 24.313L21.7944 22.7146C21.2849 22.3394 20.6359 22.2769 20.0835 22.5182V21.49C20.6793 21.0644 21.2111 20.5757 21.696 20.0919C23.0281 18.7621 24.2658 17.2175 24.3034 14.9396C24.3036 14.9358 24.3036 14.9316 24.3036 14.9278L24.3027 14.633C25.5979 14.633 26.6518 13.5787 26.6518 12.2825V11.462C26.6522 11.0031 26.5178 10.5542 26.2651 10.1712V5.70445C26.2645 5.0857 26.0542 4.48543 25.6684 4.00165C25.872 3.43229 25.9757 2.83205 25.975 2.22739V0.830566C25.9754 0.372668 25.6028 0 25.1449 0H12.1547C10.3192 0 8.79326 1.31472 8.48539 3.07363C7.31645 3.39724 6.46054 4.46849 6.46054 5.70437V10.171C6.20756 10.554 6.07293 11.003 6.07343 11.462V12.2825C6.07343 13.5784 7.1277 14.633 8.4228 14.633H8.44922L8.4502 14.9816C8.4502 14.9857 8.45053 14.9899 8.45053 14.9941C8.50369 17.2701 9.75237 18.806 11.0934 20.1265C11.5616 20.5875 12.073 21.0526 12.6418 21.4614V22.5173C12.0897 22.2769 11.4417 22.3394 10.9329 22.7143L8.76479 24.3117C7.21832 24.7712 5.71654 25.3696 4.27777 26.0994C2.4488 27.0277 1.3125 28.8789 1.3125 30.93V32.908C1.3125 33.0712 1.37732 33.2276 1.4927 33.343C1.60808 33.4584 1.76456 33.5232 1.92773 33.5232C2.0909 33.5232 2.24739 33.4584 2.36277 33.343C2.47815 33.2276 2.54297 33.0712 2.54297 32.908V30.93C2.54297 29.3448 3.42095 27.914 4.83468 27.1966C6.1078 26.5507 7.43288 26.0128 8.79596 25.5886L11.1978 28.9481C11.4431 29.2916 11.8352 29.4778 12.2336 29.4778C12.4585 29.4778 12.6854 29.4181 12.8888 29.2948L13.8456 28.7135L14.4148 30.243L13.1195 40.7695H7.1003V35.8848C7.1003 35.7216 7.03548 35.5652 6.9201 35.4498C6.80472 35.3344 6.64823 35.2696 6.48506 35.2696C6.32189 35.2696 6.16541 35.3344 6.05003 35.4498C5.93465 35.5652 5.86983 35.7216 5.86983 35.8848V40.7695H2.89898C2.80458 40.7695 2.71407 40.7319 2.64732 40.6652C2.58056 40.5984 2.54303 40.5079 2.54297 40.4135V35.7769C2.54297 35.4373 2.26734 35.1616 1.92773 35.1616C1.58813 35.1616 1.3125 35.4373 1.3125 35.7769V40.4135C1.3125 41.2883 2.0242 42 2.89898 42H37.8571C39.236 42 40.3577 40.8781 40.3577 39.4994V35.1716C40.3577 34.8319 40.0822 34.5563 39.7425 34.5563ZM32.0015 35.2875H29.2829V34.5278H32.0015V35.2875ZM32.5642 27.0787C32.7785 27.0787 32.9596 27.212 32.9596 27.3696V28.561H30.8671C30.5997 28.0104 30.2407 27.5092 29.8056 27.0787H32.5642ZM28.3248 27.4507C28.7662 27.7461 29.1473 28.1229 29.4476 28.561H28.3248V27.4507ZM37.8571 29.7915C38.5387 29.7915 39.1049 30.343 39.125 31.0232C39.083 32.8273 37.5848 34.2926 35.7788 34.2926H33.2319V34.2458C33.2319 33.7229 32.8064 33.2973 32.2835 33.2973H29.0009C28.478 33.2973 28.0525 33.7229 28.0525 34.2458V34.2926H25.5056C23.6996 34.2926 22.2013 32.8273 22.1593 31.0235C22.1795 30.343 22.746 29.7914 23.4273 29.7914L37.8571 29.7915ZM20.4431 23.7302C20.5282 23.6556 20.6363 23.6124 20.7493 23.6078C20.8624 23.6033 20.9736 23.6376 21.0644 23.7051L22.8336 25.0086L20.5286 28.2325C20.523 28.2404 20.5146 28.2458 20.5051 28.2478C20.4956 28.2497 20.4857 28.2481 20.4774 28.2431L17.4022 26.3749L20.4431 23.7302ZM16.3637 27.1837L17.8094 28.0621L17.2545 29.554H15.4713L14.9166 28.0631L16.3637 27.1837ZM16.3637 25.6472L13.8722 23.4808V22.1927C14.6189 22.543 15.4533 22.7673 16.3967 22.7753H16.4111C17.3217 22.7612 18.1292 22.5468 18.8532 22.2126V23.4824L16.3637 25.6472ZM25.4213 11.462V12.2825C25.4213 12.9001 24.9195 13.4025 24.3027 13.4025H24.2989L24.2896 10.3417H24.3027C24.9196 10.342 25.4213 10.8441 25.4213 11.462ZM25.0346 5.70437V9.22819C24.7984 9.15073 24.5513 9.11135 24.3027 9.11154H24.174C23.965 8.2877 23.4824 7.56771 22.8268 7.05854C23.6872 6.67613 24.4306 6.07211 24.981 5.30824C25.0163 5.43613 25.0345 5.56943 25.0345 5.70429L25.0346 5.70437ZM8.42297 13.4025C7.80609 13.4025 7.30406 12.9001 7.30406 12.2825V11.462C7.30406 10.8444 7.80609 10.342 8.42297 10.342H8.43609L8.44536 13.4025H8.42297ZM7.69109 9.22819V5.70445C7.69109 4.93032 8.30854 4.27375 9.09686 4.20935C9.24648 4.19707 9.38646 4.13052 9.49044 4.02222C9.59441 3.91392 9.65521 3.77135 9.66139 3.62135C9.71685 2.28088 10.8121 1.23047 12.1547 1.23047H24.7449V2.22731C24.7449 4.46078 22.9277 6.27761 20.6946 6.27761H12.1903C11.4415 6.27761 10.8275 6.86757 10.789 7.60709C10.5946 8.46809 9.85466 9.11121 9.04911 9.11121C9.04911 9.11154 7.92143 9.15255 7.69109 9.22819ZM11.9567 19.2498C10.8012 18.1119 9.72612 16.8062 9.68067 14.9714L9.66623 10.2706C10.8034 10.0059 11.75 9.03082 12.0054 7.80191C12.0544 7.56738 12.0951 7.50807 12.1903 7.50807H20.727C22.0328 7.61004 23.054 8.70877 23.0578 10.0232L23.0732 14.9252C23.0405 16.7623 21.9741 18.0754 20.8267 19.221C19.6362 20.4095 18.2763 21.5129 16.3995 21.5448C14.5243 21.5259 13.156 20.4309 11.9567 19.2498ZM12.2502 28.2431C12.2419 28.2481 12.232 28.2498 12.2225 28.2478C12.213 28.2459 12.2046 28.2404 12.1989 28.2325L9.89371 25.0087L11.6629 23.7051C11.7537 23.6376 11.8649 23.6032 11.9779 23.6078C12.091 23.6123 12.1991 23.6555 12.2842 23.7301L15.3251 26.3747L12.2502 28.2431ZM14.3592 40.7695L15.5878 30.7844H17.1378L18.3664 40.7695H14.3592Z" fill="#2F2F2F"/>
</svg>
