<svg width="30" height="26" viewBox="0 0 30 26" fill="none" xmlns="http://www.w3.org/2000/svg">
<path d="M29 16.584H28.068L28.5185 14.9025C28.621 14.5171 28.5666 14.1068 28.3672 13.7614C28.1678 13.4161 27.8396 13.1638 27.4545 13.06C27.0691 12.9573 26.6587 13.0117 26.3133 13.2111C25.9679 13.4106 25.7157 13.7389 25.612 14.124L24.953 16.584H23.875V9.853C23.875 9.75354 23.8355 9.65816 23.7652 9.58784C23.6948 9.51751 23.5995 9.478 23.5 9.478C23.4005 9.478 23.3052 9.51751 23.2348 9.58784C23.1645 9.65816 23.125 9.75354 23.125 9.853V16.584H18.919C18.7279 16.1188 18.4131 15.7147 18.0087 15.4157C17.6043 15.1166 17.1258 14.9339 16.625 14.8875V7C16.625 6.655 16.905 6.375 17.25 6.375H22.5C22.845 6.375 23.125 6.655 23.125 7V8.353C23.125 8.45246 23.1645 8.54784 23.2348 8.61817C23.3052 8.68849 23.4005 8.728 23.5 8.728C23.5995 8.728 23.6948 8.68849 23.7652 8.61817C23.8355 8.54784 23.875 8.45246 23.875 8.353V7C23.8746 6.63545 23.7296 6.28594 23.4718 6.02817C23.2141 5.77039 22.8646 5.6254 22.5 5.625H21.75V3.25C21.7503 3.07116 21.6955 2.89657 21.593 2.75C21.6955 2.60343 21.7503 2.42884 21.75 2.25V1.5C21.75 1.155 21.47 0.875 21.125 0.875H18.625C18.28 0.875 18 1.155 18 1.5V2.25C18 2.436 18.058 2.608 18.157 2.75C18.0545 2.89657 17.9997 3.07116 18 3.25V5.625H17.25C16.8854 5.6254 16.5359 5.77039 16.2782 6.02817C16.0204 6.28594 15.8754 6.63545 15.875 7V14.875H13.448C14.745 13.809 15.3545 11.949 15.385 11.8535C15.4005 11.8038 15.4055 11.7514 15.3997 11.6996C15.394 11.6478 15.3775 11.5978 15.3514 11.5527C15.3254 11.5076 15.2902 11.4684 15.2482 11.4375C15.2063 11.4067 15.1583 11.3849 15.1075 11.3735C15.0145 11.353 13.2745 10.9895 11.7525 11.4625C11.3995 9.904 10.207 8.574 10.1515 8.513C10.1164 8.47433 10.0735 8.44343 10.0257 8.42229C9.97793 8.40115 9.92626 8.39023 9.874 8.39023C9.82174 8.39023 9.77006 8.40115 9.72228 8.42229C9.67449 8.44343 9.63165 8.47433 9.5965 8.513C9.5415 8.574 8.348 9.904 7.9955 11.462C6.4735 10.9895 4.7355 11.3525 4.6425 11.373C4.59142 11.384 4.54321 11.4056 4.50097 11.4364C4.45874 11.4672 4.42342 11.5065 4.39728 11.5518C4.37114 11.597 4.35477 11.6472 4.34921 11.6992C4.34365 11.7512 4.34903 11.8037 4.365 11.8535C4.3955 11.9485 5.005 13.809 6.302 14.875H3.375C2.64594 14.8759 1.947 15.166 1.43148 15.6815C0.915955 16.197 0.625926 16.8959 0.625 17.625C0.625593 18.1061 0.752429 18.5787 0.992837 18.9955C1.23325 19.4122 1.57881 19.7586 1.995 20C1.57881 20.2414 1.23325 20.5878 0.992837 21.0045C0.752429 21.4213 0.625593 21.8939 0.625 22.375C0.625 23.8915 1.859 25.125 3.375 25.125H5.435C5.53446 25.125 5.62984 25.0855 5.70017 25.0152C5.77049 24.9448 5.81 24.8495 5.81 24.75C5.81 24.6505 5.77049 24.5552 5.70017 24.4848C5.62984 24.4145 5.53446 24.375 5.435 24.375H3.375C2.272 24.375 1.375 23.478 1.375 22.375C1.375 21.272 2.272 20.375 3.375 20.375H16.375C17.478 20.375 18.375 21.272 18.375 22.375C18.375 23.478 17.478 24.375 16.375 24.375H6.935C6.83554 24.375 6.74016 24.4145 6.66984 24.4848C6.59951 24.5552 6.56 24.6505 6.56 24.75C6.56 24.8495 6.59951 24.9448 6.66984 25.0152C6.74016 25.0855 6.83554 25.125 6.935 25.125H19.875C19.9745 25.125 20.0698 25.0855 20.1402 25.0152C20.2105 24.9448 20.25 24.8495 20.25 24.75C20.25 24.6505 20.2105 24.5552 20.1402 24.4848C20.0698 24.4145 19.9745 24.375 19.875 24.375H18.2565C18.5304 24.1188 18.7489 23.8091 18.8983 23.4651C19.0477 23.1211 19.1248 22.7501 19.125 22.375C19.1244 21.8939 18.9976 21.4213 18.7572 21.0045C18.5168 20.5878 18.1712 20.2414 17.755 20C18.2139 19.7336 18.5858 19.3402 18.8261 18.8671C19.0663 18.3941 19.1646 17.8616 19.109 17.334H28.619C28.488 19.8375 26.41 21.834 23.875 21.834C23.0658 21.8364 22.2696 21.631 21.5626 21.2375C20.8555 20.844 20.2614 20.2755 19.837 19.5865C19.8116 19.5434 19.7779 19.5059 19.7378 19.476C19.6977 19.4461 19.6521 19.4246 19.6035 19.4126C19.555 19.4007 19.5046 19.3986 19.4552 19.4064C19.4058 19.4142 19.3585 19.4318 19.316 19.4582C19.2736 19.4845 19.2368 19.5191 19.2079 19.5599C19.179 19.6007 19.1585 19.6468 19.1477 19.6957C19.1369 19.7445 19.136 19.7949 19.1449 19.8441C19.1539 19.8933 19.1726 19.9402 19.2 19.982C19.8978 21.1087 20.9811 21.9435 22.2485 22.331C21.8517 22.5976 21.5265 22.9576 21.3017 23.3795C21.0768 23.8013 20.9591 24.272 20.959 24.75C20.959 24.957 21.127 25.125 21.334 25.125H26.416C26.5155 25.125 26.6108 25.0855 26.6812 25.0152C26.7515 24.9448 26.791 24.8495 26.791 24.75C26.7909 24.2735 26.674 23.8043 26.4505 23.3834C26.227 22.9626 25.9037 22.6029 25.509 22.336C27.7465 21.6385 29.375 19.548 29.375 17.084V16.959C29.375 16.8595 29.3355 16.7642 29.2652 16.6938C29.1948 16.6235 29.0995 16.584 29 16.584ZM18.75 3.25C18.75 3.21685 18.7632 3.18505 18.7866 3.16161C18.8101 3.13817 18.8418 3.125 18.875 3.125H19.5C19.5995 3.125 19.6948 3.08549 19.7652 3.01516C19.8355 2.94484 19.875 2.84946 19.875 2.75C19.875 2.65054 19.8355 2.55516 19.7652 2.48484C19.6948 2.41451 19.5995 2.375 19.5 2.375H18.875C18.8418 2.375 18.8101 2.36183 18.7866 2.33839C18.7632 2.31495 18.75 2.28315 18.75 2.25V1.625H21V2.25C21 2.28315 20.9868 2.31495 20.9634 2.33839C20.9399 2.36183 20.9082 2.375 20.875 2.375C20.7755 2.375 20.6802 2.41451 20.6098 2.48484C20.5395 2.55516 20.5 2.65054 20.5 2.75C20.5 2.84946 20.5395 2.94484 20.6098 3.01516C20.6802 3.08549 20.7755 3.125 20.875 3.125C20.9082 3.125 20.9399 3.13817 20.9634 3.16161C20.9868 3.18505 21 3.21685 21 3.25V5.625H18.75V3.25ZM14.514 12.036C14.2085 12.771 13.4525 14.277 12.244 14.73C11.6225 14.962 10.969 14.8865 10.2515 14.4965C10.273 13.681 10.5335 13.077 11.0445 12.656C12.0385 11.837 13.724 11.9345 14.514 12.036ZM9.8745 9.358C10.243 9.8405 10.863 10.775 11.0455 11.761C10.8774 11.851 10.7181 11.9565 10.5695 12.076C10.2827 12.3116 10.0465 12.6028 9.875 12.932C9.70354 12.6028 9.46731 12.3116 9.1805 12.076C9.0315 11.9561 8.87164 11.8503 8.703 11.76C8.8855 10.7775 9.506 9.8415 9.8745 9.358ZM5.2365 12.036C6.0265 11.9345 7.7115 11.837 8.7055 12.656C9.2165 13.077 9.477 13.681 9.4985 14.4965C8.7815 14.8865 8.128 14.9625 7.508 14.7305C6.302 14.2795 5.543 12.772 5.2365 12.036ZM16.375 19.625H3.375C2.272 19.625 1.375 18.728 1.375 17.625C1.375 16.522 2.272 15.625 3.375 15.625H16.375C17.478 15.625 18.375 16.522 18.375 17.625C18.375 18.728 17.478 19.625 16.375 19.625ZM27.794 14.7085L27.2915 16.584H25.7295L26.3365 14.318C26.3885 14.1249 26.515 13.9603 26.6882 13.8603C26.8614 13.7603 27.0672 13.733 27.2605 13.7845C27.4536 13.8365 27.6182 13.963 27.7182 14.1362C27.8183 14.3094 27.8455 14.5152 27.794 14.7085ZM26.0085 24.375H21.7415C21.9195 23.3585 22.8085 22.584 23.875 22.584C24.9415 22.584 25.8305 23.359 26.0085 24.375Z" fill="black"/>
</svg>
