<svg width="32" height="32" viewBox="0 0 32 32" fill="none" xmlns="http://www.w3.org/2000/svg">
<path d="M2.75341 2.07982H2.72141C2.62541 2.07982 2.56141 1.98382 2.56141 1.88782L2.62541 1.37582C2.62541 1.27982 2.72141 1.21582 2.81741 1.21582H2.84941C2.94541 1.21582 3.00941 1.31182 3.00941 1.40782L2.94541 1.91982C2.94541 2.01582 2.84941 2.07982 2.75341 2.07982ZM2.56141 3.64782H2.52941C2.43341 3.64782 2.36941 3.55182 2.36941 3.45582L2.43341 2.94382C2.43341 2.84782 2.52941 2.78382 2.62541 2.78382H2.65741C2.75341 2.78382 2.81741 2.87982 2.81741 2.97582L2.75341 3.48782C2.75341 3.58382 2.65741 3.67982 2.56141 3.64782ZM3.04141 2.49582V2.46382C3.04141 2.36782 3.13741 2.30382 3.23341 2.30382L3.74541 2.36782C3.84141 2.36782 3.90541 2.46382 3.90541 2.55982V2.59182C3.90541 2.68782 3.80941 2.75182 3.71341 2.75182L3.20141 2.68782C3.10541 2.68782 3.00941 2.59182 3.04141 2.49582ZM1.44141 2.30382V2.27182C1.44141 2.17582 1.53741 2.11182 1.63341 2.11182L2.14541 2.17582C2.24141 2.17582 2.30541 2.27182 2.30541 2.36782V2.39982C2.33741 2.49582 2.24141 2.59182 2.14541 2.55982L1.63341 2.52782C1.50541 2.49582 1.44141 2.39982 1.44141 2.30382Z" fill="black"/>
<path d="M2.68809 2.62326C2.79413 2.62326 2.88009 2.5373 2.88009 2.43126C2.88009 2.32522 2.79413 2.23926 2.68809 2.23926C2.58205 2.23926 2.49609 2.32522 2.49609 2.43126C2.49609 2.5373 2.58205 2.62326 2.68809 2.62326Z" fill="black"/>
<path d="M28.8667 3.23216H28.8347C28.7387 3.23216 28.6747 3.13616 28.6747 3.04016L28.7387 2.52816C28.7387 2.43216 28.8347 2.36816 28.9307 2.36816H28.9627C29.0587 2.36816 29.1227 2.46416 29.1227 2.56016L29.0587 3.07216C29.0587 3.16816 28.9627 3.23216 28.8667 3.23216ZM28.6747 4.80016H28.6427C28.5467 4.80016 28.4827 4.70416 28.4827 4.60816L28.5467 4.09616C28.5467 4.00016 28.6427 3.93616 28.7387 3.93616H28.7707C28.8667 3.93616 28.9307 4.03216 28.9307 4.12816L28.8667 4.64016C28.8667 4.73616 28.7707 4.80016 28.6747 4.80016ZM29.1227 3.64816V3.61616C29.1227 3.52016 29.2187 3.45616 29.3147 3.45616L29.8267 3.52016C29.9227 3.52016 29.9867 3.61616 29.9867 3.71216V3.74416C29.9867 3.84016 29.8907 3.90416 29.7947 3.90416L29.3147 3.84016C29.1867 3.84016 29.1227 3.74416 29.1227 3.64816ZM27.5547 3.45616V3.42416C27.5547 3.32816 27.6507 3.26416 27.7467 3.26416L28.2587 3.32816C28.3547 3.32816 28.4187 3.42416 28.4187 3.52016V3.55216C28.4187 3.64816 28.3227 3.71216 28.2267 3.71216L27.7147 3.64816C27.6187 3.64816 27.5547 3.55216 27.5547 3.45616Z" fill="black"/>
<path d="M28.8014 3.7756C28.9074 3.7756 28.9934 3.68964 28.9934 3.5836C28.9934 3.47756 28.9074 3.3916 28.8014 3.3916C28.6953 3.3916 28.6094 3.47756 28.6094 3.5836C28.6094 3.68964 28.6953 3.7756 28.8014 3.7756Z" fill="black"/>
<path d="M28.9299 14.5276H28.8979C28.8019 14.5596 28.7059 14.4956 28.6739 14.3996L28.5779 13.8876C28.5459 13.7916 28.6099 13.6956 28.7059 13.6636H28.7379C28.8339 13.6316 28.9299 13.6956 28.9619 13.7916L29.0579 14.3036C29.0899 14.3996 29.0259 14.5276 28.9299 14.5276ZM29.2499 16.0956H29.2179C29.1219 16.1276 29.0259 16.0636 28.9939 15.9676L28.8979 15.4556C28.8659 15.3596 28.9299 15.2636 29.0259 15.2316H29.0579C29.1539 15.1996 29.2499 15.2636 29.2819 15.3596L29.3779 15.8716C29.4099 15.9676 29.3459 16.0636 29.2499 16.0956ZM29.3139 14.8476V14.8156C29.2819 14.7196 29.3459 14.6236 29.4419 14.5916L29.9539 14.4956C30.0499 14.4636 30.1459 14.5276 30.1779 14.6236V14.6556C30.2099 14.7516 30.1459 14.8476 30.0499 14.8796L29.5379 14.9756C29.4419 15.0076 29.3459 14.9436 29.3139 14.8476ZM27.7779 15.1676V15.1356C27.7459 15.0396 27.8099 14.9436 27.9059 14.9116L28.4179 14.8156C28.5139 14.7836 28.6099 14.8476 28.6419 14.9436V14.9756C28.6739 15.0716 28.6099 15.1676 28.5139 15.1996L28.0019 15.2956C27.8739 15.3276 27.7779 15.2636 27.7779 15.1676Z" fill="black"/>
<path d="M28.9615 15.0715C29.0676 15.0715 29.1535 14.9855 29.1535 14.8795C29.1535 14.7735 29.0676 14.6875 28.9615 14.6875C28.8555 14.6875 28.7695 14.7735 28.7695 14.8795C28.7695 14.9855 28.8555 15.0715 28.9615 15.0715Z" fill="black"/>
<path d="M11.5197 12.2239H11.4877C11.3917 12.2559 11.2957 12.1919 11.2637 12.0959L11.1677 11.5839C11.1357 11.4879 11.1997 11.3919 11.2957 11.3599H11.3277C11.4237 11.3279 11.5197 11.3919 11.5517 11.4879L11.6477 11.9999C11.6797 12.0959 11.6157 12.1919 11.5197 12.2239ZM11.8397 13.7599H11.8077C11.7117 13.7919 11.6157 13.7279 11.5837 13.6319L11.4877 13.1199C11.4557 13.0239 11.5197 12.9279 11.6157 12.8959H11.6477C11.7437 12.8639 11.8397 12.9279 11.8717 13.0239L11.9677 13.5359C11.9997 13.6319 11.9357 13.7599 11.8397 13.7599ZM11.9037 12.5119V12.4799C11.8717 12.3839 11.9357 12.2879 12.0317 12.2559L12.5437 12.1599C12.6397 12.1279 12.7357 12.1919 12.7677 12.2879V12.3199C12.7997 12.4159 12.7357 12.5119 12.6397 12.5439L12.1277 12.6399C12.0317 12.6719 11.9357 12.6079 11.9037 12.5119ZM10.3677 12.8319V12.7999C10.3357 12.7039 10.3997 12.6079 10.4957 12.5759L11.0077 12.4799C11.1037 12.4479 11.1997 12.5119 11.2317 12.6079V12.6399C11.2637 12.7359 11.1997 12.8319 11.1037 12.8639L10.5917 12.9599C10.4957 12.9919 10.3997 12.9279 10.3677 12.8319Z" fill="black"/>
<path d="M11.5865 12.7678C11.6926 12.7678 11.7785 12.6818 11.7785 12.5758C11.7785 12.4697 11.6926 12.3838 11.5865 12.3838C11.4805 12.3838 11.3945 12.4697 11.3945 12.5758C11.3945 12.6818 11.4805 12.7678 11.5865 12.7678Z" fill="black"/>
<path d="M3.42595 28.8958H3.39395C3.29795 28.9278 3.20195 28.8638 3.16995 28.7678L3.07395 28.2558C3.04195 28.1598 3.10595 28.0638 3.20195 28.0318H3.23395C3.32995 27.9998 3.42595 28.0638 3.45795 28.1598L3.55395 28.6718C3.58595 28.7678 3.52195 28.8638 3.42595 28.8958ZM3.74595 30.4318H3.71395C3.61795 30.4638 3.52195 30.3998 3.48995 30.3038L3.39395 29.7918C3.36195 29.6958 3.42595 29.5998 3.52195 29.5678H3.55395C3.64995 29.5358 3.74595 29.5998 3.77795 29.6958L3.87395 30.2078C3.90595 30.3358 3.84195 30.4318 3.74595 30.4318ZM3.80995 29.1838V29.1518C3.77795 29.0558 3.84195 28.9598 3.93795 28.9278L4.44995 28.8318C4.54595 28.7998 4.64195 28.8638 4.67395 28.9598V28.9918C4.70595 29.0878 4.64195 29.1838 4.54595 29.2158L4.03395 29.3118C3.93795 29.3438 3.84195 29.2798 3.80995 29.1838ZM2.27395 29.5038V29.4718C2.24195 29.3758 2.30595 29.2798 2.40195 29.2478L2.91395 29.1518C3.00995 29.1198 3.10595 29.1838 3.13795 29.2798V29.3118C3.16995 29.4078 3.10595 29.5038 3.00995 29.5358L2.49795 29.6318C2.40195 29.6958 2.30595 29.6318 2.27395 29.5038Z" fill="black"/>
<path d="M3.45763 29.4397C3.56366 29.4397 3.64962 29.3537 3.64962 29.2477C3.64962 29.1416 3.56366 29.0557 3.45763 29.0557C3.35159 29.0557 3.26562 29.1416 3.26562 29.2477C3.26562 29.3537 3.35159 29.4397 3.45763 29.4397Z" fill="black"/>
<path d="M14.9142 2.65553H14.8822C14.7862 2.68753 14.6902 2.62353 14.6582 2.52753L14.5622 2.01553C14.5302 1.91953 14.5942 1.82353 14.6902 1.79153H14.7222C14.8182 1.75953 14.9142 1.82353 14.9462 1.91953L15.0422 2.43153C15.0742 2.52753 15.0102 2.62353 14.9142 2.65553ZM15.2342 4.19153H15.2022C15.1062 4.22353 15.0102 4.15953 14.9782 4.06353L14.8822 3.55153C14.8502 3.45553 14.9142 3.35953 15.0102 3.32753H15.0422C15.1382 3.29553 15.2342 3.35953 15.2662 3.45553L15.3622 3.96753C15.3942 4.09553 15.3302 4.19153 15.2342 4.19153ZM15.2982 2.94353V2.91153C15.2662 2.81553 15.3302 2.71953 15.4262 2.68753L15.9382 2.59153C16.0342 2.55953 16.1302 2.62353 16.1622 2.71953V2.75153C16.1942 2.84753 16.1302 2.94353 16.0342 2.97553L15.5222 3.07153C15.4262 3.10353 15.3302 3.03953 15.2982 2.94353ZM13.7622 3.26353V3.23153C13.7302 3.13553 13.7942 3.03953 13.8902 3.00753L14.4022 2.91153C14.4982 2.87953 14.5942 2.94353 14.6262 3.03953V3.07153C14.6582 3.16753 14.5942 3.26353 14.4982 3.29553L13.9862 3.39153C13.8902 3.42353 13.7942 3.35953 13.7622 3.26353Z" fill="black"/>
<path d="M14.9772 3.19943C15.0832 3.19943 15.1692 3.11347 15.1692 3.00743C15.1692 2.90139 15.0832 2.81543 14.9772 2.81543C14.8711 2.81543 14.7852 2.90139 14.7852 3.00743C14.7852 3.11347 14.8711 3.19943 14.9772 3.19943Z" fill="black"/>
<path d="M30.1131 9.21574C30.2091 9.11974 30.2731 8.95974 30.2411 8.83174C30.2091 8.70374 30.0811 8.57574 29.9531 8.54374L29.2171 8.38374C29.1851 8.38374 29.1851 8.35174 29.1851 8.35174L28.8331 7.67974C28.7691 7.55174 28.6411 7.45574 28.5131 7.45574C28.3531 7.45574 28.2251 7.51974 28.1611 7.64774L27.7771 8.31974C27.7771 8.35174 27.7451 8.35174 27.7451 8.35174L26.9771 8.41574C26.8171 8.41574 26.7211 8.51174 26.6571 8.63974C26.5931 8.76774 26.6251 8.92774 26.7211 9.02374L27.2331 9.59974V9.66374L27.0731 10.3997C27.0411 10.5277 27.0731 10.6877 27.2011 10.7837C27.2971 10.8797 27.4571 10.8797 27.5851 10.8477L28.2891 10.5277H28.3531L28.9931 10.9117C29.0571 10.9437 29.1211 10.9757 29.1851 10.9757C29.2491 10.9757 29.3131 10.9437 29.3771 10.9117C29.5051 10.8157 29.5691 10.6877 29.5371 10.5597L29.4411 9.79174C29.4411 9.75974 29.4411 9.75974 29.4731 9.72774L30.1131 9.21574ZM29.3131 9.47174C29.2171 9.56774 29.1851 9.66374 29.1851 9.79174L29.2811 10.5597C29.2811 10.5917 29.2811 10.5917 29.2491 10.6237C29.2491 10.6237 29.2171 10.6557 29.1851 10.6237L28.5451 10.2397C28.4811 10.2077 28.4171 10.1757 28.3531 10.1757C28.2891 10.1757 28.2571 10.1757 28.1931 10.2077L27.4891 10.5277H27.4251C27.4251 10.5277 27.3931 10.4957 27.3931 10.4637L27.5531 9.72774C27.5851 9.59974 27.5531 9.47174 27.4571 9.37574L26.9451 8.79974C26.9131 8.76774 26.9451 8.73574 26.9451 8.73574C26.9451 8.73574 26.9771 8.70374 27.0091 8.70374L27.7771 8.63974C27.9051 8.63974 28.0011 8.54374 28.0651 8.44774L28.4491 7.77574C28.4491 7.74374 28.4811 7.74374 28.5131 7.74374C28.5131 7.74374 28.5451 7.74374 28.5771 7.77574L28.8651 8.47974C28.9291 8.60774 29.0251 8.67174 29.1531 8.70374L29.8891 8.86374C29.9211 8.86374 29.9211 8.89574 29.9211 8.89574C29.9211 8.89574 29.9211 8.92774 29.8891 8.95974L29.3131 9.47174ZM11.2011 18.2397V18.1757L11.5531 17.5037C11.6171 17.3757 11.6171 17.2157 11.5211 17.0877C11.4251 16.9597 11.2971 16.9277 11.1371 16.9277L10.3691 17.0557H10.3051L9.76112 16.5117C9.66512 16.4157 9.50512 16.3837 9.37712 16.4157C9.24912 16.4477 9.15312 16.5757 9.12112 16.7357L9.02513 17.5037C9.02513 17.5357 9.02513 17.5357 8.99312 17.5357L8.32112 17.8877C8.19312 17.9517 8.09712 18.0797 8.09712 18.2397C8.09712 18.3997 8.19312 18.5277 8.32112 18.5917L8.99312 18.9437L9.02513 18.9757L9.12112 19.7437C9.15312 19.8717 9.24912 19.9997 9.37712 20.0637C9.40912 20.0637 9.47312 20.0957 9.50513 20.0957C9.60112 20.0957 9.69712 20.0637 9.76112 19.9677L10.3051 19.4237C10.3051 19.4237 10.3371 19.3917 10.3691 19.3917L11.1371 19.5197C11.2651 19.5517 11.4251 19.4877 11.5211 19.3597C11.6171 19.2317 11.6171 19.1037 11.5531 18.9437L11.2011 18.2397ZM11.2651 19.1037C11.2651 19.1037 11.2331 19.1357 11.2011 19.1357L10.4331 19.0077C10.3051 18.9757 10.1771 19.0397 10.1131 19.1037L9.56912 19.6477C9.53712 19.6797 9.50513 19.6797 9.50513 19.6797C9.50513 19.6797 9.47312 19.6477 9.47312 19.6157L9.37712 18.8797C9.34512 18.7517 9.28113 18.6557 9.18512 18.5917L8.48112 18.2397C8.44912 18.2077 8.44912 18.2077 8.44912 18.1757C8.44912 18.1757 8.44912 18.1437 8.48112 18.1117L9.15312 17.7917C9.28113 17.7277 9.34512 17.6317 9.37712 17.5037L9.47312 16.7357C9.47312 16.7037 9.50513 16.7037 9.50513 16.6717H9.53712C9.53712 16.6717 9.56912 16.6717 9.56912 16.7037L10.1131 17.2477C10.2091 17.3437 10.3371 17.3757 10.4331 17.3437L11.2011 17.2157C11.2331 17.2157 11.2651 17.2157 11.2651 17.2477C11.2651 17.2477 11.2971 17.2797 11.2651 17.3117L10.9131 17.9837C10.8491 18.0797 10.8491 18.2397 10.9131 18.3357L11.2651 19.0077V19.1037ZM5.72912 8.09574C4.83312 8.09574 4.09713 7.35974 4.09713 6.46374C4.09713 6.36774 4.03313 6.30374 3.93713 6.30374H3.90512C3.80912 6.30374 3.74512 6.36774 3.74512 6.46374C3.74512 7.35974 3.00912 8.09574 2.11312 8.09574C2.01712 8.09574 1.95312 8.15974 1.95312 8.25574V8.28774C1.95312 8.38374 2.01712 8.44774 2.11312 8.44774C3.00912 8.44774 3.74512 9.18374 3.74512 10.0797C3.74512 10.1757 3.80912 10.2397 3.90512 10.2397H3.93713C4.03313 10.2397 4.09713 10.1757 4.09713 10.0797C4.09713 9.18374 4.83312 8.44774 5.72912 8.44774C5.82512 8.44774 5.88912 8.38374 5.88912 8.28774V8.25574C5.88912 8.15974 5.82512 8.09574 5.72912 8.09574ZM3.93713 9.34374C3.74513 8.86374 3.36112 8.44774 2.84912 8.25574C3.36112 8.06374 3.74513 7.67974 3.93713 7.16774C4.12913 7.67974 4.51312 8.06374 5.02513 8.25574C4.51312 8.44774 4.12913 8.86374 3.93713 9.34374ZM29.4731 20.7037C28.5771 20.6397 27.9051 19.8717 27.9691 18.9757C27.9691 18.9437 27.9691 18.8797 27.9371 18.8477C27.9051 18.8157 27.8731 18.7837 27.8411 18.7837H27.8091C27.7131 18.7837 27.6491 18.8477 27.6491 18.9437C27.5851 19.8397 26.7851 20.5117 25.9211 20.4477C25.8251 20.4477 25.7611 20.5117 25.7611 20.6077V20.6397C25.7611 20.7357 25.8251 20.7997 25.9211 20.7997C26.8171 20.8637 27.4891 21.6637 27.4251 22.5277C27.4251 22.6237 27.4891 22.6877 27.5851 22.6877H27.6491C27.7451 22.6877 27.8091 22.6237 27.8091 22.5277C27.8731 21.6317 28.6731 20.9597 29.5371 21.0237C29.6331 21.0237 29.6971 20.9597 29.6971 20.8637V20.8317C29.6331 20.7997 29.5691 20.7357 29.4731 20.7037ZM27.5851 21.8557C27.4251 21.3437 27.0731 20.9277 26.5931 20.7037C27.1051 20.5437 27.5211 20.1917 27.7451 19.7117C27.9051 20.2237 28.2571 20.6397 28.7371 20.8637C28.2251 20.9917 27.8091 21.3757 27.5851 21.8557ZM8.35312 1.63174C7.80912 1.66374 7.39313 2.11174 7.42513 2.65574C7.45713 3.19974 7.90512 3.58374 8.44912 3.58374C8.99312 3.55174 9.40912 3.10374 9.37712 2.55974C9.34512 2.01574 8.89712 1.59974 8.35312 1.63174ZM8.44912 3.13574C8.16112 3.16774 7.90513 2.94374 7.90513 2.65574C7.90513 2.36774 8.09713 2.14374 8.38513 2.11174C8.67312 2.07974 8.92912 2.30374 8.92912 2.59174C8.96112 2.84774 8.73712 3.10374 8.44912 3.13574ZM24.0011 15.1677C23.4571 15.1997 23.0411 15.6477 23.0731 16.1917C23.1051 16.7357 23.5531 17.1197 24.0971 17.1197C24.6411 17.0877 25.0571 16.6397 25.0251 16.0957C24.9931 15.5517 24.5451 15.1357 24.0011 15.1677ZM24.0971 16.6397C23.8091 16.6717 23.5531 16.4477 23.5531 16.1597C23.5531 15.8717 23.7451 15.6477 24.0331 15.6157C24.3211 15.5837 24.5451 15.8077 24.5771 16.0957C24.6091 16.3837 24.3851 16.6397 24.0971 16.6397ZM29.5371 28.7677C28.9931 28.7997 28.5771 29.2477 28.6091 29.7917C28.6411 30.3357 29.0891 30.7197 29.6331 30.7197C30.1771 30.6877 30.5931 30.2397 30.5611 29.6957C30.5291 29.1517 30.0491 28.7357 29.5371 28.7677ZM29.6011 30.2397C29.3131 30.2717 29.0571 30.0477 29.0571 29.7597C29.0571 29.4717 29.2491 29.2477 29.5371 29.2157C29.8251 29.1837 30.0811 29.4077 30.0811 29.6957C30.1131 29.9837 29.8891 30.2077 29.6011 30.2397ZM21.1851 0.959737C20.6411 0.991737 20.2251 1.43974 20.2571 1.98374C20.2891 2.52774 20.7371 2.94374 21.2811 2.91174C21.8251 2.87974 22.2091 2.43174 22.2091 1.88774C22.1771 1.34374 21.7291 0.927737 21.1851 0.959737ZM21.2491 2.46374C20.9611 2.46374 20.7051 2.27174 20.7051 1.98374C20.7051 1.69574 20.8971 1.43974 21.1851 1.43974C21.4731 1.43974 21.6971 1.63174 21.7291 1.91974C21.7611 2.17574 21.5371 2.43174 21.2491 2.46374Z" fill="black"/>
<path d="M26.8498 24.1602H22.7857C22.8177 24.0322 22.8498 23.8722 22.8498 23.7442C22.8498 22.5922 21.7937 21.5682 20.0657 21.0242C19.6497 19.9042 18.5937 19.1362 17.3777 19.1362C16.1617 19.1362 15.1058 19.9042 14.6898 21.0242C12.9618 21.5682 11.9058 22.6242 11.9058 23.7442C11.9058 23.9042 11.9377 24.0322 11.9698 24.1602H7.93775C6.24175 22.4962 5.21775 20.2562 5.21775 18.1122C5.21775 14.3682 8.41775 10.7202 12.7057 9.6002C12.9618 9.7602 13.2498 9.8562 13.5698 9.8562H21.2498C21.9538 9.8562 22.5617 9.4082 22.7857 8.7362L23.6178 6.0482H24.8337C25.0257 6.0482 25.1537 5.9202 25.1537 5.7282C25.1537 5.5362 25.0257 5.4082 24.8337 5.4082H9.98575C9.79375 5.4082 9.66575 5.5362 9.66575 5.7282C9.66575 5.9202 9.79375 6.0482 9.98575 6.0482H11.2017L11.6177 7.4562C6.27375 8.8322 2.59375 13.2482 2.59375 18.3362C2.59375 21.2482 3.77775 23.9682 5.98575 26.0802V26.1762C5.98575 27.2642 6.88175 28.1602 7.93775 28.1602H8.86575C8.99375 28.2242 9.15375 28.2882 9.28175 28.3522L10.3057 30.2082C10.5617 30.7522 11.1057 31.1042 11.7137 31.1042H23.0417C23.6497 31.1042 24.1938 30.7522 24.4498 30.2402L25.6017 28.1602H26.8178C27.9378 28.1602 28.8018 27.2322 28.8018 26.1762C28.8337 25.0242 27.9377 24.1602 26.8498 24.1602ZM20.2257 21.7282C21.4417 22.2082 22.2098 22.9442 22.2098 23.7122C22.2098 23.8722 22.1777 24.0002 22.1457 24.1282H19.2017C19.9697 23.4562 20.2897 22.5922 20.2257 21.7282ZM15.2657 21.3442C15.5217 20.4162 16.4177 19.7442 17.3777 19.7442C18.3697 19.7442 19.2338 20.4162 19.4897 21.3442C19.9058 22.6882 18.8818 24.1282 17.4098 24.1602H17.3457C16.1297 24.1602 15.1698 23.1682 15.1698 21.9522C15.1698 21.7282 15.2017 21.5362 15.2657 21.3442ZM14.5618 21.7282V21.9522C14.5618 22.8162 14.9777 23.6162 15.6177 24.1602H12.6737C12.6097 24.0322 12.6097 23.8722 12.6097 23.7442C12.5778 22.9442 13.3138 22.1762 14.5618 21.7282ZM22.9137 5.9842L22.1457 8.5122C22.0177 8.9282 21.6658 9.1842 21.2178 9.1842H13.5377C13.3137 9.1842 13.1218 9.1202 12.9298 8.9602C12.7698 8.8642 12.6737 8.6722 12.6097 8.5122L11.8418 6.0162H22.9137V5.9842ZM6.14575 25.2482C6.14575 25.2802 6.14575 25.2802 6.14575 25.2482C4.25775 23.3282 3.23375 20.8642 3.23375 18.2722C3.23375 13.4722 6.75375 9.2802 11.8098 8.0002L12.0337 8.6722C12.0657 8.7362 12.0658 8.8002 12.1298 8.8642C12.1298 8.8962 12.1617 8.8962 12.1617 8.9282C12.1617 8.9602 12.1937 8.9922 12.1937 9.0242C7.80975 10.3362 4.57775 14.1442 4.57775 18.0802C4.57775 20.2562 5.53775 22.5282 7.20175 24.2882C7.20175 24.2882 7.16975 24.2882 7.16975 24.3202C6.68975 24.5122 6.33775 24.8642 6.14575 25.2482ZM23.9057 29.8562C23.7457 30.1762 23.4257 30.4002 23.0737 30.4002H11.7137C11.3617 30.4002 11.0417 30.1762 10.8818 29.8562L9.88975 28.0962H24.8978L23.9057 29.8562ZM26.8498 27.4562H7.93775C7.20175 27.4562 6.62575 26.8482 6.62575 26.1122C6.62575 25.4402 7.10575 24.8322 7.87375 24.7682H26.8818C27.6178 24.7682 28.2257 25.3762 28.2257 26.1122C28.1937 26.8162 27.6178 27.4562 26.8498 27.4562Z" fill="black"/>
<path d="M17.0592 13.568V15.968C17.0592 16.16 17.1872 16.288 17.3792 16.288C17.5712 16.288 17.6992 16.16 17.6992 15.968V13.568C17.6992 13.376 17.5712 13.248 17.3792 13.248C17.1872 13.248 17.0592 13.376 17.0592 13.568ZM14.5312 14.368V16.768C14.5312 16.96 14.6592 17.088 14.8512 17.088C15.0433 17.088 15.1712 16.96 15.1712 16.768V14.368C15.1712 14.176 15.0433 14.048 14.8512 14.048C14.6592 14.048 14.5312 14.176 14.5312 14.368ZM19.5872 14.368V16.768C19.5872 16.96 19.7152 17.088 19.9072 17.088C20.0992 17.088 20.2272 16.96 20.2272 16.768V14.368C20.2272 14.176 20.0992 14.048 19.9072 14.048C19.7152 14.048 19.5872 14.176 19.5872 14.368Z" fill="black"/>
</svg>
