<svg viewBox="0 0 352 58" xmlns="http://www.w3.org/2000/svg" xmlns:xlink="http://www.w3.org/1999/xlink" width="352.000000" height="58.000000" fill="none" customFrame="#000000">
	<g id="Group 47611">
		<path id="Vector" d="M183.179 21.6403C179.658 24.8513 176.465 27.7187 173.344 30.672C172.837 31.1543 172.411 31.9934 172.411 32.6739C172.411 36.0831 172.291 39.5253 172.757 42.8816C172.977 44.4343 174.458 45.8019 175.318 47.2819C175.838 48.1738 176.765 49.2442 176.585 50.0172C176.425 50.6911 174.978 51.4773 174.078 51.5037C169.53 51.6557 164.97 51.6557 160.416 51.5037C159.502 51.4707 158.289 50.7307 157.849 49.9643C157.582 49.5018 158.322 48.0549 158.995 47.5594C161.616 45.6301 162.276 42.994 162.276 40.001C162.276 31.3062 162.289 22.6049 162.303 13.9101C162.303 10.6199 161.743 7.69298 158.909 5.36733C156.882 3.70237 157.589 1.74011 160.249 1.61458C165.01 1.38334 169.797 1.48905 174.564 1.6344C175.358 1.66083 176.591 2.46688 176.778 3.14079C176.965 3.83452 176.345 5.10966 175.685 5.59858C172.964 7.6137 172.304 10.349 172.337 13.4609C172.377 17.0616 172.344 20.669 172.344 25.327C175.424 22.4794 177.805 20.3057 180.152 18.0989C182.812 15.6015 185.413 13.038 188.093 10.5604C189.927 8.86241 190.973 7.37585 188.626 5.10305C186.766 3.29935 187.54 1.62779 190.233 1.50887C193.887 1.33709 197.568 1.37673 201.222 1.60136C202.188 1.66083 203.089 2.74437 204.022 3.35882C203.315 4.22433 202.688 5.18234 201.868 5.92892C201.322 6.43105 200.415 6.53015 199.821 6.99925C197.061 9.19936 193.827 11.0824 191.76 13.8176C189.167 17.2533 193.094 19.9885 194.247 22.8956C196.761 29.2317 199.835 35.3563 202.742 41.5338C203.349 42.8156 204.075 44.0973 204.982 45.1809C207.383 48.0483 209.416 47.6386 210.623 44.0379C211.07 42.7033 211.256 41.2365 211.27 39.8226C211.323 31.0155 211.29 22.2085 211.296 13.4014C211.296 10.3027 210.696 7.54102 207.876 5.59197C207.216 5.13609 206.622 3.8147 206.816 3.11436C207.002 2.44706 208.276 1.61458 209.043 1.641C218.117 1.93832 227.372 1.38333 236.2 3.04829C246.855 5.06341 251.816 14.214 249.315 23.9395C248.195 28.2869 245.255 31.1279 241.121 33.3742C243.641 37.4441 245.748 41.4611 248.455 45.0289C250.829 48.1474 252.649 47.7906 254.816 44.4607C255.35 43.6348 255.75 42.7099 256.123 41.7981C260.197 31.8018 264.211 21.7856 268.331 11.8157C269.338 9.38437 269.765 7.26353 267.498 5.22859C266.911 4.70003 266.531 3.27293 266.838 2.63866C267.151 1.99779 268.438 1.80618 269.312 1.45601C269.505 1.37673 269.752 1.43619 269.972 1.43619C280.467 1.52869 278.08 0.445144 281.647 9.05401C286.074 19.7375 290.235 30.5266 294.542 41.2563C295.075 42.5777 295.582 43.9916 296.462 45.0685C297.309 46.1058 298.983 47.6783 299.663 47.414C301.023 46.8855 302.216 45.4121 302.97 44.0577C303.57 42.9807 303.55 41.4942 303.557 40.1926C303.597 31.1675 303.557 22.1358 303.557 13.1107C303.557 10.1243 302.97 7.47495 300.276 5.57214C299.616 5.10965 299.036 3.78166 299.243 3.08793C299.436 2.42723 300.683 1.66743 301.49 1.641C306.15 1.48244 310.818 1.46923 315.478 1.57494C316.332 1.59476 317.745 2.26206 317.872 2.84347C318.052 3.69577 317.572 5.0568 316.892 5.64482C311.771 10.0715 314.045 15.8328 313.998 21.1315C313.998 21.6337 315.645 22.5719 316.545 22.5917C322.533 22.7238 328.527 22.6577 334.521 22.6644C336.835 22.6644 337.602 21.4421 337.495 19.2882C337.375 16.87 337.775 14.3726 337.295 12.047C336.855 9.91952 335.541 7.96386 334.614 5.93553C334.141 4.91145 333.661 3.88737 333.188 2.86329C334.241 2.3942 335.275 1.5485 336.341 1.51547C340.669 1.38333 345.009 1.40976 349.337 1.58154C350.277 1.62118 351.69 2.31492 351.95 3.04169C352.197 3.72881 351.464 5.16252 350.73 5.72411C348.283 7.60709 347.47 10.0913 347.463 12.9719C347.456 21.9971 347.443 31.0288 347.49 40.0539C347.503 42.994 348.09 45.7094 350.803 47.5924C351.464 48.0483 352.05 49.3697 351.85 50.0634C351.67 50.7109 350.41 51.4509 349.603 51.4707C344.829 51.6028 340.049 51.6755 335.281 51.4773C332.774 51.3716 331.934 49.4291 333.781 48.0219C337.288 45.346 337.595 41.8245 337.482 37.9793C337.408 35.6668 337.388 33.3544 337.495 31.042C337.595 28.7824 336.848 27.4544 334.348 27.4676C328.467 27.5007 322.579 27.5073 316.698 27.494C314.418 27.494 313.565 28.637 313.631 30.8107C313.725 33.7839 313.665 36.757 313.698 39.7301C313.731 42.7825 314.198 45.6169 316.919 47.6783C317.552 48.1606 318.065 49.5349 317.819 50.1955C317.579 50.8496 316.298 51.5037 315.472 51.5103C305.037 51.6028 294.595 51.6028 284.16 51.5368C283.407 51.5368 282.16 50.9355 282.033 50.407C281.853 49.6538 282.233 48.372 282.84 47.8963C285.841 45.5508 284.267 43.0468 283.474 40.4239C282.647 37.6754 280.6 37.3979 278.266 37.4111C274.379 37.4375 270.492 37.4838 266.605 37.4639C264.571 37.4507 262.844 37.8273 262.124 40.0407C261.304 42.5711 259.337 44.9694 261.544 47.7642C262.104 48.4711 262.837 49.9181 262.571 50.222C261.951 50.9289 260.764 51.4905 259.797 51.5037C252.689 51.6227 245.575 51.6623 238.467 51.583C235.073 51.5434 234.36 50.3277 236.14 47.5462C237.387 45.5905 237.367 43.8859 236.207 42.0227C235.913 41.5536 235.687 41.0515 235.413 40.5692C232.439 35.3035 228.972 33.7905 223.051 35.3035C222.418 35.462 221.478 36.1425 221.451 36.6182C221.238 40.3248 220.691 44.1171 223.898 47.1233C224.732 47.9095 225.025 49.2507 225.572 50.3343C224.492 50.7505 223.412 51.5235 222.325 51.5301C212.883 51.6293 203.442 51.6491 193.994 51.5632C190.4 51.5302 189.987 50.4136 191.727 47.3413C192.42 46.119 193.04 44.2295 192.574 43.0931C189.667 35.9906 186.446 29.007 183.166 21.6271L183.179 21.6403ZM221.298 17.9206C221.298 19.7903 221.298 21.6601 221.298 23.5299C221.293 28.8375 224.018 31.3701 229.472 31.1279C233.706 30.9495 237.18 29.311 238.734 25.3204C240.694 20.2925 239.981 15.324 236.773 10.9172C233.606 6.56319 228.972 5.26162 223.845 5.74393C222.918 5.82982 221.511 7.38246 221.411 8.36689C221.098 11.525 221.298 14.736 221.291 17.9206L221.298 17.9206ZM273.205 14.5444C272.919 14.5642 272.632 14.584 272.352 14.6105C270.058 20.451 267.758 26.2916 265.258 32.6541L280.393 32.6541C277.846 26.2387 275.526 20.3916 273.205 14.551L273.205 14.5444Z" fill="rgb(249,249,249)" fill-rule="nonzero" />
		<path id="Vector" d="M103.282 36.2535C95.1542 51.357 84.2993 57.1513 70.6906 53.9205C58.3888 51.0068 50.4877 40.9643 50.221 27.9155C49.9676 15.5209 57.5821 4.84404 68.9837 1.59341C83.1258 -2.44344 93.6273 2.70338 103.109 18.3024C113.124 2.75623 123.138 -2.46326 136.234 1.04503C147.969 4.18995 156.29 14.4439 156.69 26.2704C157.117 38.6849 149.802 49.2098 137.68 53.174C130.639 55.4798 123.692 54.9248 116.997 51.5817C110.45 48.3178 106.169 43.0389 103.289 36.2535L103.282 36.2535ZM98.288 27.3804C98.2347 14.6223 89.7268 6.15882 77.0049 6.20507C64.3964 6.25132 55.9418 14.8866 55.9885 27.6777C56.0352 40.3697 64.6431 48.9257 77.2916 48.8464C89.9468 48.7671 98.3413 40.1847 98.288 27.3804ZM107.269 27.1161C107.416 39.7948 117.104 49.4476 129.559 49.3023C141.741 49.1635 151.602 39.2927 151.489 27.3672C151.369 14.8932 141.401 5.14796 128.973 5.35277C116.924 5.55098 107.143 15.3623 107.276 27.1161L107.269 27.1161Z" fill="rgb(249,249,249)" fill-rule="nonzero" />
		<path id="Vector" d="M30.7912 24.6182C32.7915 25.3581 34.2784 25.8272 35.6919 26.4417C41.5794 29.025 45.1599 33.3327 45.2666 39.8868C45.3733 46.6392 42.6262 52.1229 36.2253 54.7393C32.1047 56.4175 27.504 57.349 23.05 57.6992C16.6424 58.2013 10.1682 57.9503 3.72721 57.8247C2.4737 57.7983 1.24018 56.8667 0 56.3514C0.70677 55.3273 1.51356 54.3561 2.10031 53.2725C3.05378 51.5019 4.58067 49.6651 4.61401 47.835C4.84071 35.9491 4.87405 24.05 4.59401 12.1706C4.54733 10.2018 2.67373 8.26594 1.61357 6.3301C1.1135 5.42495 0.540079 4.55283 0 3.6675C0.900132 3.15215 1.80026 2.18093 2.69373 2.18753C10.5749 2.26682 18.4494 2.42539 26.3239 2.78217C28.1441 2.86806 30.0111 3.64106 31.7113 4.40747C35.7186 6.21117 38.3523 9.12484 38.6323 13.7101C38.9124 18.3482 36.5387 21.4006 32.6781 23.5875C32.218 23.8451 31.7513 24.0896 30.7978 24.6049L30.7912 24.6182ZM13.9754 39.7547C13.9754 39.7547 14.0087 39.7547 14.0221 39.7547C14.0221 42.8402 13.9887 45.919 14.0354 49.0045C14.0754 51.9049 15.6356 53.702 18.536 53.6359C21.8299 53.5632 25.2037 53.3584 28.3708 52.5458C31.938 51.6274 34.1183 48.9714 34.8051 45.2583C37.2521 32.0906 26.6706 26.2963 16.4757 27.3402C15.5423 27.4327 14.2221 29.3487 14.0954 30.5248C13.7554 33.5706 13.9821 36.6759 13.9821 39.7613L13.9754 39.7547ZM13.9754 14.7474C13.9887 23.2902 14.8755 24.0301 23.1501 22.4114C28.4842 21.3741 30.8245 16.9805 28.6575 12.0055C27.084 8.39147 24.0502 6.85205 20.2963 6.38296C14.9088 5.70905 13.9554 6.52171 13.962 11.7742C13.962 12.7653 13.962 13.7497 13.9687 14.7408L13.9754 14.7474Z" fill="rgb(249,249,249)" fill-rule="nonzero" />
		<path id="Vector" d="M126.724 13.9355L130.638 13.9355C130.638 17.7345 130.752 21.4344 130.592 25.1277C130.498 27.2486 131.125 28.5898 133.079 29.6205C136.299 31.3185 139.366 33.2807 142.754 35.2826C142.127 36.3596 141.607 37.2515 140.96 38.3681C136.546 35.7716 132.325 33.36 128.205 30.7965C127.498 30.3538 126.805 29.2703 126.785 28.4576C126.651 23.7535 126.718 19.0361 126.718 13.9422L126.724 13.9355Z" fill="rgb(249,249,249)" fill-rule="nonzero" />
	</g>
</svg>
